<?xml version="1.0" encoding="UTF-8"?>
<svg width="480px" height="512px" viewBox="0 0 480 512" version="1.1" xmlns="http://www.w3.org/2000/svg" xmlns:xlink="http://www.w3.org/1999/xlink">
    <!-- Generator: Sketch 55.2 (78181) - https://sketchapp.com -->
    <title>001-worldwide 2</title>
    <desc>Created with Sketch.</desc>
    <g id="Page-1" stroke="none" stroke-width="1" fill="none" fill-rule="evenodd">
        <g id="001-worldwide-2" fill-rule="nonzero">
            <g id="001-worldwide">
                <path d="M10.675,371.784 C50.529,454.733 135.322,512 233.492,512 C339.1,512 429.173,445.724 464.529,352.522 C436.191,255.24 346.422,184.12 239.99,184.12 C126.63,184.12 32.131,264.748 10.675,371.784 Z" id="Path" fill="#63D1DB"></path>
                <g id="Group" transform="translate(10.000000, 177.000000)" fill="#FFFFFF">
                    <path d="M351.549,154.599 L340.009,157.021 L360.599,195.925 L388.872,226.008 L402.658,225.04 L414.511,244.591 C379.623,287.108 330.794,317.792 274.968,329.588 L252.683,274.563 L259.999,251.856 L238.93,240.495 L187.057,249.432 L159.097,220.23 L163.567,205.254 L159.097,180.921 L198.529,128.605 L218.451,133.786 L264.636,131.477 L290.384,143.017 L308.831,133.788 L334.37,144.061 L353.209,134.94 L349.302,120.64 L329.1,120.16 L318.079,105.225 L310.934,106.948 L308.622,113.315 L295.238,118.486 L278.498,94.811 L255.978,91.048 L230.58,106.948 L199.663,109.815 L187.055,108.691 L194.638,85.876 L213.531,89.035 L221.705,84.081 L222.02,67.963 L253.93,51.538 L262.04,56.12 L299.498,49.871 L296.59,27.76 L258.123,35.76 L244.023,17.031 L253.242,8.255 L261.657,0.255 C346.38,14.276 416.355,71.912 447.741,149.283 L445.079,149.088 L413.988,146.822 L409.838,164.914 L433.39,167.18 L451.896,182.148 C444.07,201.133 433.948,218.904 421.865,235.166 L384.614,192.987 L378.992,176.938 L351.549,154.599 Z" id="Path"></path>
                    <path d="M108.149,143.397 L105.318,147.867 L113.456,156.54 L105.935,168.672 L88.617,166.926 L68.682,202.251 L90.649,228.99 L71.139,249.915 L40.862,254.272 C24.706,236.618 11.122,216.589 0.655,194.775 C1.287,191.716 1.976,188.626 2.703,185.572 C2.739,185.5 2.739,185.464 2.739,185.429 C5.645,174.214 9.18,163.28 13.371,152.656 C13.517,152.211 13.688,151.77 13.893,151.327 C27.686,116.542 48.069,85.079 73.464,58.427 L80.816,60.849 L95.856,65.841 L88.058,87.243 L63.208,101.095 L70.45,123.956 L65.182,135.279 L77.352,139.749 L96.995,114.09 L116.917,98.758 L139.721,120.423 L134.079,143.396 L108.149,143.397 L108.149,143.397 Z" id="Path"></path>
                </g>
                <g id="Group" transform="translate(12.000000, 187.000000)" fill="#2E3133">
                    <polygon id="Path" points="271.699 296.243 258.63 272.026 265.243 251.436 249.85 243.159 196.965 252.242 164.778 218.676 169.77 201.882 165.116 176.474 208.204 119.294 230.872 125.21 277.544 122.86 302.125 133.899 320.411 124.724 346.016 134.984 358.573 128.909 356.929 122.949 338.141 122.491 327.674 108.324 326.957 108.498 324.799 114.476 305.107 122.071 287.215 96.768 268.993 93.735 244.23 109.197 211.547 112.254 192.485 110.567 197.951 78.974 218.996 82.148 217.361 92.997 206.934 91.423 205.329 100.69 211.519 101.241 240.623 98.517 266.7 82.235 293.531 86.697 309.129 108.757 316.179 106.041 318.647 99.218 332.172 95.952 343.776 111.652 365.341 112.177 371.58 134.802 346.436 146.972 320.915 136.743 302.386 146.041 275.457 133.952 229.736 136.254 212.543 131.766 176.774 179.234 181.037 202.491 177.115 215.691 200.851 240.443 251.724 231.711 278.486 246.101 270.506 270.933 281.356 291.034"></polygon>
                    <path d="M435.58,172.8 L415.794,163.123 L421.833,136.827 L439.858,142.254 C416.283,82.562 371.565,35.981 313.594,10.847 L317.959,0.784 C379.78,27.58 427.184,77.658 451.442,141.794 L452.702,145.119 L443.076,154.683 L429.902,150.71 L428.438,157.092 L440.403,162.942 L435.58,172.8 Z" id="Path"></path>
                    <polygon id="Path" points="396.735 226.701 367.96 196.068 343.615 150.075 364.85 145.603 395.521 170.614 401.151 186.642 418.584 200.894 411.642 209.385 391.817 193.186 386.193 177.165 361.98 157.417 360.122 157.809 376.966 189.632 404.732 219.185"></polygon>
                    <polygon id="Path" points="64.982 232.226 56.951 224.748 69.971 210.765 48.662 184.822 70.468 146.222 80.022 151.621 61.915 183.673 84.538 211.216"></polygon>
                    <path d="M10.986,140.332 L0.815,136.218 C15.397,100.135 38.15,66.819 66.615,39.872 L68.996,37.619 L89.54,44.406 L79.377,72.284 L62.018,89.344 L62.576,107.085 L59.271,114.204 L62.038,115.218 L79.682,92.181 L103.892,73.552 L130.135,98.448 L122.586,106.404 L103.15,87.964 L87.516,99.996 L65.853,128.281 L44.298,120.429 L51.535,104.828 L50.905,84.888 L69.923,66.2 L75.36,51.278 L71.804,50.1 C45.572,75.564 24.58,106.699 10.986,140.332 Z" id="Path"></path>
                </g>
                <g id="Group" transform="translate(56.000000, 230.000000)" fill="#13282C">
                    <polygon id="Path" points="153.664 56.815 150.397 56.523 148.485 67.567 167.547 69.254 200.23 66.197 224.993 50.735 240.653 53.341 232.499 41.811 221.514 39.975 196.623 55.517 167.519 58.241 161.329 57.69 161.608 56.077"></polygon>
                    <polygon id="Path" points="179.996 80.415 164.204 76.294 162.721 78.26 172.449 80.792"></polygon>
                    <polygon id="Path" points="251.016 64.799 261.107 79.071 280.799 71.476 282.601 66.484 274.97 56.139 274.647 56.218 272.179 63.041 265.129 65.757 261.571 60.721"></polygon>
                    <polygon id="Path" points="306.619 79.796 303.603 68.744 299.776 68.652 298.952 67.539 285.064 67.208 294.141 79.491"></polygon>
                    <polygon id="Path" points="316.122 114.809 317.98 114.417 334.326 127.75 332.992 123.943 309.673 104.958 299.615 107.075 323.74 152.653 342.874 173.011 356.657 172.043 359.736 177.119 360.732 176.185 332.966 146.632"></polygon>
                    <path d="M21.852,85.277 L43.515,56.992 L59.149,44.96 L78.585,63.4 L86.134,55.444 L59.891,30.548 L35.681,49.177 L18.037,72.214 L15.27,71.2 L18.575,64.081 L18.017,46.34 L35.376,29.28 L45.539,1.402 L43.775,0.818 C39.031,4.376 34.441,8.124 29.987,12.028 L25.919,23.192 L6.902,41.88 L7.532,61.82 L0.295,77.421 L21.852,85.277 Z" id="Path"></path>
                    <polygon id="Path" points="293.507 88.574 276.411 81.724 271.396 84.237 288.369 91.065"></polygon>
                    <polygon id="Path" points="395.866 121.035 396.401 119.942 391.631 117.612"></polygon>
                    <polygon id="Path" points="306.214 102.142 305.549 101.599 299.62 102.846 302.436 103.972"></polygon>
                    <path d="M399.058,96.088 L394.376,95.748 C394.86,96.92 395.39,98.067 395.858,99.253 L380.974,94.77 L377.672,94.529 L373.466,112.841 L384.479,113.901 L385.902,107.708 L399.076,111.681 L403.495,107.291 C402.099,103.514 400.635,99.772 399.058,96.088 Z" id="Path"></path>
                    <polygon id="Path" points="212.439 203.702 214.001 198.856 198.208 190.342 156.851 197.443 153.782 194.243 141.059 196.435 120.873 175.355 120.778 175.676 152.965 209.242 205.85 200.159"></polygon>
                    <polygon id="Path" points="12.951 181.748 20.982 189.226 40.538 168.216 17.915 140.673 36.022 108.621 26.468 103.222 4.662 141.822 25.971 167.765"></polygon>
                    <polygon id="Path" points="249.961 87.233 233.544 79.86 222.902 80.395 244.383 90.023"></polygon>
                </g>
                <path d="M240,491.159 C180.393,491.159 123.284,469.128 79.199,429.128 C75.879,426.102 72.471,422.81 69.064,419.341 C45.934,395.786 28.247,368.287 16.484,337.598 L15.893,336.733 L15.867,336.003 C14.692,332.908 13.624,329.872 12.69,326.974 C4.687,302.941 0.62,277.627 0.62,251.789 C0.62,180.094 32.338,112.804 87.64,67.167 L94.621,75.633 C41.857,119.176 11.593,183.383 11.593,251.789 C11.593,276.447 15.471,300.593 23.118,323.559 C24.045,326.436 25.097,329.416 26.259,332.46 L26.507,333.092 C37.73,362.601 54.68,389.036 76.893,411.653 C80.16,414.984 83.418,418.127 86.58,421.01 C128.636,459.167 183.123,480.19 240.001,480.19 C251.544,480.19 263.182,479.309 274.587,477.576 C279.044,476.9 283.224,476.142 287.359,475.252 C334.11,465.409 375.973,441.47 408.457,406.017 C409.437,404.996 410.259,404.048 411.086,403.099 C413.16,400.754 414.977,398.645 416.767,396.44 C418.825,393.934 420.817,391.389 422.76,388.827 C432.217,376.196 440.35,362.677 446.903,348.684 C449.389,343.372 451.544,338.275 453.487,333.106 C463.394,307.183 468.409,279.832 468.409,251.788 C468.409,226.925 464.431,202.436 456.574,179 L466.975,175.513 C475.208,200.074 479.381,225.738 479.381,251.788 C479.381,281.177 474.123,309.846 463.75,336.998 C461.712,342.41 459.449,347.765 456.838,353.341 C449.967,368.007 441.45,382.174 431.517,395.435 C429.466,398.133 427.393,400.793 425.268,403.381 C423.394,405.682 421.477,407.91 419.482,410.162 C418.412,411.388 417.467,412.471 416.451,413.523 C382.508,450.574 338.627,475.662 289.644,485.979 C285.307,486.911 280.909,487.712 276.232,488.421 C264.284,490.24 252.093,491.159 240,491.159 Z" id="Path" fill="#2E3133"></path>
                <path d="M239.992,0 C187.399,0 144.706,42.714 144.706,95.268 C144.706,117.233 152.686,136.876 164.436,153.354 C239.992,259.254 239.992,259.254 239.992,259.254 C239.992,259.254 239.992,259.254 315.561,153.339 C327.332,136.858 335.293,117.176 335.293,95.268 C335.293,42.714 292.641,0 239.992,0 Z" id="Path" fill="#F95632"></path>
                <path d="M243.658,165.688 C208.171,165.688 179.323,136.811 179.323,101.324 C179.323,65.871 208.174,37.032 243.658,37.032 C279.129,37.032 308.001,65.87 308.001,101.324 C308.001,136.812 279.13,165.688 243.658,165.688 Z" id="Path" fill="#FFFFFF"></path>
                <g id="Group" transform="translate(166.000000, 21.000000)" fill="#2E3133">
                    <path d="M70.319,140.428 C31.819,140.428 0.495,109.104 0.495,70.599 C0.495,32.109 31.819,0.798 70.319,0.798 C108.824,0.798 140.148,32.109 140.148,70.599 C140.148,109.104 108.824,140.428 70.319,140.428 Z M70.319,11.771 C37.866,11.771 11.467,38.162 11.467,70.6 C11.467,103.053 37.868,129.457 70.319,129.457 C102.775,129.457 129.176,103.053 129.176,70.6 C129.176,38.162 102.772,11.771 70.319,11.771 Z" id="Shape"></path>
                </g>
                <g id="Group" transform="translate(59.000000, 2.000000)" fill="#C1CED4">
                    <path d="M247.074,26.846 C247.036,26.329 247.018,25.807 247.018,25.287 C247.018,11.34 258.343,0.025 272.288,0.025 C285.554,0.025 296.403,10.239 297.471,23.226 C298.784,22.804 300.162,22.596 301.618,22.596 C305.317,22.596 308.671,24.042 311.187,26.392 C313.967,22.357 318.631,19.718 323.895,19.718 C332.1,19.718 338.794,26.1 339.296,34.174 C340.033,33.956 340.801,33.836 341.592,33.836 C346.218,33.836 349.945,37.592 349.953,42.21 C349.953,46.813 346.203,50.571 341.592,50.571 L248.526,50.571 C241.939,50.571 236.618999,45.239 236.618999,38.662 C236.616,32.578 241.173,27.563 247.074,26.846 Z" id="Path"></path>
                    <path d="M353.106,147.658 C352.172,147.658 351.278,147.794 350.428,148.109 C350.674,146.834 350.804,145.562 350.804,144.249 C350.804,133.215 341.872,124.271 330.846,124.271 C319.812,124.271 310.878,133.221 310.878,144.249 C310.878,144.385 310.893,144.531 310.893,144.684 C309.626,144.118 308.243,143.783 306.769,143.783 C301.122,143.783 296.555,148.365 296.555,153.997 C296.555,159.637 301.127,164.211 306.769,164.211 L353.105,164.208 C357.677,164.208 361.381001,160.488 361.381001,155.919 C361.383,151.349 357.681,147.658 353.106,147.658 Z" id="Path"></path>
                    <path d="M101.765,125.557 C101.75,125.557 101.737,125.557 101.737,125.557 C101.737,125.257 101.765,124.937 101.765,124.646 C101.765,106.846 87.342,92.421 69.553,92.421 C55.015,92.421 42.717,102.075 38.725,115.307 C36.303,114.178 33.597,113.52 30.73,113.52 C20.367,113.52 11.955,121.924 11.955,132.285 C11.955,134.691 12.4,136.962 13.217,139.069 C13.007,139.051 12.813,139.036 12.605,139.036 C5.954,139.036 0.568,144.42 0.568,151.073 C0.568,157.724 5.954,163.113 12.605,163.113 L101.767,163.113 C112.127,163.113 120.532,154.706 120.532,144.325 C120.528,133.956 112.126,125.557 101.765,125.557 Z" id="Path"></path>
                </g>
                <path d="M239.99,184.12 C222.899,184.12 206.247,185.984 190.201,189.463 C212.89,221.266 225.242,238.579 231.962,247.997 L232.021,244.963 L260.729,230.187 C264.456,224.959 268.849,218.805 274.038,211.53 L268.122,212.759 L254.022,194.03 L263.189,185.303 C255.555,184.553 247.826,184.12 239.99,184.12 Z" id="Path" fill="#61462B"></path>
                <g id="Group" transform="translate(144.000000, 26.000000)" fill="#BC452A">
                    <path d="M162.048,0.65 C162.043,0.862 162.015,1.072 162.015,1.287 C162.015,1.809 162.036,2.329 162.071,2.846 C156.17,3.563 151.613,8.578 151.613,14.66 C151.613,21.237 156.933,26.569 163.52,26.569 L181.169,26.569 C176.287,16.865 169.8,8.112 162.048,0.65 Z" id="Path"></path>
                    <path d="M16.765,101.557 C16.75,101.557 16.737,101.557 16.737,101.557 C16.737,101.257 16.765,100.937 16.765,100.646 C16.765,88.778 10.334,78.438 0.788,72.847 C1.6,93.368 9.328,111.777 20.436,127.355 C22.607,130.396 24.706,133.34 26.754,136.21 C32.02,132.885 35.527,127.025 35.527,120.325 C35.528,109.956 27.126,101.557 16.765,101.557 Z" id="Path"></path>
                </g>
                <path d="M179.61,107.302 C178.222,102.3 177.467,97.039 177.467,91.599 C177.467,59.161 203.868,32.77 236.319,32.77 C247.573,32.77 258.099,35.95 267.052,41.448 C285.929,48.839 300.491,64.882 305.805,84.684 C302.318,49.43 272.487,21.8 236.319,21.8 C197.819,21.8 166.495,53.111 166.495,91.601 C166.495,120.982 184.743,146.162 210.494,156.456 C193.436,146.15 181.537,128.151 179.61,107.302 Z" id="Path" fill="#2D110A"></path>
            </g>
        </g>
    </g>
</svg>