<?xml version="1.0" encoding="UTF-8"?>
<svg width="250px" height="292px" viewBox="0 0 250 292" version="1.1" xmlns="http://www.w3.org/2000/svg" xmlns:xlink="http://www.w3.org/1999/xlink">
    <!-- Generator: Sketch 52.4 (67378) - http://www.bohemiancoding.com/sketch -->
    <title>card-sort</title>
    <desc>Created with Sketch.</desc>
    <defs>
        <polygon id="path-1" points="0.02 0.319820051 145.714667 0.319820051 145.714667 129.979949 0.02 129.979949"></polygon>
    </defs>
    <g id="card-sort" stroke="none" stroke-width="1" fill="none" fill-rule="evenodd">
        <g id="015-paper" transform="translate(40.000000, 120.000000)">
            <path d="M162.311056,129 L79.1611522,129 L41,90.8388478 L41,7.68894427 C41,3.44238912 44.4423891,0 48.6889443,0 L162.311056,0 C166.557611,0 170,3.44238912 170,7.68894427 L170,121.311056 C170,125.557611 166.557611,129 162.311056,129" id="Fill-1" fill="#1CB5C3"></path>
            <path d="M149.496626,55 L62.5033741,55 C61.120844,55 60,53.881 60,52.5 C60,51.119 61.120844,50 62.5033741,50 L149.496626,50 C150.879156,50 152,51.119 152,52.5 C152,53.881 150.879156,55 149.496626,55" id="Fill-2" fill="#38434E"></path>
            <path d="M149.496626,71 L62.5033741,71 C61.120844,71 60,69.881 60,68.5 C60,67.119 61.120844,66 62.5033741,66 L149.496626,66 C150.879156,66 152,67.119 152,68.5 C152,69.881 150.879156,71 149.496626,71" id="Fill-3" fill="#38434E"></path>
            <path d="M149.496626,88 L62.5033741,88 C61.120844,88 60,86.881 60,85.5 C60,84.119 61.120844,83 62.5033741,83 L149.496626,83 C150.879156,83 152,84.119 152,85.5 C152,86.881 150.879156,88 149.496626,88" id="Fill-4" fill="#38434E"></path>
            <path d="M129.018552,130 L145,130 L145,87.1004329 L129.018552,87.1004329 L129.018552,130 Z M129.018552,82.0249225 L145,82.0249225 L145,70.8763948 L129.018552,70.8763948 L129.018552,82.0249225 Z M129.018552,65.8008844 L145,65.8008844 L145,54.6526951 L129.018552,54.6526951 L129.018552,65.8008844 Z M144.904634,49.5771847 L129.018552,49.5771847 L129.018552,43.5528923 C129.018552,43.3667902 129.012368,43.1827184 129,43 L137.471948,43 C141.220839,43 144.329509,45.8483764 144.904634,49.5771847 Z" id="Fill-5" fill="#20A2B0"></path>
            <path d="M145,55 L129,55 L129,50 L144.904523,50 C144.967414,50.4006667 145,50.8116667 145,51.2303333 L145,55" id="Fill-6" fill="#313A45"></path>
            <polygon id="Fill-7" fill="#313A45" points="129 71 145 71 145 66 129 66"></polygon>
            <g id="Group-13" transform="translate(0.000000, 36.000000)">
                <mask id="mask-2" fill="white">
                    <use xlink:href="#path-1"></use>
                </mask>
                <g id="Clip-9"></g>
                <polygon id="Fill-8" fill="#313A45" mask="url(#mask-2)" points="129.347667 51.0592545 145.714667 51.0592545 145.714667 46.046401 129.347667 46.046401"></polygon>
                <path d="M121.638,130 L38.264,130 L0,91.637635 L0,8.04930591 C0,3.7803599 3.45166667,0.319820051 7.70966667,0.319820051 L121.638,0.319820051 C125.896,0.319820051 129.347667,3.7803599 129.347667,8.04930591 L129.347667,122.270514 C129.347667,126.53946 125.896,130 121.638,130" id="Fill-10" fill="#EB9060" mask="url(#mask-2)"></path>
                <path d="M54.3566667,130 L38.264,130 L24.3646667,110.818817 L37.43,102.199049 C37.43,108.052725 45.737,130 54.3566667,130" id="Fill-11" fill="#E98652" mask="url(#mask-2)"></path>
                <path d="M14.1916667,92.8470694 C9.43033333,92.9911054 4.66866667,92.5850643 0,91.6373008 C0,112.824293 17.1313333,129.999666 38.264,129.999666 C37.3186667,125.318997 36.914,120.544756 37.0576667,115.771517 L37.513,99.1762982 C37.615,95.460437 34.5963333,92.4146272 30.8893333,92.493162 L14.1916667,92.8470694" id="Fill-12" fill="#F9CF8B" mask="url(#mask-2)"></path>
            </g>
            <path d="M27.5,73 C26.1193333,73 25,71.8923118 25,70.5252722 L25,64.4747278 C25,63.1076882 26.1193333,62 27.5,62 C28.8806667,62 30,63.1076882 30,64.4747278 L30,70.5252722 C30,71.8919819 28.8806667,73 27.5,73" id="Fill-14" fill="#38434E"></path>
            <path d="M64.5,85 C58.7011179,85 54,80.2973628 54,74.4966066 L54,66.8026469 C54,65.2548963 55.2544908,64 56.8017414,64 L72.1982586,64 C73.7455092,64 75,65.2548963 75,66.8026469 L75,74.4966066 C75,80.2977022 70.2992214,85 64.5,85" id="Fill-15" fill="#38434E"></path>
            <path d="M99.5,73 C98.1193333,73 97,71.8923118 97,70.5252722 L97,64.4747278 C97,63.1076882 98.1193333,62 99.5,62 C100.880667,62 102,63.1076882 102,64.4747278 L102,70.5252722 C102,71.8919819 100.880667,73 99.5,73" id="Fill-16" fill="#38434E"></path>
            <path d="M99.4893815,103 L27.5106185,103 C26.1240876,103 25,101.881 25,100.5 C25,99.119 26.1240876,98 27.5106185,98 L99.4893815,98 C100.875912,98 102,99.119 102,100.5 C102,101.880667 100.875912,103 99.4893815,103" id="Fill-17" fill="#38434E"></path>
            <path d="M89.5107729,117 L39.4895589,117 C38.1146585,117 37,115.881 37,114.5 C37,113.119 38.1146585,112 39.4895589,112 L89.510441,112 C90.8853414,112 91.9999999,113.119 91.9999999,114.5 C92.0003319,115.881 90.8856733,117 89.5107729,117" id="Fill-18" fill="#38434E"></path>
        </g>
    </g>
</svg>