<?xml version="1.0" encoding="UTF-8"?>
<svg width="250px" height="292px" viewBox="0 0 250 292" version="1.1" xmlns="http://www.w3.org/2000/svg" xmlns:xlink="http://www.w3.org/1999/xlink">
    <!-- Generator: Sketch 52.4 (67378) - http://www.bohemiancoding.com/sketch -->
    <title>contextual-enquiry</title>
    <desc>Created with Sketch.</desc>
    <defs>
        <polygon id="path-1" points="0.0212109375 0 181 0 181 181 0.0212109375 181"></polygon>
        <polygon id="path-3" points="0.0212109375 0.24148549 181 0.24148549 181 52.9799459 0.0212109375 52.9799459"></polygon>
        <polygon id="path-5" points="0.0212345679 0.347095238 171.685021 0.347095238 171.685021 111 0.0212345679 111"></polygon>
        <polygon id="path-7" points="0.00666666667 0.0792253521 3.90822222 0.0792253521 3.90822222 8.99657746 0.00666666667 8.99657746"></polygon>
        <polygon id="path-9" points="0.00742474916 0.115283019 36.9972776 0.115283019 36.9972776 25.9980377 0.00742474916 25.9980377"></polygon>
        <polygon id="path-11" points="0.00967105263 0.0137142857 48.8828191 0.0137142857 48.8828191 31.914819 0.00967105263 31.914819"></polygon>
    </defs>
    <g id="contextual-enquiry" stroke="none" stroke-width="1" fill="none" fill-rule="evenodd">
        <g id="004-river" transform="translate(35.000000, 101.000000)">
            <g id="Group-3">
                <mask id="mask-2" fill="white">
                    <use xlink:href="#path-1"></use>
                </mask>
                <g id="Clip-2"></g>
                <path d="M90.5,0 C140.48216,0 181,40.5178398 181,90.5 C181,140.48216 140.48216,181 90.5,181 C40.5178398,181 0,140.48216 0,90.5 C0,40.5178398 40.5178398,0 90.5,0" id="Fill-1" fill="#B4DEE0" mask="url(#mask-2)"></path>
            </g>
            <path d="M58.0298793,29.201694 C59.6295054,29.201694 61.1372695,29.5714189 62.4736065,30.2264406 C63.9184416,28.84991 65.8985349,28 68.0822432,28 C71.8641309,28 75.0340885,30.546564 75.8836298,33.9718843 C77.7729462,34.5238334 79.2890286,35.9130282 79.9816092,37.6937585 C80.2087322,37.6687819 80.4391102,37.6582284 80.6723814,37.6582284 C84.1653021,37.6582284 87,40.4134003 87,43.8140957 C87,47.2137358 84.1653021,49.9696113 80.6723814,49.9696113 C79.5830589,49.9696113 78.5577503,49.7026073 77.664448,49.2312168 C76.895557,51.7897414 74.4677275,53.6577142 71.5881837,53.6577142 C69.8308735,53.6577142 68.2410123,52.9604784 67.0938241,51.8333626 C65.9462741,52.9604784 64.354243,53.6577142 62.5962095,53.6577142 C60.9260596,53.6577142 59.4045523,53.0266138 58.2725538,51.9976458 C57.1170473,53.2274824 55.4534073,54 53.6038736,54 C51.8715181,54 50.3033565,53.3263337 49.1626781,52.2298232 C48.6397165,52.342394 48.0954169,52.4004384 47.5388208,52.4004384 C43.3735726,52.4004384 40,49.116887 40,45.0678537 C40,41.0177651 43.3735726,37.7342137 47.5388208,37.7342137 C47.7648589,37.7342137 47.9901736,37.7447672 48.2122334,37.7655225 C48.7474915,32.949952 52.9391409,29.201694 58.0298793,29.201694" id="Fill-4" fill="#FFFFFE"></path>
            <g id="Group-8" transform="translate(0.000000, 47.000000)">
                <mask id="mask-4" fill="white">
                    <use xlink:href="#path-3"></use>
                </mask>
                <g id="Clip-6"></g>
                <path d="M103.576189,3.40739865 C113.439275,3.40739865 121.433324,11.5052973 121.433324,21.4957973 C121.433324,31.4859392 113.439275,39.5838378 103.576189,39.5838378 C93.7155781,39.5838378 85.7190547,31.4859392 85.7190547,21.4957973 C85.7190547,11.5052973 93.7155781,3.40739865 103.576189,3.40739865" id="Fill-5" fill="#F9D220" mask="url(#mask-4)"></path>
                <path d="M0.0208574219,45.0095338 C9.06449414,38.0450473 55.4634199,2.41973649 60.8365039,0.35775 C66.7921816,-1.92948649 93.2086367,30.2672973 101.035119,32.0692973 C108.860541,33.8712973 136.608336,7.56467568 136.608336,7.56467568 C136.608336,7.56467568 146.202396,14.4174324 164.355777,29.1861689 C169.743355,33.5686959 175.369557,35.0451757 180.621031,34.9574392 C180.867785,37.7152297 181,40.5077568 181,43.3310811 C181,44.1572365 180.98798,44.9816014 180.966062,45.8034595 L0.498810547,52.9799459 C0.227664062,50.3550135 0.0689355469,47.696777 0.0208574219,45.0095338" id="Fill-7" fill="#958075" mask="url(#mask-4)"></path>
            </g>
            <path d="M136.283749,55 C136.283749,55 145.94796,61.7714084 164.234077,76.3648266 C169.661048,80.6953291 175.328387,82.1542817 180.61826,82.0675867 C180.866818,84.7926398 181,87.552017 181,90.3418259 C181,91.1581741 180.987893,91.972753 180.965814,92.7848549 L124.157815,95 C123.844446,93.6341118 123.939881,92.4143666 124.97649,91.8945506 C127.943163,90.4048125 136.232114,91.1539278 132.810344,79.6974522 C129.388931,68.2406228 136.283749,55 136.283749,55" id="Fill-9" fill="#867468"></path>
            <path d="M61.4049258,48.114649 C66.728932,46.0830246 88.5256061,71.641863 98.476849,78.0351929 L112,95.492611 L52.5367279,98 C50.0597933,93.0569221 50.0541798,88.0732259 56.4664935,84.837532 C73.3945526,76.294961 61.4049258,48.114649 61.4049258,48.114649" id="Fill-10" fill="#867468"></path>
            <path d="M81.0539664,128.409626 C80.7464239,126.113275 81.7706283,122.778125 83.6847727,119.098362 L83.7743993,118.926411 L82.7164532,116.643533 L83.8991737,116.625451 L83.6471646,114.677968 L87.4715871,115.420373 L87.219578,113.47218 L85.2748551,114.687895 L84.631652,115.090651 L84.5311296,115.154823 L84.3241095,115.283875 L83.7076187,115.670677 L83.3607108,115.674577 L84.386321,117.954974 L83.7743993,118.926411 L82.6415886,116.347138 L83.9578704,116.778258 L83.5898738,114.388309 L87.4933787,117.199096 L87.1250307,114.808793 L87.1598269,114.864101 L85.706469,115.161914 L84.7226846,115.363646 L84.5729553,115.393428 L84.3357083,115.442354 L83.702698,115.572115 L83.3765272,115.573179 L84.4232261,117.874848 L83.0552771,116.813357 L83.8805454,116.570143 L84.5054717,114.368809 L84.7718914,112.586895 L88.2441338,113.434599 L88.4585349,112.005451 L87.5879261,110.088812 L91.720594,109.452769 L91.1627998,108.22429 L90.1860449,105.803497 L93.8663618,107.013184 L93.8350804,104.836668 L97.8851512,106.340978 L97.8644141,104.890558 L97.881285,103.283432 L98.4826623,103.105453 L97.8707407,100.473354 L100.623509,101.485918 L99.9391835,99.2959294 L101.919757,99.6621685 L102.090575,97.1754304 L106.391952,99.6334508 L106.416204,99.2895477 L106.010599,96.9300893 L110.375594,98.8126925 L109.971395,96.452525 L112.071119,95.5746859 L112.107321,95.5332048 L112.238071,95.5282413 L112.530148,95.5186687 L112.542802,95.5179596 L113.604262,96.9229985 L115.066407,95.4633606 L115.813296,95.5161869 L115.93807,95.5275322 L116.179887,95.751601 L117.030813,93.4541869 L117.967148,92.5717388 L118.091922,92.4543863 L118.49823,91.4914578 L121.691399,96.1837843 L122.796795,93.5648031 L124.10675,93.2708901 L124.907767,92.7543265 L126.542838,91.388996 L126.606455,91.610583 L129.548319,94.0664761 L130.288178,91.5726473 L134.051092,95.1371845 L134.792709,92.6430012 L134.836995,92.6316559 L135.287237,92.5089854 L135.468951,92.4593499 L135.736425,92.3863148 L136.013389,92.311507 L136.065759,92.2969709 L137.606635,90.3633141 L139.478602,94.9517605 L141.019478,93.0188127 L145.653704,93.3903698 L145.741221,93.396397 L146.548916,93.7013007 L146.759099,94.1217842 L148.452164,92.8411886 L149.271106,93.0351215 L149.422241,93.0727027 L149.735407,93.5534579 L150.85451,90.8703051 L151.584177,90.8036518 L151.758861,90.787343 L152.028444,90.761107 L152.116313,90.7533072 L152.203831,90.7451528 L153.051594,90.6664451 L153.375304,88.662944 L157.275294,89.6769261 L157.599708,87.6720069 L157.758224,87.568836 L158.170507,87.2969044 L158.469262,87.0799264 L158.519875,87.0458907 L158.866783,86.8168583 L158.875921,86.9491015 L161.34083,86.9696647 L159.842132,88.3477586 L160.341932,90.2821246 L162.807896,89.4897294 L163.789923,89.173835 L167.36796,88.721443 L168.64804,88.1268807 L169.102148,87.8492765 L171.134389,86 L171.362849,88.8519134 L171.37972,89.0763367 L173.051345,89.2890602 L174.007011,87.4518381 L176.333438,90.8724324 L177.290862,89.0355647 L178.151629,88.5881362 L178.211732,88.5555186 L178.440544,88.4378116 L179.005719,88.1431895 L179.993721,87.7003701 L179.517118,92.9142237 L181,92.2498172 C180.71917,107.357797 176.78122,121.561701 170.039186,134 C149.281299,128.565268 116.578813,120.15028 81.0539664,128.409626" id="Fill-11" fill="#A5AC3A"></path>
            <g id="Group-16" transform="translate(0.000000, 70.000000)">
                <mask id="mask-6" fill="white">
                    <use xlink:href="#path-5"></use>
                </mask>
                <g id="Clip-13"></g>
                <path d="M3.89371193,47.0129048 C9.28941564,46.7669429 14.6196461,46.942781 19.6653333,47.7127333 C51.439679,52.5597333 71.9543951,50.0641714 96.277177,46.1770571 C120.599605,42.2885333 136.604099,48.3924762 156.827193,57.7337429 C163.29135,60.7201714 167.703185,61.1796762 171.685021,61.0683238 C156.822947,90.6704381 126.099358,111 90.600823,111 C49.723572,111 15.17493,84.0453238 3.89371193,47.0129048" id="Fill-12" fill="#75A841" mask="url(#mask-6)"></path>
                <path d="M2.33792593,0.347095238 L3.94078189,5.2466 L4.24691358,4.92240952 L5.34155556,3.61719048 L6.69278189,1.33904762 L7.52128395,6.6913619 L8.8728642,4.41639048 L10.8905021,3.88817143 L12.0481399,3.5872381 L13.9160741,5.78433333 L15.2991523,4.33358095 L15.6622634,4.35331429 L16.0197119,4.37093333 L17.1278025,4.4548 L17.3061728,4.46290476 L17.3242222,4.4639619 L17.4116379,4.46466667 L17.4286255,4.46290476 L17.5107325,4.46114286 L17.5691276,4.45233333 L17.8745514,4.14752381 L18.0203621,4.59117143 L18.2143045,4.67221905 L20.3989877,3.94384762 L20.0932099,5.2466 L22.6866584,4.34027619 L20.1912428,9.19784762 L21.4593004,8.75631429 L24.0357613,7.07158095 L24.7403951,6.39289524 L27.0684115,5.17647619 L26.0169465,10.3561238 L26.5000329,10.1041714 L27.5175226,10.0477905 L28.6903786,7.9976381 L29.0584444,8.44939048 L30.6117531,7.10822857 L31.8967984,11.1348857 L32.0199588,11.0291714 L32.1700165,9.84693333 L29.8253663,9.94207619 L29.6438107,9.94947619 L29.5532099,9.95335238 L29.3479424,9.96145714 L29.2569877,9.96462857 L28.4734321,9.99599048 L27.5175226,10.0477905 L28.712321,7.98213333 L29.0690617,8.43670476 L30.686428,7.08708571 L31.8284938,11.2666762 L32.0249136,11.1035238 L32.6247901,8.85709524 L36.3879095,11.7282952 L36.5248724,11.4520286 L37.0412263,9.52133333 L38.0059835,10.0847905 L39.8470206,9.77575238 L40.0699835,11.0809714 L42.2458189,11.2691429 L41.9467654,12.3530667 L43.5655473,12.2399524 L43.3018848,13.3975238 L45.0962058,14.0973524 L46.7709053,14.7319905 L48.0573663,13.428181 L49.2128807,18.5560286 L51.0100329,16.734219 L52.2681811,16.6344952 L52.6394321,16.6052476 L52.823465,16.5900952 L55.3981564,16.8290095 L55.8773498,15.1724667 L55.9226502,15.1418095 L55.8327572,15.2013619 L55.5984691,15.359581 L52.807893,17.2324857 L52.8202798,16.5414667 L55.5570617,19.620219 L56.3763621,17.3544095 L57.4005761,18.8037524 L58.0287654,19.6952762 L58.2173992,20.0617524 L59.7993745,18.4006286 L60.0099506,18.4143714 L60.9651523,18.4795619 L61.5317613,17.7917143 L64.269251,15.1354667 C66.6000988,12.2635619 63.4888807,14.758419 60.4169465,16.6246286 L60.0991358,16.7440857 L59.1418107,18.8217238 L60.012428,19.3488857 L60.92693,19.9017714 L61.6499671,19.1621238 L61.8711605,18.9669048 L62.5711934,18.3502381 L62.7987572,18.0894762 L63.9797531,22.8106762 L65.5362469,21.0276286 L66.7597119,23.608819 L66.8538519,23.8093238 L67.1044198,24.8939524 L69.0739259,23.1553048 L69.8450947,24.3079429 L70.054963,24.6222667 L70.1434403,27.1322762 L72.2123951,26.5374571 L73.2620905,26.7862381 L73.6598848,26.8799714 C77.4070782,29.7050095 72.7344115,28.9266 72.7344115,28.9266 C72.7344115,28.9266 22.9906667,31.8880095 0.581119342,31.0077619 C0.201728395,27.6538 0,24.2459238 0,20.7904762 C0,13.7583619 0.809037037,6.91582857 2.33792593,0.347095238" id="Fill-14" fill="#325F31" mask="url(#mask-6)"></path>
                <path d="M20.5263951,8.54629524 L20.1912428,9.19784762 L21.4593004,8.75631429 L22.5603128,8.03534286 L20.1912428,12.6483619 L21.4593004,12.2061238 L24.0357613,10.5224476 L24.7403951,9.84270476 L26.2852099,9.03645714 L26.0169465,10.3561238 L26.5000329,10.1041714 L26.7718354,10.089019 L26.0169465,13.8066381 L26.5000329,13.5550381 L27.5175226,13.4986571 L28.6903786,11.4481524 L29.0584444,11.9002571 L30.6117531,10.5587429 L31.8967984,14.5857524 L32.0199588,14.4800381 L32.1700165,13.2974476 L29.8253663,13.3925905 L29.6438107,13.3999905 L29.5532099,13.4038667 L29.3479424,13.4119714 L29.2569877,13.4154952 L28.4734321,13.4468571 L27.5175226,13.4986571 L28.712321,11.433 L29.0690617,11.8875714 L30.686428,10.5376 L31.8284938,14.7171905 L32.0249136,14.5533333 L32.6247901,12.3079619 L36.3879095,15.1781048 L36.5248724,14.9028952 L37.0412263,12.9722 L38.0059835,13.5356571 L39.8470206,13.2262667 L40.0699835,14.530781 L42.2458189,14.7196571 L41.9467654,15.8028762 L43.5655473,15.690819 L43.3018848,16.8480381 L45.0962058,17.548219 L46.7709053,18.1825048 L48.0573663,16.8779905 L49.2128807,22.0058381 L51.0100329,20.1850857 L52.2681811,20.0843048 L52.6394321,20.0550571 L52.823465,20.0406095 L55.3981564,20.278819 L55.7145514,19.1839714 L55.5570617,19.620219 L55.1217531,19.1300571 L52.807893,20.683 L52.8202798,19.991981 L55.5570617,23.0696762 L56.3763621,20.8049238 L56.5678272,21.0762571 L57.4005761,22.254619 L58.0287654,23.1457905 L58.2173992,23.5122667 L59.7993745,21.8507905 L60.0099506,21.8645333 L60.9651523,21.9300762 L61.5317613,21.2422286 L63.1855802,19.6371333 L62.8974979,18.4844952 C62.4023786,18.8086857 61.8552346,19.1702286 61.290749,19.5296571 L60.92693,19.9017714 L60.8108477,19.8323524 L60.4169465,20.0744381 L60.0991358,20.1946 L59.1418107,22.2722381 L60.012428,22.7994 L60.92693,23.3522857 L61.6499671,22.6122857 L61.8711605,22.4167143 L62.5711934,21.8011048 L62.7987572,21.5396381 L63.9797531,26.2608381 L65.5362469,24.4784952 L66.7597119,27.0596857 L66.8538519,27.2598381 L67.1044198,28.3437619 L69.0739259,26.6061714 L69.8450947,27.7588095 L70.054963,28.072781 L70.0907078,29.0784762 C59.5268642,29.6708286 19.9013909,31.7671429 0.581119342,31.0084667 C0.201728395,27.6538 0,24.2459238 0,20.7904762 C0,15.1372286 0.527679012,9.60625714 1.52641152,4.24090476 L2.23670782,3.4871619 L3.94078189,8.69746667 L4.24691358,8.37221905 L5.34155556,7.06770476 L6.69278189,4.78991429 L7.52128395,10.1422286 L8.8728642,7.86690476 L10.8905021,7.3390381 L12.0481399,7.03775238 L13.9160741,9.23414286 L15.2991523,7.78444762 L15.6622634,7.80382857 L16.0197119,7.82144762 L17.1278025,7.90566667 L17.3061728,7.91377143 L17.3242222,7.91447619 L17.4116379,7.91518095 L17.4286255,7.91377143 L17.5107325,7.91200952 L17.5691276,7.9032 L17.8745514,7.5980381 L18.0203621,8.0420381 L18.2143045,8.12273333 L20.3989877,7.39471429 L20.0932099,8.69746667 L20.5263951,8.54629524" id="Fill-15" fill="#51823D" mask="url(#mask-6)"></path>
            </g>
            <path d="M112.466398,130 C112.352835,130.446321 110,148.558934 110,148.558934 L115,149 L114.947531,130.714339 L112.466398,130" id="Fill-17" fill="#6B4E42"></path>
            <path d="M104.116798,100.102173 C104.116798,100.102173 112.348671,98.4707106 111.403783,100.578431 C110.459254,102.686864 99.8674886,108.178978 99.8674886,108.178978 C99.8674886,108.178978 108.276595,106.979604 107.013403,109.846774 C105.749853,112.713944 95.2823307,117.525688 95.2823307,117.525688 C95.2823307,117.525688 108.817963,115.456439 105.115751,119.275057 C101.413538,123.094745 88,129.52584 88,129.52584 C88,129.52584 105.055241,125.937336 104.508144,130.194098 C103.961763,134.450148 97.0034656,135.670895 95.5562371,138.362095 C95.5562371,138.362095 112.384834,135.387704 114.220186,137.666052 C116.136099,137.669258 133.110062,140.618 133.140497,139.882061 C131.899503,137.109288 124.700956,135.075304 124.479682,130.795744 C124.258051,126.515828 141,131.122749 141,131.122749 C141,131.122749 128.107063,123.899433 124.704536,119.864948 C121.300578,115.831889 134.648593,118.712239 134.648593,118.712239 C134.648593,118.712239 124.56991,113.281037 123.52835,110.344406 C122.486789,107.407062 130.784901,109.10941 130.784901,109.10941 C130.784901,109.10941 120.636399,102.993921 119.852991,100.833125 C119.070657,98.6733966 127.159669,100.796434 127.159669,100.796434 C120.347813,95.0984287 117.847208,89.1346869 116.188732,86 C114.295734,89.028535 111.346496,94.8284181 104.116798,100.102173" id="Fill-18" fill="#31743B"></path>
            <path d="M103.923039,99.9351818 C103.923039,99.9351818 112.055586,98.3230387 111.122099,100.406857 C110.188966,102.488563 99.7260634,107.916346 99.7260634,107.916346 C99.7260634,107.916346 108.031937,106.730471 106.784694,109.564393 C105.537097,112.397611 95.1951691,117.152377 95.1951691,117.152377 C95.1951691,117.152377 108.56748,115.107631 104.909938,118.881031 C101.252397,122.655487 88,129.010429 88,129.010429 C88,129.010429 104.850159,125.465474 104.309663,129.670774 C103.770583,133.877482 96.8948293,135.082013 95.4647094,137.740993 C92.0657428,138.905397 109.201006,135.686039 113.904519,137.054248 L116,86.287581 L115.849312,86 C113.979155,88.9926726 111.065503,94.7231725 103.923039,99.9351818" id="Fill-19" fill="#368541"></path>
            <path d="M134.478953,139 C134.411667,139.257951 133,149.744388 133,149.744388 L136,150 L135.96818,139.413991 L134.478953,139" id="Fill-20" fill="#6B4E42"></path>
            <path d="M130.338475,117.879363 C130.338475,117.879363 135.619665,116.851731 135.013638,118.179722 C134.406905,119.505988 127.612415,122.964074 127.612415,122.964074 C127.612415,122.964074 133.007323,122.208868 132.196815,124.014466 C131.386308,125.819719 124.670925,128.849855 124.670925,128.849855 C124.670925,128.849855 133.354482,127.546348 130.979465,129.950938 C128.604095,132.355874 120,136.40571 120,136.40571 C120,136.40571 130.940617,134.145954 130.589573,136.826074 C130.239236,139.506194 125.77597,140.274159 124.846447,141.968373 C124.846447,141.968373 135.642267,140.09622 136.821123,141.529733 C138.049775,141.531457 148.938477,143.389471 148.957548,142.925658 C148.162579,141.180062 143.543569,139.89897 143.401951,137.204367 C143.260333,134.510108 154,137.409893 154,137.409893 C154,137.409893 145.729291,132.862448 143.545688,130.32199 C141.363144,127.782565 149.925213,129.596095 149.925213,129.596095 C149.925213,129.596095 143.460222,126.176631 142.792039,124.327238 C142.123856,122.47819 147.446719,123.550307 147.446719,123.550307 C147.446719,123.550307 140.936877,119.699445 140.434327,118.339039 C139.932131,116.978978 145.121498,118.316279 145.121498,118.316279 C140.750761,114.728188 139.147404,110.973192 138.083679,109 C136.869507,110.906982 134.976556,114.557835 130.338475,117.879363" id="Fill-21" fill="#31743B"></path>
            <path d="M129.804631,117.112141 C129.804631,117.112141 135.323569,116.057651 134.690261,117.42035 C134.056214,118.781279 126.956587,122.330453 126.956587,122.330453 C126.956587,122.330453 132.593625,121.554801 131.74663,123.40759 C130.899635,125.260026 123.881939,128.369357 123.881939,128.369357 C123.881939,128.369357 132.956412,127.03249 130.474477,129.499926 C127.992172,131.967009 119,136.122692 119,136.122692 C119,136.122692 130.43388,133.803875 130.067771,136.554042 C129.701663,139.30421 125.035993,140.091185 124.064625,141.83074 C121.758362,142.591884 133.386737,140.486796 136.579115,141.380636 L138,108.188959 L137.898508,108 C136.629676,109.95753 134.651509,113.703802 129.804631,117.112141" id="Fill-22" fill="#368541"></path>
            <path d="M91.7563685,118.904619 C92.8110292,118.855678 94.5762114,118.928311 95.884766,118.59788 C97.1936384,118.267762 98.0481073,117.53458 97.9979005,116.896787 C97.9483293,116.259929 96.9947177,115.719395 95.9816842,115.367456 C94.9676974,115.015516 93.8933354,114.852795 92.8583761,115.168886 C91.8230991,115.485912 90.8275426,116.283621 90.3588398,117.051092 C89.8901371,117.818563 89.948288,118.555797 90.1513396,118.83978 C90.3537556,119.123452 90.700119,118.954184 91.7563685,118.904619" id="Fill-23" fill="#414340"></path>
            <path d="M91.0605583,115.404358 C91.2311163,115.015557 91.7749648,114.437289 92.546224,114.176387 C93.3177955,113.915146 94.3164652,113.972973 94.9805789,114.162441 C95.6453175,114.351909 95.9742506,114.672678 95.998616,114.943784 C96.0223567,115.21421 95.7402801,115.433952 95.1820622,115.542803 C94.6241566,115.653014 93.7897973,115.652334 93.0956953,115.741115 C92.4022181,115.829896 91.8505601,116.009159 91.4722714,115.999635 C91.0942951,115.990111 90.8906252,115.792479 91.0605583,115.404358" id="Fill-24" fill="#5F6260"></path>
            <path d="M82.3166194,119.928752 C83.1086489,119.891874 84.431804,119.946718 85.4137278,119.698346 C86.3956515,119.450605 87.0360226,118.900594 86.9984293,118.422762 C86.9608361,117.944615 86.2462423,117.538962 85.4857012,117.276092 C84.7261241,117.01133 83.9202783,116.88935 83.1436717,117.127321 C82.3673864,117.364345 81.620983,117.962896 81.2694697,118.538122 C80.9182777,119.113664 80.9606907,119.666827 81.113313,119.879582 C81.2649714,120.092652 81.52459,119.965629 82.3166194,119.928752" id="Fill-25" fill="#414340"></path>
            <path d="M82.0483315,117.702464 C82.1851133,117.507902 82.6203896,117.218354 83.2375924,117.088034 C83.8541215,116.957715 84.6539247,116.986624 85.184544,117.080463 C85.715837,117.17522 85.9796306,117.336514 85.998834,117.471651 C86.0183742,117.607248 85.7919767,117.717148 85.3459196,117.771754 C84.8991887,117.827048 84.2317876,117.826359 83.6762377,117.870641 C83.1220353,117.915151 82.6796842,118.004631 82.3778208,117.999813 C82.0756205,117.994995 81.9125603,117.896337 82.0483315,117.702464" id="Fill-26" fill="#5F6260"></path>
            <path d="M110.194841,150.881609 C111.514494,150.819956 113.719467,150.911203 115.356226,150.497199 C116.99267,150.08412 118.059643,149.16764 117.997416,148.371076 C117.934875,147.575436 116.743448,146.899405 115.477223,146.459506 C114.210369,146.019608 112.866831,145.815535 111.573264,146.211659 C110.278753,146.608091 109.034842,147.60503 108.449028,148.564051 C107.8629,149.522764 107.935498,150.445102 108.188177,150.79961 C108.441799,151.154735 108.875189,150.94203 110.194841,150.881609" id="Fill-27" fill="#414340"></path>
            <path d="M109.085116,148.404058 C109.322857,148.015153 110.085566,147.436774 111.165263,147.175978 C112.245652,146.915183 113.643722,146.973317 114.573576,147.161714 C115.504123,147.351188 115.964724,147.673078 115.997946,147.943562 C116.032205,148.214316 115.637355,148.434471 114.856651,148.543472 C114.074216,148.652474 112.90489,148.651397 111.934893,148.740751 C110.963858,148.829567 110.190767,149.008813 109.661992,148.999663 C109.132525,148.990512 108.846336,148.791887 109.085116,148.404058" id="Fill-28" fill="#5F6260"></path>
            <path d="M123.19394,152.881111 C124.513634,152.820689 126.71962,152.911014 128.356116,152.497308 C129.992927,152.084836 131.059934,151.167408 130.997391,150.37175 C130.935476,149.575166 129.744011,148.900043 128.477746,148.459517 C127.209909,148.019608 125.866643,147.81553 124.57272,148.211664 C123.279112,148.607798 122.034533,149.60476 121.449014,150.564422 C120.863182,151.523466 120.935154,152.445518 121.18847,152.800035 C121.441786,153.154551 121.87456,152.94215 123.19394,152.881111" id="Fill-29" fill="#414340"></path>
            <path d="M122.085125,149.403966 C122.322866,149.015001 123.084536,148.436532 124.164925,148.176504 C125.245313,147.91513 126.643727,147.973004 127.573581,148.162238 C128.503434,148.351471 128.964728,148.673411 128.997949,148.943399 C129.032209,149.214194 128.636666,149.434384 127.855617,149.543402 C127.074221,149.653227 125.904204,149.651882 124.933862,149.740711 C123.96352,149.829541 123.190084,150.008815 122.661309,149.999662 C122.132535,149.99051 121.846347,149.792394 122.085125,149.403966" id="Fill-30" fill="#5F6260"></path>
            <path d="M121.95339,95.1660537 C122.620341,96.007852 123.362103,96.866787 124.191734,97.7320171 L124.693535,97.4130641 L126.335152,96.0666065 L126.399024,96.2851873 L129.352664,98.7084612 L130.095485,96.2484657 L133.873462,99.7642938 L134.618047,97.3042983 L134.66251,97.2927572 L135.114555,97.1710514 L135.296996,97.1220894 L135.565541,97.0510943 L135.843614,96.976602 L135.896193,96.9622631 L137.443237,95.0548398 L139.322698,99.5817351 L140.869742,97.6750113 L145.522518,98.0404783 L145.610387,98.0467735 L146.421314,98.3478903 L146.632339,98.763019 L148.332182,97.4994472 L149.154401,97.6910988 L149.306142,97.7278204 L149.620561,98.2013538 L150.744144,95.5556521 L151.476732,95.4888538 L151.652115,95.4727662 L151.922777,95.447236 L152.010998,95.4391922 L152.098866,95.4311485 L152.950023,95.3545578 L153.181162,93.9507446 L153.275029,93.3771886 L155.210951,93.8724052 L157.190631,94.377764 L157.286968,93.7912681 L157.516343,92.4007446 L157.675494,92.2982739 L158.089427,92.0303813 L158.389378,91.8166968 L158.440193,91.7831227 L158.78849,91.5571977 L158.797665,91.6869472 L161.272441,91.7068818 L159.767743,93.0673285 L159.930776,93.6887974 L160.269545,94.9754513 L162.745379,94.1927572 L163.731338,93.8818479 L167.323698,93.4355934 L167.407684,93.3971232 L168.608902,92.8490975 L169.064828,92.5752595 L171.105204,90.7510718 L171.308818,93.2460402 L171.334578,93.563944 L171.351517,93.7849729 L173.029833,93.9948105 L173.470233,93.1617554 L173.989325,92.1835627 L174.635103,93.1159409 L176.325065,95.5577505 L177.286321,93.7451038 L178.150534,93.3040952 L178.210878,93.2722699 L178.440605,93.1551106 L178.836894,92.9526173 L179.008043,92.865185 L179.539133,92.6315659 L180,87.6773014 L179.008043,88.1141133 L178.440605,88.4047383 L178.210878,88.5208484 L178.150534,88.5530235 L177.286321,88.9943818 L176.325065,90.806329 L173.989325,87.4321412 L173.029833,89.2444382 L171.351517,89.0346006 L171.334578,88.813222 L171.105204,86 L169.064828,87.8241877 L168.608902,88.0980257 L167.323698,88.6845217 L163.731338,89.1307762 L162.745379,89.4423849 L160.269545,90.2240298 L159.767743,88.315907 L161.272441,86.9565095 L158.797665,86.9362252 L158.78849,86.8057762 L158.440193,87.0317013 L158.389378,87.0652753 L158.089427,87.2793096 L157.675494,87.5475519 L157.516343,87.6493231 L157.190631,89.627042 L153.275029,88.6268163 L152.950023,90.6031363 L152.098866,90.6807762 L152.010998,90.6888199 L151.922777,90.696514 L151.652115,90.722394 L151.476732,90.7384815 L150.744144,90.8042306 L149.620561,93.4509815 L149.306142,92.9767486 L149.154401,92.9396773 L148.332182,92.7483755 L146.632339,94.0115975 L146.421314,93.5968186 L145.610387,93.2960514 L145.522518,93.290106 L140.869742,92.9235898 L139.607122,94.4795352 L139.322698,94.8303136 L139.182956,94.4956227 L137.443237,90.3041178 L135.896193,92.2115411 L135.843614,92.22588 L135.565541,92.2996728 L135.296996,92.3717171 L135.114555,92.4206792 L134.66251,92.5416855 L134.618047,92.5528768 L133.969093,94.6988154 L133.873462,95.013222 L133.553749,94.714903 L130.095485,91.4970442 L129.352664,93.9570397 L126.495361,91.6131543 L126.399024,91.5344653 L126.335152,91.3158845 L125.514696,91.989463 L124.93279,92.4657942 L124.693535,92.6626918 L123.889312,93.1722473 L122.574113,93.4621728 L121.881402,95.0740749 C121.905751,95.1052008 121.929041,95.1356273 121.95339,95.1660537 Z M93.5278705,106.728102 L89.8328212,105.534826 L90.8134861,107.922778 L91.3735131,109.134589 L87.224302,109.762004 L88.0983958,111.65264 L87.8831366,113.062398 L84.3969946,112.226196 L84.1295085,113.983935 L84,114.428441 L84.5279146,114.529163 L84.9019717,114.298691 L86.8544794,113.09947 L87.1074973,115.021232 L86.8470689,114.97157 L87.0969108,116.570532 C87.2906442,116.70343 87.4469718,116.847168 87.5461322,117 C87.7031657,116.977617 87.860552,116.955235 88.0182912,116.931803 L88.0983958,116.403362 L87.224302,114.512376 L91.3735131,113.885311 L90.8134861,112.674199 L89.8328212,110.285199 L93.5278705,111.478824 L93.4964638,109.332536 L97.5627472,110.816437 L97.541927,109.384646 L97.5588655,107.800372 L98.1626502,107.624808 L97.548279,105.028418 L100.312067,106.026546 L99.6250018,103.865918 L101.613504,104.228238 L101.785005,101.774537 L106.103601,104.19991 L106.12795,103.860323 L105.720722,101.533224 L108.911147,102.884578 C109.260149,102.647462 109.590096,102.414542 109.893929,102.188267 L109.697372,101.062139 L111.805502,100.196209 C112.159445,98.4171367 104.559027,99.9167757 104.559027,99.9167757 C104.907324,99.6625226 105.247151,99.4086191 105.575686,99.1533168 L101.785005,97.0238154 L101.613504,99.4768163 L99.6250018,99.115546 L100.312067,101.275824 L97.548279,100.276997 L98.1626502,102.873387 L97.5588655,103.048951 L97.541927,104.634273 L97.548279,105.028418 L97.5627472,106.065016 L93.4964638,104.581115 L93.5278705,106.728102 Z" id="Fill-31" fill="#939539"></path>
            <path d="M75.2479852,101.471018 C84.7521843,101.471018 92.4566716,101.879522 92.4566716,102.384252 C92.4566716,102.888256 84.7521843,103.296761 75.2479852,103.296761 C65.7430809,103.296761 58.038241,102.888256 58.038241,102.384252 C58.038241,101.879522 65.7430809,101.471018 75.2479852,101.471018 Z M21.4911153,102.932193 C32.8077201,102.932193 41.9822306,103.156961 41.9822306,103.434744 C41.9822306,103.712527 32.8077201,103.93657 21.4911153,103.93657 C10.1745105,103.93657 1,103.712527 1,103.434744 C1,103.156961 10.1745105,102.932193 21.4911153,102.932193 Z M44.0224211,108.505284 C59.9444405,108.505284 72.8523657,108.852785 72.8523657,109.281261 C72.8523657,109.709737 59.9444405,110.057965 44.0224211,110.057965 C28.1004018,110.057965 15.1935344,109.709737 15.1935344,109.281261 C15.1935344,108.852785 28.1004018,108.505284 44.0224211,108.505284 Z M55.8658224,115.99526 C67.9415925,115.99526 77.7314042,116.219666 77.7314042,116.497449 C77.7314042,116.775232 67.9415925,117 55.8658224,117 C43.7889946,117 33.9991829,116.775232 33.9991829,116.497449 C33.9991829,116.219666 43.7889946,115.99526 55.8658224,115.99526 Z M2.22213972,113.934945 L2.20345149,113.859417 C2.87129126,113.623029 10.2189391,113.437477 19.1850582,113.437477 C28.5915849,113.437477 36.2170879,113.642274 36.2170879,113.893913 C36.2170879,114.146278 28.5915849,114.350712 19.1850582,114.350712 C10.2915764,114.350712 2.99188323,114.167702 2.22213972,113.934945 Z M95.8455882,98 C100.900931,98 105,98.290129 105,98.6503392 C105,99.0098232 100.900931,99.3006785 95.8455882,99.3006785 C90.7902456,99.3006785 86.6911763,99.0098232 86.6911763,98.6503392 C86.6911763,98.290129 90.7902456,98 95.8455882,98 Z" id="Fill-32" fill="#E0F2F3"></path>
            <path d="M117,33.3793985 C117,33.3793985 118.977513,32.9758951 120.633098,33.2772994 C122.292454,33.5796823 124.020721,34.8887035 125.89161,34.989824 C127.761471,35.0899659 127.372345,34.4180039 127.372345,34.4180039 C127.372345,34.4180039 126.172398,34.5879515 125.854583,33.6132804 C125.538825,32.6395879 126.842997,31.8665054 128.853423,30.5258434 C130.865563,29.1832241 131.253661,27.8406049 130.865563,27 C130.865563,27 130.511407,27.5375696 128.853423,28.3771959 C127.195781,29.2171484 125.99652,30.7613563 124.692348,31.8665054 C123.38612,32.9758951 123.314809,33.0417865 122.080234,32.8079046 C120.846346,32.5727179 118.199947,32.2041174 117,33.3793985" id="Fill-33" fill="#0A0B09"></path>
            <path d="M108,46.3795114 C108,46.3795114 109.977484,45.9760215 111.632702,46.2770895 C113.292376,46.5797885 115.020961,47.8887659 116.891137,47.989883 C118.760971,48.0896954 118.372536,47.418082 118.372536,47.418082 C118.372536,47.418082 117.173292,47.5867193 116.854454,46.6133855 C116.538701,45.6397255 117.843196,44.8666689 119.853593,43.5260517 C121.865704,42.1834773 122.253452,40.840903 121.865704,40 C121.865704,40 121.512239,40.5375516 119.853593,41.3771499 C118.195975,42.2170743 116.996731,43.7615567 115.692236,44.8666689 C114.386027,45.9760215 114.314717,46.0415845 113.08016,45.8073842 C111.846632,45.5725316 109.19993,45.2042696 108,46.3795114" id="Fill-34" fill="#0A0B09"></path>
            <path d="M134,34.3789789 C134,34.3789789 135.977484,33.9758282 137.633045,34.2768866 C139.292033,34.5792496 141.020618,35.8885108 142.89148,35.9899508 C144.761314,36.0894338 144.372536,35.417516 144.372536,35.417516 C144.372536,35.417516 143.173292,35.5874524 142.854454,34.613824 C142.539044,33.6395432 143.843196,32.8661853 145.853593,31.5256114 C147.865704,30.1834067 148.253452,28.8405496 147.865704,28 C147.865704,28 147.512239,28.5372081 145.853593,29.3771053 C144.195633,30.2166764 142.996731,31.761435 141.692236,32.8661853 C140.38637,33.9758282 140.314717,34.0413891 139.080503,33.8075226 C137.846632,33.5723514 135.200273,33.2041013 134,34.3789789" id="Fill-35" fill="#0A0B09"></path>
            <path d="M128,45.3787929 C128,45.3787929 129.978198,44.9752866 131.633782,45.2770193 C133.293138,45.5790782 135.020719,46.8887614 136.891608,46.9898826 C138.761468,47.089699 138.372342,46.4180583 138.372342,46.4180583 C138.372342,46.4180583 137.173081,46.5870286 136.854581,45.613329 C136.538823,44.6396293 137.844023,43.8665411 139.853763,42.5258692 C141.86556,41.1832401 142.253657,39.8399587 141.86556,39 C141.86556,39 141.512089,39.5372474 139.853763,40.3768798 C138.195779,41.2161861 136.997203,42.7613839 135.692346,43.8665411 C134.386118,44.9752866 134.315493,45.0418309 133.081261,44.8072948 C131.847373,44.5717802 129.199947,44.203177 128,45.3787929" id="Fill-36" fill="#0A0B09"></path>
        </g>
        <g id="003-trekking" transform="translate(43.000000, 206.000000)">
            <g id="Group-3" transform="translate(0.000000, 23.000000)">
                <mask id="mask-8" fill="white">
                    <use xlink:href="#path-7"></use>
                </mask>
                <g id="Clip-2"></g>
                <path d="M1.75866667,0.0792253521 L3.90822222,0.0792253521 L3.90822222,8.99657746 L1.75866667,8.99657746 C0.787555556,8.99657746 0,8.09809859 0,6.99021127 L0,2.08559155 C0,0.977704225 0.787555556,0.0792253521 1.75866667,0.0792253521" id="Fill-1" fill="#D73E3D" mask="url(#mask-8)"></path>
            </g>
            <path d="M22.6666667,13 L18.3333333,13 C15.9402305,13 14,14.9538086 14,17.3636589 L14,37 L27,37 L27,17.3636589 C27,14.9538086 25.0597695,13 22.6666667,13" id="Fill-4" fill="#007EA8"></path>
            <path d="M25.9654938,2 L17.141211,3.09993745 C17.0470278,3.45970319 17,3.82922613 17,4.2 L17,8.6 C17,11.0299198 19.0071583,13 21.4826832,13 C23.9583355,13 25.9654938,11.0299198 25.9654938,8.6 L25.9654938,4.2 C26.0115021,3.46733383 26.0115021,2.73254108 25.9654938,2" id="Fill-5" fill="#F2B496"></path>
            <path d="M17,3.4285343 L17,8 L21.3999249,3.4285343 L24.700025,3.4285343 C26.5227671,3.4285343 28,1.89375183 28,0 L20.299975,0 C18.4772329,0 17,1.53491243 17,3.4285343" id="Fill-6" fill="#723D30"></path>
            <g id="Group-10" transform="translate(0.000000, 37.000000)">
                <mask id="mask-10" fill="white">
                    <use xlink:href="#path-9"></use>
                </mask>
                <g id="Clip-8"></g>
                <path d="M27.2039097,0.115283019 L14.1460033,0.115283019 L14.1460033,10.8997642 L4.35263545,15.2135566 L6.52895318,19.5273491 L16.9077625,15.2415189 C18.530194,14.5718962 19.5868595,13.0006132 19.5868595,11.2588585 L19.5868595,6.47056604 C19.5868595,5.34361321 20.5085184,4.42907547 21.6467324,4.42907547 C22.3909398,4.42907547 23.0776054,4.82704717 23.4421605,5.46981132 L32.6446421,21.6842453 L36.9972776,19.5273491 L27.2039097,0.115283019" id="Fill-7" fill="#723D30" mask="url(#mask-10)"></path>
                <path d="M3.75085953,24.8052264 L0,17.3704528 L4.35263545,15.2135566 L8.21882609,22.876934 C8.52460201,23.4841321 8.52460201,24.1980283 8.21882609,24.8052264 C7.8499398,25.5364151 7.09583278,25.9980377 6.2721806,25.9980377 L5.69762876,25.9980377 C4.87273913,25.9980377 4.11863211,25.5364151 3.75085953,24.8052264" id="Fill-9" fill="#007EA8" mask="url(#mask-10)"></path>
            </g>
            <path d="M41.6614918,59.6834436 L35.165373,63 L33,58.5780086 L39.4961189,55.2614522 C40.6925099,54.6512189 42.1464753,55.1454149 42.7441167,56.3670129 C43.3417582,57.5884853 42.8567747,59.0732103 41.6614918,59.6834436" id="Fill-11" fill="#007EA8"></path>
            <path d="M41.4780882,19.3996884 C40.6122318,18.2073107 38.9735768,17.9651381 37.8195419,18.8596385 C37.7202404,18.9360618 37.6273029,19.020053 37.5396486,19.1106196 L32.2793102,24.5457331 L27,18 L27,26.7276441 L27.4614458,27.4422519 C29.1655414,30.0812142 32.6171995,30.7947054 35.1723822,29.0338671 C35.4776113,28.8233308 35.7615872,28.5833913 36.0203475,28.3149171 L41.2352978,22.9266998 C42.1538668,21.9764947 42.2573709,20.4743295 41.4780882,19.3996884" id="Fill-12" fill="#F2B496"></path>
            <path d="M18.0285072,12 L10,12 L10,14.1904821 L18.0285072,14.1904821 C19.5866649,14.1916031 20.84841,15.4763488 20.8473072,17.0600174 C20.8473072,17.4925838 20.7503818,17.9197944 20.5649861,18.3086433 L13.7928324,32.4809518 L11.0775747,32.8095179 L11.0775747,35 L14.1484296,34.5498719 C14.8563156,34.4458717 15.4662959,33.9923807 15.7787606,33.3384869 L22.4992044,19.2669403 C23.6994368,16.7544933 22.668303,13.7282726 20.1965227,12.5081689 C19.5208635,12.1741226 18.7795255,12.001121 18.0285072,12" id="Fill-13" fill="#723D30"></path>
            <path d="M4,32.9999431 C4,34.6569625 5.49227328,36 7.33329121,36 L10.6667088,36 C12.5078531,36 14,34.6569625 14,32.9999431 L14,32 L4,32 L4,32.9999431" id="Fill-14" fill="#723D30"></path>
            <path d="M13.8110967,15.1176551 C13.3400387,13.84805 12.0800091,12.9989173 10.6667088,13.000001 L7.33329121,13.000001 C5.49227328,13.000001 4,14.421925 4,16.1764219 L4,31 L14,31 L14,16.1764219 L13.8110967,15.1176551" id="Fill-15" fill="#DD4242"></path>
            <polyline id="Fill-16" fill="#723D30" points="37 16.4900228 39.1194415 16 50 62.5101002 47.8804348 63 37 16.4900228"></polyline>
            <path d="M9.00006318,9.66662455 C8.08005964,9.66662455 7.33329121,8.91999191 7.33329121,8 C7.33329121,7.08000809 8.08005964,6.33337545 9.00006318,6.33337545 C9.92006672,6.33337545 10.6667088,7.08000809 10.6667088,8 C10.6667088,8.91999191 9.92006672,9.66662455 9.00006318,9.66662455 Z M9.00006318,3 C6.23891535,3 4,5.23888706 4,8 C4,10.7611129 6.23891535,13 9.00006318,13 C11.7610846,13 14,10.7611129 14,8 C14,5.23888706 11.7610846,3 9.00006318,3 Z" id="Fill-17" fill="#007EA8"></path>
            <path d="M21.7241832,17.943835 L15.469943,21.767393 L22.8024455,27.0561113 C24.0403686,27.8865122 24.3725661,29.5647755 23.544341,30.8061346 C23.5184666,30.8449924 23.4914886,30.8828664 23.4635296,30.9207405 C22.6051381,32.0658158 21.0059548,32.3405257 19.8165922,31.5478758 L10.7899928,25.130314 C9.67065034,24.379842 8.99889771,23.1179474 9.00000136,21.767393 C9.00000136,20.4168386 9.67285764,19.154944 10.7942848,18.4055788 L18.7426218,13.4520705 C19.9319845,12.6595436 21.5311678,12.9341305 22.3894366,14.0792058 C23.279098,15.2762965 23.0332302,16.9695618 21.8395756,17.8627993 C21.8018063,17.8908359 21.7629335,17.9178888 21.7241832,17.943835" id="Fill-18" fill="#F2B496"></path>
        </g>
        <g id="002-businessman" transform="translate(205.500000, 246.500000) scale(-1, 1) translate(-205.500000, -246.500000) translate(165.000000, 207.000000)">
            <path d="M47,69.4384734 L47,79 L2,79 L2,69.4384734 C2,65.3298694 5.57422621,62 9.98242262,62 L39.0156668,62 C43.4257738,62 47,65.3298694 47,69.4384734 Z" id="Fill-1" fill="#3B485B"></path>
            <path d="M47,69.4384734 L47,79 L5,79 L5,69.4384734 C5,65.3298694 8.55204123,62 12.9339469,62 L39.0655785,62 C43.448117,62 47,65.3298694 47,69.4384734 Z" id="Fill-2" fill="#515F75"></path>
            <polyline id="Fill-3" fill="#3B485B" points="9.49182713 62 9 73.466911 14.2395832 74.6720838 9.53481957 79 38.4645339 79 33.7604168 74.6720838 39 73.466911 38.5081729 62"></polyline>
            <polygon id="Fill-7" fill="#F9C2AF" points="28 52.0059396 28 61.8125564 22.5 65 17 61.8125564 17 52 20.8007564 52.0018276"></polygon>
            <g id="Group-12" transform="translate(0.000000, 31.000000)">
                <mask id="mask-12" fill="white">
                    <use xlink:href="#path-11"></use>
                </mask>
                <g id="Clip-10"></g>
                <path d="M22.5827138,19.8947048 L18.4449539,19.8928762 L18.4449539,29.710781 L22.5827138,31.914819 L22.5827138,27.3755429 C23.1940855,27.4320762 23.8136776,27.4642286 24.4408454,27.4642286 C26.5312434,27.4642286 28.5428224,27.1416381 30.4202961,26.5458286 L30.4202961,19.898819 L22.5827138,19.8947048 Z" id="Fill-9" fill="#EA9E8F" mask="url(#mask-12)"></path>
                <path d="M5.64515461,9.56906667 C2.52736842,9.56906667 0,7.42979048 0,4.79100952 C0,2.15299048 2.52736842,0.0137142857 5.64515461,0.0137142857 L43.2376645,0.0137142857 C46.3549671,0.0137142857 48.8828191,2.15299048 48.8828191,4.79100952 C48.8828191,7.42979048 46.3556118,9.56906667 43.2376645,9.56906667" id="Fill-11" fill="#EA9E8F" mask="url(#mask-12)"></path>
            </g>
            <path d="M43,20 L43,38.0003087 C43,47.9410196 34.9415334,56 24.9994598,56 C20.0299665,56 15.5281721,53.9849076 12.2717224,50.7278823 C9.01511832,47.4713202 7,42.969738 7,38.0003087 L7,20 L43,20 Z" id="Fill-13" fill="#F9C2AF"></path>
            <path d="M23,56 C18.0441159,55.9668133 13.5630042,53.958478 10.3093984,50.7290268 C7.02889814,47.4705565 5,42.9719843 5,38.0006174 L5,20 L13.1616085,20 L13.1616085,38.0006174 C13.1616085,42.9719843 14.2765619,47.4705565 16.0801997,50.7290268 C17.8564766,53.9354789 20.2982744,55.9373312 23,56 Z" id="Fill-14" fill="#EA9E8F"></path>
            <path d="M22,37.5 C22,36.6712568 22.5463299,36 23.2208366,36 L25.7791634,36 C26.4531965,36 27,36.6712568 27,37.5 C27,38.3279674 26.4531965,39 25.7791634,39 L23.2208366,39 C22.5463299,39 22,38.3279674 22,37.5 Z" id="Fill-15" fill="#293544"></path>
            <path d="M43,20 L43,24.3296128 C41.7670038,25.1775484 40.2908969,25.9217701 38.5388013,26.5283485 C32.016023,28.7832379 25.7013167,28.0244962 21.2364135,26.8292671 C21.2364135,26.8292671 21.2345612,26.8292671 21.2345612,26.8276373 C17.3449429,25.7887199 14.8584212,24.4170288 14.8584212,24.4170288 C14.8584212,24.4170288 13.2171532,32 7,32 L7,20 L43,20 Z" id="Fill-16" fill="#EA9E8F"></path>
            <path d="M37.4019221,23.5388554 C30.7230473,25.7908418 24.2572441,25.0328835 19.6837939,23.8398203 C19.6837939,23.8398203 19.6818971,23.8398203 19.6818971,23.838785 C15.6994517,22.7999755 13.1538163,21.4307702 13.1538163,21.4307702 C13.1538163,21.4307702 11.4724799,29 5.10594137,29 C5.10594137,29 0.870434013,21.9901064 1.00305047,15.5040543 C1.0722829,12.1406424 4.03599999,9.62466469 7.40467937,9.62466469 C8.03456804,9.62466469 8.67789223,9.71192232 9.31884545,9.89915649 C11.1229983,5.3651612 15.8902361,2.49630774 21.0507393,2.78973002 C21.8546574,2.83661251 22.6636336,2.89606601 23.475455,2.96483686 C23.6305167,2.97696419 23.7879493,2.99027468 23.942853,3.00402884 C23.9589756,3.005212 23.9749401,3.00698673 23.9910628,3.00876146 C32.4154483,3.7488245 40.9484245,5.18961068 45.9620854,0 C45.9620854,0 54.2487964,17.860602 37.4019221,23.5388554 Z" id="Fill-17" fill="#515F75"></path>
            <path d="M21.5193419,3.02195911 C22.3413753,3.07200363 23.1692319,3.13546702 24,3.20887616 C16.3938454,2.89550594 10.3502337,19.2449067 20.1179059,25.4906831 C16.0431629,24.3818103 13.437469,22.9202579 13.437469,22.9202579 C13.437469,22.9202579 11.7168926,31 5.20176817,31 C5.20176817,31 0.867410128,23.517319 1.00312167,16.5938104 C1.07396988,13.0035506 4.10685589,10.317881 7.55480245,10.317881 C8.1987448,10.317881 8.85708326,10.4110238 9.5129954,10.6108861 C11.3592546,5.77109215 16.2377529,2.70874676 21.5193419,3.02195911 Z" id="Fill-18" fill="#3B485B"></path>
            <path d="M24.025708,4.00312253 C24.0083057,4 23.9923271,3.99875099 23.974292,3.99687747 C23.9904287,3.99875099 24.0064072,4 24.0225439,4.00187352 L24.025708,4.00312253 Z" id="Fill-19" fill="#F4AF9D"></path>
            <path d="M28.4997738,51 C26.6338612,51 24.7673454,50.3163026 23.3468326,48.9483269 C22.8843891,48.5022605 22.8843891,47.7794905 23.3468326,47.3340051 C23.8098793,46.888665 24.5599548,46.888665 25.0223982,47.3340051 C26.9401961,49.180874 30.0599548,49.180874 31.9771493,47.3340051 C32.4401961,46.888665 33.1902715,46.888665 33.6527149,47.3340051 C34.1157617,47.7800715 34.1157617,48.5022605 33.6527149,48.9483269 C32.2322021,50.3163026 30.3662896,51 28.4997738,51 Z" id="Fill-20" fill="#E06E86"></path>
            <polygon id="Fill-21" fill="#F4AF9D" points="53 53 64 53 64 44 53 44"></polygon>
            <polygon id="Fill-22" fill="#F9C2AF" points="57 53 64 53 64 44 57 44"></polygon>
            <polygon id="Fill-23" fill="#515F75" points="53 79 64 79 64 54 53 54"></polygon>
            <polygon id="Fill-24" fill="#3B485B" points="53 79 57 79 57 54 53 54"></polygon>
            <path d="M74,28 L74,48 L56.5621474,48 C52.4912712,48 48.2389613,43.8282648 48.0129595,38.5727761 C48.003635,38.3839649 48,38.1935274 48,38.0009758 C48,32.4766629 52.3449232,28 56.5621474,28 L74,28 Z" id="Fill-25" fill="#DD8C22"></path>
            <path d="M33.9981077,43 L30.4591276,43 C27.9970432,43 26,40.5388302 26,37.5009169 C26,34.4630036 27.9970432,32 30.4591276,32 L34,32" id="Fill-26" fill="#DD8C22"></path>
            <path d="M57,28 L57,48 L38.6360144,48 C34.5652961,48 31.2383291,43.8282648 31.0129595,38.5727761 C31.003635,38.3839649 31,38.1935274 31,38.0009758 C31,32.4766629 34.4189482,28 38.6360144,28 L57,28 Z" id="Fill-27" fill="#EFA233"></path>
            <path d="M55,38 L55,47 L38.7083955,47 C34.5921053,47 31.2285319,43.0173199 31,38 L55,38 Z" id="Fill-28" fill="#DD8C22"></path>
            <path d="M66,38.0013011 C66,41.7634986 64.4398833,45.0421871 62.1364177,46.7485363 C61.0602771,47.5470661 59.8197585,48 58.5003881,48 C54.3584962,48 51,43.5238421 51,38.0013011 C51,32.4768085 54.3584962,28 58.5003881,28 C59.8203794,28 61.0602771,28.455536 62.1364177,29.2534153 C64.4398833,30.9584634 66,34.237152 66,38.0013011 Z" id="Fill-29" fill="#79BBE8"></path>
            <path d="M66,37.0002975 C66,40.4409802 64.3847653,43.4394742 61.9999196,45 C59.6145919,43.4394742 58,40.4409802 58,37.0002975 C58,33.55783 59.6152347,30.5593359 61.9999196,29 C64.3847653,30.5593359 66,33.55783 66,37.0002975 Z" id="Fill-30" fill="#AEDBF4"></path>
            <path d="M81,38 C81,32.4771678 77.6418467,28 73.4997672,28 C69.3575324,28 66,32.4771678 66,38 C66,43.5228322 69.3575324,48 73.4997672,48 C77.6418467,48 81,43.5228322 81,38 Z" id="Fill-31" fill="#79BBE8"></path>
            <path d="M81,37.0002975 C81,40.4409802 79.3847653,43.4394742 76.9999196,45 C74.6152347,43.4394742 73,40.4409802 73,37.0002975 C73,33.55783 74.6152347,30.5593359 76.9999196,29 C79.3847653,30.5593359 81,33.55783 81,37.0002975 Z" id="Fill-32" fill="#AEDBF4"></path>
            <path d="M50,44.4988845 L50,52 L39,52 L39,44.4988845 C39,43.670284 39.8210849,43 40.8324986,43 L48.1675014,43 C49.1784142,43 50,43.670284 50,44.4988845 Z" id="Fill-33" fill="#F4AF9D"></path>
            <path d="M50,44.4988845 L50,52 L43,52 L43,44.4988845 C43,43.670284 43.8733093,43 44.9528882,43 L48.0465779,43 C49.1241991,43 50,43.670284 50,44.4988845 Z" id="Fill-34" fill="#F9C2AF"></path>
            <polygon id="Fill-35" fill="#515F75" points="39 79 50 79 50 52 39 52"></polygon>
            <polygon id="Fill-36" fill="#3B485B" points="38 79 42 79 42 52 38 52"></polygon>
        </g>
    </g>
</svg>