<?xml version="1.0" encoding="UTF-8"?>
<svg width="251px" height="292px" viewBox="0 0 251 292" version="1.1" xmlns="http://www.w3.org/2000/svg" xmlns:xlink="http://www.w3.org/1999/xlink">
    <!-- Generator: Sketch 52.4 (67378) - http://www.bohemiancoding.com/sketch -->
    <title>customer-feedback</title>
    <desc>Created with Sketch.</desc>
    <g id="customer-feedback" stroke="none" stroke-width="1" fill="none" fill-rule="evenodd">
        <g id="002-help" transform="translate(34.000000, 98.000000)">
            <path d="M93,99.9991579 C93,120.115808 79.7440059,137.153092 61.4538687,142.912095 C57.1504065,144.267352 52.567301,145 47.8082908,145 C36.9862082,145 27.0492868,141.205952 19.2683249,134.885534 L0,138.626808 L7.57799494,120.51722 C4.40889223,114.361296 2.61883688,107.387389 2.61883688,99.9991579 C2.61883688,79.5400445 16.330379,62.2720184 35.1008712,56.8049517 C38.5935933,55.7854207 42.2605288,55.1802145 46.0486805,55.0331235 C46.6322104,55.0112283 47.2202506,55 47.8082908,55 C70.9064885,55 89.9498584,72.2461309 92.6651046,94.5073889 C92.8878044,96.3078492 93,98.1414331 93,99.9991579" id="Fill-1" fill="#29ABE2"></path>
            <path d="M39.9651135,110.528955 C39.9651135,107.940567 40.3866994,105.614322 41.2298712,103.553581 C42.073043,101.492281 43.8136225,99.6959248 46.4544053,98.1622724 C47.2450186,97.6850365 48.221264,97.1445053 49.3809048,96.5361976 C50.5411047,95.9278899 51.6767028,95.2019536 52.7837852,94.3572685 C53.8914266,93.5103429 54.8279736,92.5194623 55.5928668,91.3835065 C56.3572009,90.2481108 56.741325,88.9396331 56.741325,87.4580733 C56.741325,86.349004 56.5294138,85.3710066 56.108387,84.5263215 C55.6845646,83.6816364 55.1315825,82.9663427 54.4460861,82.3866019 C53.7600305,81.8046206 52.9543206,81.3688348 52.0323111,81.0758837 C51.1086242,80.7868535 50.1715181,80.640658 49.2237885,80.640658 C48.0619112,80.640658 47.0068282,80.8395063 46.0568621,81.2355224 C45.106896,81.6315386 44.2508641,82.1345407 43.4859709,82.741168 C42.7194002,83.3489156 42.0339038,84.0362025 41.4266859,84.8019084 C40.8217045,85.5698549 40.3061843,86.2963513 39.8845984,86.9836381 L33,82.2269632 C33.683819,80.5880052 34.5946459,79.1350124 35.730244,77.8657442 C36.8641647,76.5970362 38.1546425,75.5271764 39.6072687,74.6561649 C41.0576584,73.7829129 42.6277025,73.1247531 44.3162826,72.6738436 C46.0043036,72.2251747 47.7454422,72 49.5385801,72 C51.5436293,72 53.5223992,72.2907106 55.4748899,72.8726919 C57.425144,73.4546732 59.1791427,74.3783375 60.7363267,75.6470455 C62.2912741,76.9163137 63.5582684,78.540148 64.5345137,80.5224693 C65.5107591,82.5047906 66,84.8696848 66,87.6182722 C66,89.3093228 65.801508,90.8015251 65.4056422,92.0971197 C65.0103355,93.3921542 64.442816,94.5673195 63.7047611,95.6242961 C62.9661471,96.6829532 62.0950186,97.6323837 61.0947306,98.4770688 C60.092206,99.3239945 58.9560488,100.142353 57.6918502,100.936626 C56.6345307,101.57126 55.5794476,102.179568 54.5249238,102.759309 C53.4698407,103.34129 52.5064554,103.988807 51.6370044,104.70242 C50.765876,105.415474 50.0535412,106.236073 49.4988817,107.159177 C48.9464588,108.085082 48.6691291,109.207594 48.6691291,110.528955 L39.9651135,110.528955 Z M40.1227889,129 L48.9073196,129 L48.9073196,118.059984 L40.1227889,118.059984 L40.1227889,129 Z" id="Fill-2" fill="#FFFFFF"></path>
            <polygon id="Fill-3" fill="#D6B71D" points="60 169.518267 64.8941598 180 105 151.183489 95.4929024 144"></polygon>
            <polygon id="Fill-4" fill="#D6B71D" points="161.518267 69 136 104.490096 143.183489 114 172 73.8935984"></polygon>
            <path d="M64,180.501826 L87.2652346,190 C109.689319,182.70763 129.695025,170.341016 145.931656,154.238875 C162.172805,138.139535 174.643183,118.300748 182,96.0685133 L172.418569,73 L143.826803,113.021496 L153.342139,115.957712 C147.891327,125.482212 141.189805,134.188358 133.448849,141.861618 C125.707894,149.53712 116.929765,156.179736 107.324043,161.586699 L104.362222,152.15182 L64,180.501826 Z" id="Fill-5" fill="#F9DE58"></path>
            <path d="M47.7384837,55 C47.1582474,55 46.5757858,55.0088599 46,55.0326707 C46.7170897,60.8812864 48.5751811,66.3799375 51.347854,71.2988215 C52.6930231,71.4239671 54.025397,71.6814568 55.3444193,72.0729519 C57.2870705,72.6482891 59.03223,73.5614085 60.5815666,74.8156325 C62.128678,76.0704103 63.3892873,77.6757064 64.3606129,79.6353968 C65.3319385,81.5950873 65.8164887,83.9329831 65.8164887,86.6501917 L65.8164887,86.7410053 C69.1888689,88.9426807 72.8789048,90.705793 76.8014803,91.9406361 C81.047831,93.2773676 85.5723391,94 90.2659668,94 C90.8484284,94 91.4242142,93.9911401 92,93.9673293 C89.320788,72.0103791 70.5279185,55 47.7384837,55" id="Fill-6" fill="#3098C4"></path>
            <path d="M52,72 C55.3982621,78.4569154 60.213319,83.9499408 66,88 L66,87.905906 C66,85.090544 65.5289911,82.6681967 64.5912796,80.6377165 C63.6492618,78.6089576 62.4316364,76.9439524 60.9324823,75.6438484 C59.4354814,74.3443181 57.7446939,73.3982142 55.8671178,72.8020942 C54.5908182,72.3964571 53.3015995,72.1296662 52,72" id="Fill-7" fill="#E2E2E2"></path>
            <path d="M53,44.9988772 C53,65.1156524 66.2579278,82.1536043 84.5476215,87.9120817 C88.8509793,89.2679093 93.4339737,90 98.1928684,90 C109.015252,90 118.951933,86.2059286 126.732142,79.8860319 L146,83.6273299 L138.422189,65.5170671 C141.591215,59.3611049 143.38179,52.3871547 143.38179,44.9988772 C143.38179,24.5401976 129.667762,7.27206378 110.898289,1.80440153 C106.867802,0.629350999 102.606164,0 98.1928684,0 C73.2324909,0 53,20.1448462 53,44.9988772 Z" id="Fill-8" fill="#FC7A51"></path>
            <path d="M81.498875,41 C75.7111058,41 71,36.2883894 71,30.5 C71,24.7093603 75.7111058,20 81.498875,20 C87.2888942,20 92,24.7093603 92,30.5 C92,36.2883894 87.2888942,41 81.498875,41 Z M81.498875,24.4674507 C78.1743812,24.4674507 75.4697846,27.17515 75.4697846,30.5 C75.4697846,33.82485 78.1743812,36.530299 81.498875,36.530299 C84.8256188,36.530299 87.5307779,33.82485 87.5307779,30.5 C87.5307779,27.1728997 84.8256188,24.4674507 81.498875,24.4674507 Z" id="Fill-9" fill="#FFFFFF"></path>
            <path d="M113.501125,69 C107.711106,69 103,64.2883894 103,58.5 C103,52.7093603 107.711106,48 113.501125,48 C119.288894,48 124,52.7093603 124,58.5 C124,64.2883894 119.288894,69 113.501125,69 Z M113.501125,52.4674507 C110.174381,52.4674507 107.469222,55.1728997 107.469222,58.5 C107.469222,61.82485 110.174381,64.530299 113.501125,64.530299 C116.825619,64.530299 119.530215,61.82485 119.530215,58.5 C119.530215,55.1728997 116.825619,52.4674507 113.501125,52.4674507 Z" id="Fill-10" fill="#FFFFFF"></path>
            <polygon id="Fill-11" fill="#FFFFFF" points="94.4528928 71 90 70.1322969 100.547107 18 105 18.8677031"></polygon>
        </g>
    </g>
</svg>