<?xml version="1.0" encoding="UTF-8"?>
<svg width="251px" height="292px" viewBox="0 0 251 292" version="1.1" xmlns="http://www.w3.org/2000/svg" xmlns:xlink="http://www.w3.org/1999/xlink">
    <!-- Generator: Sketch 52.4 (67378) - http://www.bohemiancoding.com/sketch -->
    <title>data-analytics</title>
    <desc>Created with Sketch.</desc>
    <defs>
        <polygon id="path-1" points="0.0294972067 0.316026403 175.700603 0.316026403 175.700603 147.985835 0.0294972067 147.985835"></polygon>
    </defs>
    <g id="data-analytics" stroke="none" stroke-width="1" fill="none" fill-rule="evenodd">
        <g id="026-analysis" transform="translate(25.000000, 96.000000)">
            <path d="M121.917025,192 C120.797071,192 119.716694,191.417739 119.170851,190.407188 L102.339682,159.255513 C101.563065,157.81862 102.163389,156.058195 103.679104,155.321477 C105.194818,154.586708 107.053869,155.153864 107.828945,156.590757 L124.6596,187.742432 C125.436731,189.179325 124.838464,190.93975 123.320693,191.676468 C122.870964,191.895242 122.39091,192 121.917025,192 Z" id="Fill-1" fill="#1B3D66"></path>
            <path d="M53.0806308,192 C52.609316,192 52.1292636,191.895244 51.6774799,191.676475 C50.1617685,190.939774 49.5635019,189.17939 50.3401177,187.742531 L67.1712473,156.591578 C67.9478631,155.154719 69.8053677,154.585627 71.3210791,155.322328 C72.8367905,156.059029 73.437113,157.819413 72.6599832,159.256272 L55.8293675,190.407225 C55.2835264,191.417753 54.2031516,192 53.0806308,192 Z" id="Fill-2" fill="#1B3D66"></path>
            <path d="M32,154.300171 L32,145 L144,145 L144,154.300171 C144,156.343042 142.324185,158 140.258064,158 L35.7414463,158 C33.6758154,158 32,156.343042 32,154.300171 Z" id="Fill-3" fill="#F2DF33"></path>
            <path d="M134.674592,145 L134.674592,154.300171 C134.674592,156.343042 133.030063,158 131,158 L140.32685,158 C142.35499,158 144,156.343042 144,154.300171 L144,145 L134.674592,145 Z" id="Fill-4" fill="#FCAB29"></path>
            <path d="M73,13 L73,4.38449791 C73,1.96346097 75.0046886,0 77.4771707,0 L95.5223348,0 C97.9948169,0 100,1.96346097 100,4.38449791 L100,13 L73,13 Z" id="Fill-5" fill="#F2DF33"></path>
            <g id="Group-9">
                <mask id="mask-2" fill="white">
                    <use xlink:href="#path-1"></use>
                </mask>
                <g id="Clip-7"></g>
                <path d="M96.8201564,0.316026403 L87.2163575,0.316026403 C89.6744581,0.316026403 91.6660112,2.29668647 91.6660112,4.73893069 L91.6660112,13.429901 L101.271777,13.429901 L101.271777,4.73893069 C101.271777,2.29668647 99.278257,0.316026403 96.8201564,0.316026403 Z" id="Fill-6" fill="#FCAB29" mask="url(#mask-2)"></path>
                <path d="M167.356335,10.4992079 L8.34426816,10.4992079 C3.74270391,10.4992079 0,14.217769 0,18.7891617 L0,139.697347 C0,144.267274 3.74270391,147.985835 8.34426816,147.985835 L167.356335,147.985835 C171.957408,147.985835 175.700603,144.267274 175.700603,139.697347 L175.700603,18.7891617 C175.700603,14.217769 171.957408,10.4992079 167.356335,10.4992079 Z" id="Fill-8" fill="#EBEEF2" mask="url(#mask-2)"></path>
            </g>
            <path d="M167.297072,10 L157,10 C161.796789,10 165.700877,13.7324461 165.700877,18.3209084 L165.700877,139.680562 C165.700877,144.267554 161.796789,148 157,148 L167.297072,148 C172.095911,148 176,144.267554 176,139.680562 L176,18.3209084 C176,13.7324461 172.095911,10 167.297072,10 Z" id="Fill-10" fill="#D1D6DE"></path>
            <path d="M52.9530473,74 C51.9258757,74 50.9272095,73.4797157 50.3841355,72.5542375 C49.5815656,71.1836166 50.076967,69.4429946 51.4938739,68.6644705 L66.5947697,60.3713104 C68.0116766,59.5946886 69.8104554,60.0759753 70.6149912,61.4451695 C71.419527,62.816266 70.9221597,64.556888 69.5052528,65.3354121 L54.4043571,73.6280966 C53.9453244,73.8811051 53.4459913,74 52.9530473,74 Z" id="Fill-11" fill="#1B3D66"></path>
            <path d="M95.049365,74 C94.5559247,74 94.0546209,73.8811085 93.5960754,73.6281074 L78.4945432,65.3356631 C77.0776227,64.5571615 76.5807421,62.81659 77.3847942,61.4455332 C78.1893377,60.0744764 79.9881337,59.5951059 81.4050543,60.3717052 L96.5065864,68.6646251 C97.9230155,69.4431266 98.4184216,71.1836982 97.615844,72.5542794 C97.0727649,73.4797308 96.0745805,74 95.049365,74 Z" id="Fill-12" fill="#1B3D66"></path>
            <path d="M105.833084,72 C105.262531,72 104.684415,71.818509 104.186185,71.4410674 C102.911777,70.478766 102.618228,68.6110038 103.530546,67.2667734 L121.857258,40.2510338 C122.769103,38.907302 124.53985,38.5971717 125.814259,39.5594731 C127.088194,40.5217746 127.381743,42.3895368 126.469426,43.7332685 L108.143186,70.7495068 C107.589178,71.5657179 106.717512,72 105.833084,72 Z" id="Fill-13" fill="#1B3D66"></path>
            <path d="M41,102.176513 L41,125.823487 C41,126.473291 41.4853739,127 42.0837305,127 L50.9158176,127 C51.5146261,127 52,126.473291 52,125.823487 L52,102.176513 C52,101.527199 51.5146261,101 50.9158176,101 L42.0837305,101 C41.4853739,101 41,101.527199 41,102.176513 Z" id="Fill-14" fill="#48CFB7"></path>
            <path d="M69,87.1754183 L69,125.824582 C69,126.473781 69.4853739,127 70.0841824,127 L78.9162695,127 C79.5146261,127 80,126.473781 80,125.824582 L80,87.1754183 C80,86.5262189 79.5146261,86 78.9162695,86 L70.0841824,86 C69.4853739,86 69,86.5262189 69,87.1754183 Z" id="Fill-15" fill="#48CFB7"></path>
            <path d="M96,102.176513 L96,125.823487 C96,126.473291 96.4853938,127 97.083775,127 L105.916225,127 C106.514606,127 107,126.473291 107,125.823487 L107,102.176513 C107,101.527199 106.514606,101 105.916225,101 L97.083775,101 C96.4853938,101 96,101.527199 96,102.176513 Z" id="Fill-16" fill="#48CFB7"></path>
            <g id="Group-20" transform="translate(123.000000, 75.000000)">
                <path d="M0.0624968944,1.60852247 L0.0624968944,51.8480899 C0.0624968944,52.4957022 0.582819876,53.0206348 1.22426087,53.0206348 L10.6922981,53.0206348 C11.3342236,53.0206348 11.8545466,52.4957022 11.8545466,51.8480899 L11.8545466,1.60852247 C11.8545466,0.95944382 11.3342236,0.434511236 10.6922981,0.434511236 L1.22426087,0.434511236 C0.582819876,0.434511236 0.0624968944,0.95944382 0.0624968944,1.60852247 Z" id="Fill-17" fill="#48CFB7"></path>
                <path d="M38.7597019,42.1935337 L61.6965466,82.2756067 C64.081118,86.4418315 69.3589565,87.8680449 73.4885963,85.4623483 C77.6177516,83.0586067 79.031441,77.7320562 76.6468696,73.5658315 L53.7100248,33.4852247 L38.7597019,42.1935337 Z" id="Fill-19" fill="#ED5575"></path>
            </g>
            <path d="M177.017763,109 L162,117.946972 L170.98029,134 C173.677833,133.019283 176.325736,131.771919 178.892368,130.243849 C181.458512,128.715778 183.829021,126.971779 186,125.05353 L177.017763,109 Z" id="Fill-21" fill="#CC3A60"></path>
            <path d="M192,88.4992673 C192,109.21018 175.210617,126 154.500244,126 C133.789383,126 117,109.21018 117,88.4992673 C117,67.7898199 133.789383,51 154.500244,51 C175.210617,51 192,67.7898199 192,88.4992673 Z" id="Fill-22" fill="#F2DF33"></path>
            <path d="M182,87.9990375 C182,102.359796 169.911761,114 155.00025,114 C140.088739,114 128,102.359796 128,87.9990375 C128,73.6402036 140.088739,62 155.00025,62 C169.911761,62 182,73.6402036 182,87.9990375 Z" id="Fill-23" fill="#5C9CEE"></path>
            <path d="M74.5,49 C68.710825,49 64,53.710825 64,59.5 C64,65.289175 68.710825,70 74.5,70 C80.2897,70 85,65.289175 85,59.5 C85,53.710825 80.2897,49 74.5,49 Z" id="Fill-24" fill="#F2DF33"></path>
            <path d="M46.5,63 C40.7082,63 36,67.709829 36,73.4989501 C36,79.2875462 40.7082,84 46.5,84 C52.289175,84 57,79.2875462 57,73.4989501 C57,67.709829 52.289175,63 46.5,63 Z" id="Fill-25" fill="#5C9CEE"></path>
            <path d="M101.5,63 C95.710825,63 91,67.709829 91,73.4989501 C91,79.2875462 95.710825,84 101.5,84 C107.2897,84 112,79.2875462 112,73.4989501 C112,67.709829 107.2897,63 101.5,63 Z" id="Fill-26" fill="#ED5575"></path>
            <path d="M127.5,26 C121.710825,26 117,30.710825 117,36.5 C117,42.289175 121.710825,47 127.5,47 C133.291275,47 138,42.289175 138,36.5 C138,30.710825 133.291275,26 127.5,26 Z" id="Fill-27" fill="#9FD479"></path>
        </g>
    </g>
</svg>