<?xml version="1.0" encoding="UTF-8"?>
<svg width="250px" height="292px" viewBox="0 0 250 292" version="1.1" xmlns="http://www.w3.org/2000/svg" xmlns:xlink="http://www.w3.org/1999/xlink">
    <!-- Generator: Sketch 52.4 (67378) - http://www.bohemiancoding.com/sketch -->
    <title>diary-study</title>
    <desc>Created with Sketch.</desc>
    <defs>
        <polygon id="path-1" points="0.0254761905 0.341276596 106.613611 0.341276596 106.613611 139.797872 0.0254761905 139.797872"></polygon>
        <polygon id="path-3" points="0.0066796875 0.0702488688 57 0.0702488688 57 50 0.0066796875 50"></polygon>
    </defs>
    <g id="diary-study" stroke="none" stroke-width="1" fill="none" fill-rule="evenodd">
        <g id="037-document" transform="translate(33.000000, 137.000000)">
            <path d="M173.834376,39.8777451 C173.502611,38.629636 172.7068,37.586142 171.594016,36.9395415 L109.148788,0.651642248 C108.037694,0.00504177318 106.741912,-0.167668617 105.501916,0.166266497 C104.262343,0.50190319 103.225633,1.30292207 102.583236,2.42128565 L48.6468115,96.4552866 C48.004837,97.5736502 47.8328267,98.8779114 48.1662816,100.12602 C48.4984685,101.375406 49.2938576,102.417198 50.4049511,103.063799 L112.851869,139.3534 C113.606263,139.792407 114.431659,140 115.245644,140 C116.908269,140 118.527786,139.132619 119.417422,137.582055 L173.353846,43.548479 C173.996243,42.4301154 174.16614,41.1254288 173.834376,39.8777451 Z" id="Fill-1" fill="#EBEEF2"></path>
            <path d="M101.355516,15 L95.2474337,15 L48.6486437,95.8042003 C48.004102,96.9226872 47.8331012,98.2234114 48.1661922,99.4697618 C48.5014047,100.717387 49.2982771,101.75941 50.4155109,102.4051 L112,138 L112,25.6581224 C112,19.7823492 107.224706,15 101.355516,15 Z" id="Fill-2" fill="#D1D6DE"></path>
            <path d="M145.452477,45 C145.021611,45 144.584383,44.8847211 144.183627,44.6458034 L116.271887,27.9259634 C115.056047,27.1973303 114.638751,25.5834258 115.34103,24.3201979 C116.043308,23.05697 117.600533,22.6253341 118.816373,23.3544071 L146.728113,40.0724871 C147.943953,40.8011202 148.361249,42.4167847 147.65897,43.6782526 C147.186968,44.5256845 146.332021,45 145.452477,45 Z" id="Fill-3" fill="#1B3D66"></path>
            <path d="M142.435563,71 C142.001899,71 141.561832,70.8872234 141.158473,70.6525962 L95.2801461,43.8389842 C94.056411,43.123436 93.6364057,41.5367857 94.3432439,40.296243 C95.0500822,39.0574286 96.6174192,38.6318157 97.8411542,39.3473639 L143.719481,66.1609759 C144.944924,66.8782524 145.363222,68.4631743 144.656384,69.7037171 C144.183024,70.5342023 143.320818,71 142.435563,71 Z" id="Fill-4" fill="#656D88"></path>
            <path d="M136.435973,81 C136.002316,81 135.562256,80.886793 135.158903,80.650441 L89.2812583,53.8372369 C88.0558341,53.1216996 87.635835,51.5368018 88.3443701,50.2962779 C89.0511978,49.055754 90.6168042,48.632308 91.8422284,49.3478453 L137.719873,76.1606174 C138.94359,76.8765868 139.363589,78.4632129 138.656761,79.7020085 C138.181701,80.5342094 137.321215,81 136.435973,81 Z" id="Fill-5" fill="#656D88"></path>
            <path d="M130.436546,92 C130.001181,92 129.56112,91.8867917 129.157767,91.6521653 L83.281775,64.8390772 C82.0563494,64.1230994 81.6363498,62.5368866 82.3431783,61.295916 C83.0500069,60.0571059 84.6173225,59.6319266 85.8427481,60.3474723 L131.71874,87.1609925 C132.944166,87.8782666 133.364165,89.463183 132.65563,90.7037215 C132.182276,91.5342039 131.321789,92 130.436546,92 Z" id="Fill-6" fill="#656D88"></path>
            <path d="M123.437289,101 C123.00192,101 122.561857,100.887225 122.158501,100.6526 L76.2805093,73.8375758 C75.0550758,73.122036 74.6367809,71.5371328 75.3436139,70.2966047 C76.050447,69.0560765 77.6160653,68.632197 78.8414987,69.3477368 L124.719491,96.1610329 C125.944924,96.8765726 126.363219,98.4632042 125.656386,99.702004 C125.18303,100.534208 124.32083,101 123.437289,101 Z" id="Fill-7" fill="#656D88"></path>
            <path d="M95.4066228,10 L20.5916881,10 C14.7506774,10 10,14.7732567 10,20.6399429 L10,138.360057 C10,144.226743 14.7506774,149 20.5916881,149 L95.4066228,149 C101.247633,149 106,144.226743 106,138.360057 L106,20.6399429 C106,14.7732567 101.247633,10 95.4066228,10 Z" id="Fill-8" fill="#48CFB7"></path>
            <g id="Group-14" transform="translate(0.000000, 9.000000)">
                <mask id="mask-2" fill="white">
                    <use xlink:href="#path-1"></use>
                </mask>
                <g id="Clip-10"></g>
                <path d="M95.9620159,0.341276596 L86.8113929,0.341276596 C92.6828056,0.341276596 97.4612897,5.13021277 97.4612897,11.0161702 L97.4612897,129.122979 C97.4612897,135.008936 92.6828056,139.797872 86.8113929,139.797872 L95.9620159,139.797872 C101.835127,139.797872 106.613611,135.008936 106.613611,129.122979 L106.613611,11.0161702 C106.613611,5.13021277 101.835127,0.341276596 95.9620159,0.341276596 Z" id="Fill-9" fill="#35B5A0" mask="url(#mask-2)"></path>
                <path d="M0,19.3008511 L0,27.306383 C0,28.0442553 0.595293651,28.6408511 1.33198016,28.6408511 L23.0763333,28.6408511 C23.8108968,28.6408511 24.4061905,28.0442553 24.4061905,27.306383 L24.4061905,19.3008511 C24.4061905,18.5646809 23.8108968,17.9676596 23.0763333,17.9676596 L1.33198016,17.9676596 C0.595293651,17.9676596 0,18.5646809 0,19.3008511 Z" id="Fill-11" fill="#F2DF33" mask="url(#mask-2)"></path>
                <path d="M0,61.0178723 L0,69.0234043 C0,69.7612766 0.595293651,70.3578723 1.33198016,70.3578723 L23.0763333,70.3578723 C23.8108968,70.3578723 24.4061905,69.7595745 24.4061905,69.0234043 L24.4061905,61.0178723 C24.4061905,60.2817021 23.8108968,59.6846809 23.0763333,59.6846809 L1.33198016,59.6846809 C0.595293651,59.6829787 0,60.2817021 0,61.0178723 Z" id="Fill-12" fill="#F2DF33" mask="url(#mask-2)"></path>
                <path d="M0,102.734894 L0,110.740426 C0,111.476596 0.595293651,112.075319 1.33198016,112.075319 L23.0763333,112.075319 C23.8108968,112.075319 24.4061905,111.476596 24.4061905,110.740426 L24.4061905,102.734894 C24.4061905,101.998723 23.8108968,101.400426 23.0763333,101.400426 L1.33198016,101.400426 C0.595293651,101.400426 0,101.998723 0,102.734894 Z" id="Fill-13" fill="#F2DF33" mask="url(#mask-2)"></path>
            </g>
            <path d="M77.1764445,53 L39.825668,53 C38.8171354,53 38,52.1743552 38,51.1553201 L38,37.8446799 C38,36.8256448 38.8171354,36 39.825668,36 L77.1764445,36 C78.1832871,36 79,36.8256448 79,37.8446799 L79,51.1553201 C79,52.1743552 78.1832871,53 77.1764445,53 Z" id="Fill-15" fill="#FCD0AE"></path>
        </g>
        <g id="Group-22" transform="translate(186.000000, 153.000000)">
            <path d="M17.9260634,75.802438 L8.1607473,83.3882746 C6.48020454,84.6948243 3.99917837,83.8005092 3.55914869,81.7288953 L1,69.6988457 L25.8945613,1.92855822 C26.4523198,0.408510651 28.1499405,-0.376355217 29.6844123,0.177731284 L41.0536021,4.27739534 C42.5877105,4.83148184 43.3798366,6.51210289 42.8206247,8.03215045 L17.9260634,75.802438 Z" id="Fill-11" fill="#FCAB29"></path>
            <path d="M41.0331083,4.62221565 L36.5236914,3 C36.8578311,3.1190617 36.6698316,4.4592318 36.1062004,5.99178819 L10.9495221,74.3197728 L5.96973942,83.727825 C5.54086565,84.5372994 5.19203852,84.8930325 5,84.8237008 C5.89373183,85.1456756 6.94498665,85.0422226 7.79392173,84.3841163 L17.6620577,76.7344022 L42.818736,8.40678052 C43.3838359,6.87531311 42.5833695,5.17940989 41.0331083,4.62221565 Z" id="Fill-12" fill="#DD8D19"></path>
            <path d="M7.19202696,84.3583818 L17,76.4018527 L0,70 L2.57032759,82.6179147 C3.01227942,84.7907608 5.50414323,85.7287778 7.19202696,84.3583818 Z" id="Fill-13" fill="#656D88"></path>
            <path d="M17,76.4888689 L10.1083111,74 L4.99562116,83.6914822 C4.55530101,84.525343 4.1971639,84.8917931 4,84.8218684 C4.64803967,85.0555738 5.37524649,85.0656699 6.05570699,84.8143899 C6.33844682,84.7108116 6.6140239,84.5661012 6.86848973,84.3675451 L17,76.4888689 Z" id="Fill-14" fill="#2E344C"></path>
        </g>
        <g id="day" transform="translate(166.000000, 75.000000)">
            <g id="Group-5" transform="translate(0.000000, 2.000000)">
                <mask id="mask-4" fill="white">
                    <use xlink:href="#path-3"></use>
                </mask>
                <g id="Clip-2"></g>
                <path d="M55.034502,50 L1.96549805,50 C0.8799375,50 0,49.1058824 0,48.0028281 L0,2.06742081 C0,0.964366516 0.8799375,0.0702488688 1.96549805,0.0702488688 L55.034502,0.0702488688 C56.1200625,0.0702488688 57,0.964366516 57,2.06742081 L57,48.0028281 C57,49.1057692 56.1199512,50 55.034502,50" id="Fill-1" fill="#F2F4F7" mask="url(#mask-4)"></path>
                <path d="M57,10.0562217 L0,10.0562217 L0,2.06742081 C0,0.964366516 0.8799375,0.0702488688 1.96549805,0.0702488688 L55.034502,0.0702488688 C56.1200625,0.0702488688 57,0.964366516 57,2.06742081 L57,10.0562217" id="Fill-3" fill="#E15E5F" mask="url(#mask-4)"></path>
                <polygon id="Fill-4" fill="#E3E9F0" mask="url(#mask-4)" points="0.0066796875 12.0533937 57 12.0533937 57 10.0562217 0.0066796875 10.0562217"></polygon>
            </g>
            <path d="M9.00005664,4 C10.6569244,4 12,5.34307562 12,6.99994336 C12,8.6568111 10.6569244,10 9.00005664,10 C7.3431889,10 6,8.6568111 6,6.99994336 C6,5.34307562 7.3431889,4 9.00005664,4" id="Fill-6" fill="#C25054"></path>
            <path d="M8.50005664,8 C7.67163841,8 7,7.32835842 7,6.49993628 L7,1.49995044 C7,0.67164158 7.67163841,0 8.50005664,0 C9.32836159,0 10,0.67164158 10,1.49995044 L10,6.49993628 C10,7.32835842 9.32836159,8 8.50005664,8" id="Fill-7" fill="#C3CAD7"></path>
            <path d="M8.50005664,5.33329977 C7.67163841,5.33329977 7,4.73628033 7,4 L7,6.66659954 C7,7.40298057 7.67163841,8 8.50005664,8 C9.32836159,8 10,7.40298057 10,6.66659954 L10,4 C10,4.73628033 9.32836159,5.33329977 8.50005664,5.33329977" id="Fill-8" fill="#A9B2C5"></path>
            <path d="M48.0000566,4 C49.6569244,4 51,5.34307562 51,6.99994336 C51,8.6568111 49.6569244,10 48.0000566,10 C46.3431889,10 45,8.6568111 45,6.99994336 C45,5.34307562 46.3431889,4 48.0000566,4" id="Fill-9" fill="#C25054"></path>
            <path d="M48.5000566,8 C47.6716384,8 47,7.32835842 47,6.49993628 L47,1.49995044 C47,0.67164158 47.6716384,0 48.5000566,0 C49.3283616,0 50,0.67164158 50,1.49995044 L50,6.49993628 C50,7.32835842 49.3283616,8 48.5000566,8" id="Fill-10" fill="#C3CAD7"></path>
            <path d="M48.5000566,5.33329977 C47.6716384,5.33329977 47,4.73628033 47,4 L47,6.66659954 C47,7.40298057 47.6716384,8 48.5000566,8 C49.3283616,8 50,7.40298057 50,6.66659954 L50,4 C50,4.73628033 49.3283616,5.33329977 48.5000566,5.33329977" id="Fill-11" fill="#A9B2C5"></path>
            <path d="M26.4474236,33.0201814 C26.3451318,32.9954658 26.3350209,32.8591933 26.4329027,32.8194237 C28.6789121,31.9109027 30.0223658,29.8986078 30.0223658,27.3121259 C30.0223658,23.6544497 26.975985,21 22.7797626,21 C19.1477048,21 16.3764685,22.9839843 15.547593,26.1780193 C15.4411063,26.5856012 15.5207024,27.0107086 15.7647614,27.3438067 C16.0035498,27.6700519 16.3660349,27.8571037 16.7589602,27.8571037 C17.3273196,27.8571037 17.825656,27.45087 17.9701122,26.8690436 C18.4918972,24.7540668 20.2982993,23.4405479 22.68457,23.4405479 C25.5511066,23.4405479 27.4024697,25.0703135 27.4024697,27.5924227 C27.4024697,30.1438535 25.4238603,31.9258444 22.5910983,31.9258444 L20.8546117,31.9258444 C20.2274157,31.9258444 19.7176777,32.4581274 19.7176777,33.1127523 C19.7176777,33.7674896 20.2274157,34.300222 20.8546117,34.300222 L22.68457,34.300222 C26.2414417,34.300222 28.3646149,36.0371632 28.3646149,38.9464077 C28.3646149,41.6198434 26.0622428,43.5601262 22.8895838,43.5601262 C20.1529825,43.5601262 18.0349723,42.1675175 17.4933959,40.0118724 C17.3419481,39.4135315 16.8374807,38.9957265 16.2664322,38.9957265 C15.8737221,38.9957265 15.5111294,39.1818795 15.2697595,39.5063272 C15.0239795,39.8378525 14.9409414,40.2630723 15.0421575,40.6724516 C15.8433895,43.9089524 18.9294608,46 22.9050728,46 C27.5201429,46 31,42.9392042 31,38.8804621 C31,35.8839268 29.2542631,33.6977244 26.4474236,33.0201814" id="Fill-12" fill="#E15E5F"></path>
            <path d="M40.4964185,21.0000113 C39.8344818,21.0025567 39.1978201,21.20758 38.6540189,21.5937918 C37.9662506,22.081474 36.9649392,22.8046089 35.9958061,23.5044878 C35.0285658,24.2023998 34.0943945,24.8771714 33.5382341,25.2698626 C33.2014202,25.5080922 33,25.9022875 33,26.3243669 C33,26.7989748 33.2507454,27.2313516 33.6536972,27.4531515 C34.0594326,27.6774969 34.5314174,27.6510013 34.91288,27.3810695 C35.8942609,26.688017 38.5157304,24.7716516 39.2137423,24.2609448 C39.287897,24.206565 39.3864359,24.2646472 39.3864359,24.358944 L39.3864359,44.6421262 C39.3864359,45.3909469 39.9731044,46 40.6931623,46 C41.4133315,46 42,45.3909469 42,44.6421262 L42,22.5490241 C42.0001113,21.6900556 41.323032,20.9967717 40.4964185,21.0000113" id="Fill-13" fill="#E15E5F"></path>
        </g>
    </g>
</svg>