<?xml version="1.0" encoding="UTF-8"?>
<svg width="251px" height="292px" viewBox="0 0 251 292" version="1.1" xmlns="http://www.w3.org/2000/svg" xmlns:xlink="http://www.w3.org/1999/xlink">
    <!-- Generator: Sketch 52.4 (67378) - http://www.bohemiancoding.com/sketch -->
    <title>email-survey</title>
    <desc>Created with Sketch.</desc>
    <defs>
        <polygon id="path-1" points="0.0244311377 0 203.766275 0 203.766275 208 0.0244311377 208"></polygon>
    </defs>
    <g id="email-survey" stroke="none" stroke-width="1" fill="none" fill-rule="evenodd">
        <g id="001-email" transform="translate(23.000000, 79.000000)">
            <g id="Group-6">
                <mask id="mask-2" fill="white">
                    <use xlink:href="#path-1"></use>
                </mask>
                <g id="Clip-2"></g>
                <path d="M187.094467,208 L16.6718084,208 C7.46411976,208 0,200.553031 0,191.3665 L0,82.4715938 L203.765868,82.4715938 L203.765868,191.3665 C203.765868,200.553031 196.301749,208 187.094467,208" id="Fill-1" fill="#EFA36B" mask="url(#mask-2)"></path>
                <path d="M92.5895329,3.4255 L0.000407185629,82.4715938 L203.766275,82.4715938 L111.176743,3.4255 C105.826731,-1.14196875 97.9395449,-1.14196875 92.5895329,3.4255" id="Fill-3" fill="#EFA36B" mask="url(#mask-2)"></path>
                <path d="M203.766275,82.4715938 L166.040527,82.4715938 L166.040527,50.2640937 L203.766275,82.4715938 M37.7257485,82.4715938 L0.000407185629,82.4715938 L37.7257485,50.2645 L37.7257485,82.4715938 M138.537988,26.7844687 L65.2282874,26.7844687 L92.5895329,3.4255 C95.2643353,1.14196875 98.5739401,0 101.883138,0 C105.192335,0 108.501533,1.14196875 111.176743,3.4255 L138.537988,26.7844687" id="Fill-4" fill="#E4965C" mask="url(#mask-2)"></path>
                <path d="M101.883138,145.236 L0.000407185629,82.4715938 L37.7257485,82.4715938 L37.7257485,105.711938 L101.883138,145.236 M166.040527,105.711938 L166.040527,82.4715938 L203.765868,82.4715938 L166.040527,105.711938" id="Fill-5" fill="#D38C57" mask="url(#mask-2)"></path>
            </g>
            <path d="M187.639881,207.996753 C191.524472,207.922072 195.082969,206.524653 197.883298,204.239185 L102.009318,145.294321 L6.13533835,204.239185 L102.008911,145.294321 L102.009318,145.294321 L204,82.5882353 L204,191.381956 C204,200.450365 196.705285,207.821822 187.639881,207.996753" id="Fill-7" fill="#EE9E63"></path>
            <polyline id="Fill-8" fill="#C68653" points="166.231387 105.807315 166.231387 105.806909 204 82.5882353 166.231387 105.807315"></polyline>
            <path d="M37.5789474,37.6955443 L37.5789474,105.744069 L101.616541,145.294118 L165.654135,105.744475 L165.654135,37.6955443 C165.654135,31.6583588 160.761181,26.7647059 154.725765,26.7647059 L48.507318,26.7647059 C42.4719019,26.7647059 37.5789474,31.6587653 37.5789474,37.6955443" id="Fill-9" fill="#F2F2F2"></path>
            <path d="M101.616541,145.294118 L37.5789474,106.06735 L37.5789474,97.1176471 L97.6388567,133.907509 C98.8581327,134.654225 100.237134,135.027583 101.616948,135.027583 C102.995949,135.027583 104.375356,134.654225 105.594226,133.907912 L165.654135,97.1176471 L165.654135,106.067753 L101.616541,145.294118" id="Fill-10" fill="#C0BFBB"></path>
        </g>
        <path d="M116.585449,166.14507 C116.585449,168.52005 116.925887,169.877367 117.947202,171.234359 C118.968192,172.252347 119.989507,172.931005 121.35126,172.931005 C122.372249,172.931005 123.393564,172.591676 124.074441,172.252347 C124.755318,171.913017 125.435869,171.234359 126.116745,170.556025 C127.13806,169.538038 127.818937,167.841392 128.499814,165.805741 C129.180365,163.770091 129.520803,161.734115 129.520803,160.037794 C129.520803,158.001819 129.180365,156.644827 128.159375,155.28751 C127.13806,154.269847 126.116745,153.591189 124.755318,153.591189 C123.393564,153.591189 121.691698,154.269847 120.670383,155.28751 C119.30863,156.305498 118.287641,158.001819 117.606764,160.377123 C116.925887,162.412774 116.585449,164.448424 116.585449,166.14507 Z M145.519776,177.002631 L150.966464,177.002631 C149.264272,180.734927 146.541091,183.449236 142.796595,185.484887 C138.711987,187.859866 133.605737,188.877854 127.478499,188.877854 C121.691698,188.877854 116.585449,187.859866 112.500515,185.824216 C108.415906,183.788565 105.011848,181.073932 102.969218,177.002631 C100.926914,173.270334 99.905599,168.859379 99.905599,164.448424 C99.905599,159.359136 100.926914,154.948181 103.309657,150.537551 C105.692399,146.126596 108.756344,143.072958 112.840953,141.037307 C116.925887,139.001332 121.691698,137.983344 126.797622,137.983344 C131.222995,137.983344 135.307929,139.001332 138.711987,140.697978 C142.116044,142.394299 144.839225,144.769279 146.541091,148.162246 C148.243283,151.215884 149.264272,154.948181 149.264272,158.680477 C149.264272,163.091432 147.902845,167.163058 145.179664,170.895354 C141.775606,175.645314 137.350233,177.680964 131.903871,177.680964 C130.542118,177.680964 129.180365,177.34196 128.499814,177.002631 C127.818937,176.323972 127.13806,175.645314 127.13806,174.627326 C125.095756,176.663301 122.712688,177.680964 119.989507,177.680964 C116.925887,177.680964 114.543145,176.663301 112.840953,174.627326 C110.798649,172.591676 109.777334,169.877367 109.777334,166.484399 C109.777334,162.412774 110.798649,158.680477 113.181391,154.948181 C115.904572,150.87688 119.649068,148.840905 124.074441,148.840905 C127.13806,148.840905 129.520803,150.198221 131.222995,152.573201 L131.903871,149.519563 L139.052099,149.519563 L134.967491,168.52005 C134.627052,169.877367 134.627052,170.556025 134.627052,170.895354 C134.627052,171.234359 134.627052,171.573688 134.967491,171.913017 C135.307929,172.252347 135.307929,172.252347 135.648042,172.252347 C136.328918,172.252347 137.690672,171.573688 139.052099,170.556025 C140.754291,169.198708 142.456157,167.502387 143.477472,165.127083 C144.498787,162.752103 145.179664,160.377123 145.179664,158.001819 C145.179664,153.591189 143.477472,149.858892 140.413853,147.144583 C137.350233,144.090945 132.924861,142.733628 127.13806,142.733628 C122.372249,142.733628 118.287641,143.751616 114.883583,145.787266 C111.479525,147.822917 109.096457,150.537551 107.394591,153.930518 C105.692399,157.323485 105.011848,161.055457 105.011848,165.127083 C105.011848,168.859379 106.032838,172.252347 107.735029,175.305985 C109.777334,178.359623 112.160076,180.734927 115.564134,182.091919 C118.968192,183.449236 122.712688,184.127894 127.13806,184.127894 C131.222995,184.127894 134.967491,183.449236 138.03111,182.431248 C141.094729,181.073932 143.477472,179.37761 145.519776,177.002631 Z" id="Fill-8" fill="#3B4A4F"></path>
    </g>
</svg>