<?xml version="1.0" encoding="UTF-8"?>
<svg width="251px" height="292px" viewBox="0 0 251 292" version="1.1" xmlns="http://www.w3.org/2000/svg" xmlns:xlink="http://www.w3.org/1999/xlink">
    <!-- Generator: Sketch 52.4 (67378) - http://www.bohemiancoding.com/sketch -->
    <title>eye-tracking</title>
    <desc>Created with Sketch.</desc>
    <defs>
        <polygon id="path-1" points="0.0275327846 0 234.946429 0 234.946429 122.972667 0.0275327846 122.972667"></polygon>
    </defs>
    <g id="eye-tracking" stroke="none" stroke-width="1" fill="none" fill-rule="evenodd">
        <g id="010-view" transform="translate(8.000000, 107.000000)">
            <g id="Group-6" transform="translate(0.000000, 55.000000)">
                <mask id="mask-2" fill="white">
                    <use xlink:href="#path-1"></use>
                </mask>
                <g id="Clip-2"></g>
                <path d="M232.881011,56.58 C230.40306,54.2562111 172.81457,0 117.473214,0 C62.1318584,0 4.54336834,54.2562111 2.06541772,56.58 C0.825983538,57.8095444 0,59.5866667 0,61.5 C0,63.4133333 0.825983538,65.1904556 2.06541772,66.42 C4.54336834,68.7437889 62.1318584,123 117.473214,123 C172.81457,123 230.40306,68.7437889 232.881011,66.42 C234.120445,65.1904556 234.946429,63.4133333 234.946429,61.5 C234.946429,59.5866667 234.120445,57.8095444 232.881011,56.58" id="Fill-1" fill="#E1E0E1" mask="url(#mask-2)"></path>
                <path d="M234.946429,61.5 C234.946429,63.4133333 234.120445,65.1904556 232.881011,66.42 C230.40306,68.7437889 172.81457,123 117.473214,123 L117.473214,0 C172.81457,0 230.40306,54.2562111 232.881011,56.58 C234.120445,57.8095444 234.946429,59.5866667 234.946429,61.5" id="Fill-3" fill="#D4D3D3" mask="url(#mask-2)"></path>
                <path d="M117.473214,0 C83.3330203,0 55.5244489,27.6071222 55.5244489,61.5 C55.5244489,95.3928778 83.3330203,123 117.473214,123 C151.613408,123 179.42198,95.3928778 179.42198,61.5 C179.42198,27.6071222 151.613408,0 117.473214,0" id="Fill-4" fill="#24B5C1" mask="url(#mask-2)"></path>
                <path d="M179.42198,61.5 C179.42198,95.3928778 151.613408,123 117.473214,123 L117.473214,0 C151.613408,0 179.42198,27.6071222 179.42198,61.5" id="Fill-5" fill="#00A8BB" mask="url(#mask-2)"></path>
            </g>
            <path d="M119,81 C100.232,81 85,96.232 85,115 C85,133.768 100.232,149 119,149 C137.768,149 153,133.768 153,115 C153,96.232 137.768,81 119,81" id="Fill-7" fill="#535353"></path>
            <path d="M152,115 C152,133.768 136.32,149 117,149 L117,81 C136.32,81 152,96.232 152,115" id="Fill-8" fill="#3B3B3D"></path>
            <path d="M126,116 C126,119.920467 122.920467,123 119,123 C115.079533,123 112,119.920467 112,116 C112,112.079533 115.079533,109 119,109 C122.920467,109 126,112.079533 126,116" id="Fill-9" fill="#E1E0E1"></path>
            <path d="M126,7 L126,35 C126,38.9204667 122.920467,42 119,42 C115.079533,42 112,38.9204667 112,35 L112,7 C112,3.07953333 115.079533,0 119,0 C122.920467,0 126,3.07953333 126,7" id="Fill-10" fill="#24B5C1"></path>
            <path d="M60.8677707,55.2881146 L32.871281,41.7885138 C29.4127813,40.1208631 28.011557,36.0669329 29.7408069,32.7316315 C31.4700567,29.3895803 35.6737296,28.0517699 39.1322293,29.7126708 L67.128719,43.2122717 C70.5872187,44.8799224 71.988443,48.9338525 70.2591931,52.2691539 C68.5369424,55.581506 64.3579997,56.9593652 60.8677707,55.2881146" id="Fill-11" fill="#24B5C1"></path>
            <path d="M164.740807,52.2688891 C163.011557,48.9336257 164.412781,44.8797416 167.871281,43.2121099 L195.867771,29.7126627 C199.333269,28.0517807 203.522944,29.3895759 205.259193,32.7315891 C206.988443,36.0668525 205.587219,40.1207365 202.128719,41.7883682 L174.132229,55.2878155 C170.638734,56.960847 166.461658,55.5785036 164.740807,52.2688891" id="Fill-12" fill="#00A8BB"></path>
            <path d="M118,42 L118,0 C121.3604,0 124,3.07953333 124,7 L124,35 C124,38.9204667 121.3604,42 118,42" id="Fill-13" fill="#00A8BB"></path>
            <path d="M124,116 C124,119.920467 121.3604,123 118,123 L118,109 C121.3604,109 124,112.079533 124,116" id="Fill-14" fill="#D4D3D3"></path>
        </g>
    </g>
</svg>