<?xml version="1.0" encoding="UTF-8"?>
<svg width="251px" height="292px" viewBox="0 0 251 292" version="1.1" xmlns="http://www.w3.org/2000/svg" xmlns:xlink="http://www.w3.org/1999/xlink">
    <!-- Generator: Sketch 52.4 (67378) - http://www.bohemiancoding.com/sketch -->
    <title>first-click</title>
    <desc>Created with Sketch.</desc>
    <defs>
        <polygon id="path-1" points="0.0274850299 0.106514286 152.756757 0.106514286 152.756757 175.728 0.0274850299 175.728"></polygon>
    </defs>
    <g id="first-click" stroke="none" stroke-width="1" fill="none" fill-rule="evenodd">
        <g id="012-click" transform="translate(49.000000, 102.000000)">
            <path d="M127,167 L120,170 L127,167 Z" id="Fill-1" fill="#FFDA44"></path>
            <path d="M106,125.3165 L153,125.6835 L106,125.3165 Z" id="Fill-2" fill="#FFDA44"></path>
            <polygon id="Fill-3" fill="#FFDA44" points="40 32 40 178.303446 69.5849488 142.821209 88.808231 184 107 175.526718"></polygon>
            <g id="Group-7">
                <mask id="mask-2" fill="white">
                    <use xlink:href="#path-1"></use>
                </mask>
                <g id="Clip-5"></g>
                <polygon id="Fill-4" fill="#FFCD00" mask="url(#mask-2)" points="106.341871 125.920914 152.756757 126.090514 40.1020329 31.7545143 107.375766 175.728 119.114165 170.265143 125.643692 167.227886"></polygon>
                <path d="M10.994012,47.4404571 C10.994012,27.3901714 27.3402754,11.0779429 47.4313743,11.0779429 C67.5224731,11.0779429 83.8687365,27.3901714 83.8687365,47.4404571 C83.8687365,51.6118857 83.1655778,55.7065143 81.7785,59.6082286 L92.1376078,63.2777143 C93.9465808,58.1956571 94.8627485,52.8672 94.8627485,47.4404571 C94.8627485,21.3403429 73.5852126,0.106514286 47.4313743,0.106514286 C21.2775359,0.106514286 0,21.3403429 0,47.4404571 C0,57.2813714 2.99907485,66.7172571 8.67152695,74.7277714 C14.2166317,82.5563429 21.8858713,88.4580571 30.8510299,91.7974857 L34.6943533,81.5190857 C20.5189491,76.2404571 10.994012,62.544 10.994012,47.4404571 Z" id="Fill-6" fill="#00E7F0" mask="url(#mask-2)"></path>
            </g>
            <path d="M28.9532128,47.1633437 C28.9532128,37.1558415 37.0485498,29.0149072 47,29.0149072 C56.9514502,29.0149072 65.0467872,37.1558415 65.0467872,47.1633437 C65.0467872,47.2565114 65.0431361,47.3478434 65.0394851,47.4391753 L65.0326393,47.6759958 L75.982201,47.9789057 L75.9876776,47.8141411 C75.9945234,47.5970556 76,47.381806 76,47.1633437 C76,31.0820381 62.9912343,18 47,18 C31.0087657,18 18,31.0820381 18,47.1633437 C18,56.0968923 22.0056812,64.4204906 28.9888107,70 L35.8026218,61.3767045 C31.4491761,57.8982886 28.9532128,52.7171517 28.9532128,47.1633437 Z" id="Fill-8" fill="#00E7F0"></path>
        </g>
    </g>
</svg>