<?xml version="1.0" encoding="UTF-8"?>
<svg width="251px" height="292px" viewBox="0 0 251 292" version="1.1" xmlns="http://www.w3.org/2000/svg" xmlns:xlink="http://www.w3.org/1999/xlink">
    <!-- Generator: Sketch 52.4 (67378) - http://www.bohemiancoding.com/sketch -->
    <title>intercept-message</title>
    <desc>Created with Sketch.</desc>
    <defs>
        <polygon id="path-1" points="0.0266341463 0.177922078 181.823327 0.177922078 181.823327 136.821633 0.0266341463 136.821633"></polygon>
        <polygon id="path-3" points="0.0266341463 0.177128954 181.823327 0.177128954 181.823327 181.558063 0.0266341463 181.558063"></polygon>
    </defs>
    <g id="intercept-message" stroke="none" stroke-width="1" fill="none" fill-rule="evenodd">
        <g id="002-notification" transform="translate(34.000000, 104.000000)">
            <g id="Group-4">
                <mask id="mask-2" fill="white">
                    <use xlink:href="#path-1"></use>
                </mask>
                <g id="Clip-2"></g>
                <path d="M170.458537,0.177922078 L11.3647902,0.177922078 C5.09777561,0.177922078 0,5.28606494 0,11.5658247 L0,125.435955 C0,131.71349 5.09777561,136.821633 11.3647902,136.821633 L170.458537,136.821633 C176.725107,136.821633 181.823327,131.71349 181.823327,125.435955 L181.823327,11.5658247 C181.823327,5.28606494 176.725107,0.177922078 170.458537,0.177922078 Z" id="Fill-1" fill="#EAEBEF" mask="url(#mask-2)"></path>
                <path d="M8.52248293,125.435955 L8.52248293,11.5658247 C8.52248293,5.28606494 13.6207024,0.177922078 19.8872732,0.177922078 L11.3647902,0.177922078 C5.09777561,0.177922078 0,5.28606494 0,11.5658247 L0,125.435955 C0,131.71349 5.09777561,136.821633 11.3647902,136.821633 L19.8872732,136.821633 C13.6207024,136.821633 8.52248293,131.71349 8.52248293,125.435955 Z" id="Fill-3" fill="#D5D8DE" mask="url(#mask-2)"></path>
            </g>
            <path d="M110.250806,130 L71.7491943,130 C70.2302193,130 69,131.269643 69,132.834563 L69,178.165437 C69,179.730357 70.2302193,181 71.7491943,181 L110.250806,181 C111.768062,181 113,179.730357 113,178.165437 L113,132.834563 C113,131.269643 111.768062,130 110.250806,130 Z" id="Fill-5" fill="#6B768D"></path>
            <path d="M113,133.801312 C113,132.25475 111.768062,131 110.250806,131 L71.7491943,131 C70.2302193,131 69,132.25475 69,133.801312 L69,145 L113,145 L113,133.801312 Z" id="Fill-6" fill="#56637D"></path>
            <g id="Group-13">
                <mask id="mask-4" fill="white">
                    <use xlink:href="#path-3"></use>
                </mask>
                <g id="Clip-8"></g>
                <path d="M56.8195122,181.558063 L56.8195122,177.641742 C56.8195122,176.567455 57.4263268,175.586603 58.3904829,175.105698 L68.1843024,170.220925 L113.639024,170.220925 L123.4324,175.105698 C124.39478,175.586603 125.003815,176.567455 125.003815,177.641742 L125.003815,181.558063 L56.8195122,181.558063 Z" id="Fill-7" fill="#808A9D" mask="url(#mask-4)"></path>
                <path d="M0,124.876798 C0,131.12635 5.09777561,136.211723 11.3647902,136.211723 L170.458537,136.211723 C176.725107,136.211723 181.823327,131.12635 181.823327,124.876798 L181.823327,116.372837 L0,116.372837 L0,124.876798 Z" id="Fill-9" fill="#6B768D" mask="url(#mask-4)"></path>
                <path d="M8.52248293,124.876798 L8.52248293,116.372837 L0,116.372837 L0,124.876798 C0,131.12635 5.09777561,136.211723 11.3647902,136.211723 L19.8872732,136.211723 C13.6207024,136.211723 8.52248293,131.12635 8.52248293,124.876798 Z" id="Fill-10" fill="#56637D" mask="url(#mask-4)"></path>
                <path d="M170.458537,0.177128954 L11.3647902,0.177128954 C5.09777561,0.177128954 0,5.26250122 0,11.5142676 L0,20.0160146 L181.823327,20.0160146 L181.823327,11.5142676 C181.823327,5.26250122 176.725107,0.177128954 170.458537,0.177128954 Z" id="Fill-11" fill="#6B768D" mask="url(#mask-4)"></path>
                <path d="M19.8872732,0.177128954 L11.3647902,0.177128954 C5.09777561,0.177128954 0,5.26250122 0,11.5142676 L0,20.0160146 L8.52248293,20.0160146 L8.52248293,11.5142676 C8.52248293,5.26250122 13.6207024,0.177128954 19.8872732,0.177128954 Z" id="Fill-12" fill="#56637D" mask="url(#mask-4)"></path>
            </g>
            <path d="M97.1674046,128 L85.8325954,128 C84.26754,128 83,126.880166 83,125.500976 C83,124.119834 84.26754,123 85.8325954,123 L97.1674046,123 C98.7306891,123 100,124.119834 100,125.500976 C100,126.880166 98.7306891,128 97.1674046,128 Z" id="Fill-14" fill="#414F6C"></path>
            <path d="M94.2489259,15 L88.7489259,15 C87.2318178,15 86,13.8801656 86,12.5009765 C86,11.1198344 87.2318178,10 88.7489259,10 L94.2489259,10 C95.7677525,10 97,11.1198344 97,12.5009765 C97,13.8801656 95.7677525,15 94.2489259,15 Z" id="Fill-15" fill="#414F6C"></path>
            <path d="M104.667535,15 L101.332465,15 C99.4933069,15 98,13.8801656 98,12.5009765 C98,11.1198344 99.4933069,10 101.332465,10 L104.667535,10 C106.508776,10 108,11.1198344 108,12.5009765 C108,13.8801656 106.508776,15 104.667535,15 Z" id="Fill-16" fill="#414F6C"></path>
            <path d="M80.6657988,15 L77.3342012,15 C75.4934389,15 74,13.8801656 74,12.5009765 C74,11.1198344 75.4934389,10 77.3342012,10 L80.6657988,10 C82.5065611,10 84,11.1198344 84,12.5009765 C84,13.8801656 82.5065611,15 80.6657988,15 Z" id="Fill-17" fill="#414F6C"></path>
            <path d="M151.165339,34 L71.8324479,34 C70.267474,34 69,35.256519 69,36.8079666 L69,92.9848541 C69,94.5363017 70.267474,95.7950151 71.8324479,95.7950151 L104.081094,95.7950151 L108.964609,105.477628 C109.988594,107.507457 113.009635,107.507457 114.033177,105.477628 L118.916693,95.7950151 L151.165339,95.7950151 C152.730312,95.7950151 154,94.5363017 154,92.9848541 L154,36.8079666 C154,35.256519 152.730312,34 151.165339,34 Z" id="Fill-18" fill="#F6E477"></path>
            <path d="M139.167527,51 L93.8324725,51 C92.267485,51 91,49.881728 91,48.5009765 C91,47.120225 92.267485,46 93.8324725,46 L139.167527,46 C140.730744,46 142,47.120225 142,48.5009765 C142,49.881728 140.730744,51 139.167527,51 Z" id="Fill-19" fill="#F6B864"></path>
            <path d="M139.182719,62 L82.8194828,62 C81.2624484,62 80,60.8801656 80,59.4990235 C80,58.1198344 81.2624484,57 82.8194828,57 L139.182719,57 C140.737552,57 142,58.1198344 142,59.4990235 C142,60.8801656 140.737552,62 139.182719,62 Z" id="Fill-20" fill="#F6B864"></path>
            <path d="M130.156609,74 L81.8433907,74 C80.2731534,74 79,72.881291 79,71.5 C79,70.118709 80.2731534,69 81.8433907,69 L130.156609,69 C131.726847,69 133,70.118709 133,71.5 C133,72.881291 131.726847,74 130.156609,74 Z" id="Fill-21" fill="#F6B864"></path>
            <path d="M120.134229,85 L82.8680104,85 C81.2841771,85 80,83.8801656 80,82.5009765 C80,81.1198344 81.2841771,80 82.8680104,80 L120.134229,80 C121.717615,80 123,81.1198344 123,82.5009765 C123,83.8801656 121.717615,85 120.134229,85 Z" id="Fill-22" fill="#F6B864"></path>
            <path d="M144.498893,77 C130.439683,77 119,88.4396826 119,102.498893 C119,116.560317 130.439683,128 144.498893,128 C158.560317,128 170,116.560317 170,102.498893 C170,88.4396826 158.560317,77 144.498893,77 Z" id="Fill-23" fill="#FB675F"></path>
            <path d="M153.543346,122.231757 C139.671082,122.231757 128.38529,110.588026 128.38529,96.2780436 C128.38529,89.1543696 131.181406,82.6944422 135.699217,78 C126.501996,81.8653221 120,91.1839115 120,102.044033 C120,116.356269 131.285791,128 145.155871,128 C152.123887,128 158.439387,125.060679 163,120.322077 C160.077225,121.549085 156.887154,122.231757 153.543346,122.231757 Z" id="Fill-24" fill="#FA544B"></path>
            <path d="M144.248926,114 C142.731818,114 141.5,112.712075 141.5,111.125866 L141.5,100.814383 L140.694399,101.656678 C139.620264,102.779737 137.879736,102.779737 136.805601,101.656678 C135.731466,100.533618 135.731466,98.7160587 136.805601,97.5929992 L142.305601,91.8424854 C143.092727,91.0195074 144.274275,90.773782 145.303297,91.219412 C146.33017,91.6632451 147,92.7126319 147,93.8743246 L147,111.125866 C147,112.712075 145.768182,114 144.248926,114 Z" id="Fill-25" fill="#F4F5F7"></path>
        </g>
    </g>
</svg>