<?xml version="1.0" encoding="UTF-8"?>
<svg width="250px" height="350px" viewBox="0 0 250 350" version="1.1" xmlns="http://www.w3.org/2000/svg" xmlns:xlink="http://www.w3.org/1999/xlink">
    <!-- Generator: Sketch 52.4 (67378) - http://www.bohemiancoding.com/sketch -->
    <title>participatory-design</title>
    <desc>Created with Sketch.</desc>
    <defs>
        <polygon id="path-1" points="0.0107066599 0.0281157324 50.0181246 0.0281157324 50.0181246 45.3726643 0.0107066599 45.3726643"></polygon>
        <polygon id="path-3" points="0.129428366 0 75.1139225 0 75.1139225 77.4660185 0.129428366 77.4660185"></polygon>
        <polygon id="path-5" points="0.129428366 0 75.1139225 0 75.1139225 78.5459685 0.129428366 78.5459685"></polygon>
        <polygon id="path-7" points="0.0105309346 0.0482875712 83.661957 0.0482875712 83.661957 61.1737285 0.0105309346 61.1737285"></polygon>
        <polygon id="path-9" points="0.0105249169 0.0724863281 61.381491 0.0724863281 61.381491 63.8496777 0.0105249169 63.8496777"></polygon>
        <polygon id="path-11" points="0.0202054399 0.0480727079 47.4418605 0.0480727079 47.4418605 86.9036119 0.0202054399 86.9036119"></polygon>
        <polygon id="path-13" points="0.0074025974 0.0460431655 37.9532403 0.0460431655 37.9532403 34.1333333 0.0074025974 34.1333333"></polygon>
    </defs>
    <g id="participatory-design" stroke="none" stroke-width="1" fill="none" fill-rule="evenodd">
        <g id="007-friend-1-copy" transform="translate(6.000000, 200.000000)">
            <path d="M76.5797895,45.4177215 C80.9305464,42.8158403 80.9305464,36.4956015 76.5797895,33.8930025 C79.9158468,30.0693137 77.9689189,24.0587885 73.0290566,22.9324431 C75.0233921,18.2619765 71.3204185,13.1486518 66.2757231,13.6085568 C66.7335186,8.54852574 61.6362276,4.83357762 56.9793792,6.83397571 C55.8564474,1.87981435 49.8641385,-0.0730321154 46.0520383,3.27244887 C43.457327,-1.09081629 37.1569587,-1.09081629 34.5622475,3.27244887 C30.7501472,-0.0737498757 24.7578383,1.87981435 23.6341909,6.83397571 C18.9778792,4.83357762 13.8807671,8.54852574 14.3385627,13.6085568 C9.2938672,13.1486518 5.59071475,18.2619765 7.58522908,22.9324431 C2.64590352,24.0587885 0.6984389,30.0693137 4.03449624,33.8930025 C-0.316260651,36.4956015 -0.316260651,42.8151225 4.03449624,45.4177215 L76.5797895,45.4177215 Z" id="Fill-1" fill="#3A484A"></path>
            <path d="M24.2303696,69.8734177 C24.2303696,69.8734177 13.8857143,77.7366741 13.8857143,92 L66.7285714,92 C66.7285714,77.7366741 56.3839162,69.8734177 56.3839162,69.8734177 L24.2303696,69.8734177 Z" id="Fill-3" fill="#FD6F71"></path>
            <path d="M29.7,69.8734177 L24.2001371,69.8734177 C24.2001371,69.8734177 13.8857143,77.7366741 13.8857143,92 L19.3855772,92 C19.3855772,77.7366741 29.7,69.8734177 29.7,69.8734177 Z" id="Fill-4" fill="#E34B4C"></path>
            <g id="Group-8" transform="translate(0.000000, 36.101266)">
                <mask id="mask-2" fill="white">
                    <use xlink:href="#path-1"></use>
                </mask>
                <g id="Clip-6"></g>
                <path d="M50.0181246,35.6325455 C50.0181246,41.0120223 45.6999502,45.3726643 40.3737438,45.3726643 C35.0475374,45.3726643 30.729363,41.0120223 30.729363,35.6325455 C30.729363,30.2530687 35.0475374,25.8917058 40.3737438,25.8917058 C45.6999502,25.8917058 50.0181246,30.2530687 50.0181246,35.6325455 Z" id="Fill-5" fill="#E3B098" mask="url(#mask-2)"></path>
                <path d="M0,7.77165702 C0,12.0486727 3.43291205,15.5159192 7.66757448,15.5159192 C11.9020585,15.5159192 11.6581251,12.0486727 11.6581251,7.77165702 C11.6581251,3.49482158 11.8749349,0.0281157324 7.6402725,0.0281157324 C3.40578851,0.0281157324 0,3.49482158 0,7.77165702 Z" id="Fill-7" fill="#E3B098" mask="url(#mask-2)"></path>
            </g>
            <path d="M81,43.8646175 C81,48.1525751 77.5461745,51.628692 73.2857143,51.628692 C69.0254336,51.628692 65.5714286,48.1525751 65.5714286,43.8646175 C65.5714286,39.5768406 69.0527224,36.1012658 73.3130031,36.1012658 C77.5734633,36.1012658 81,39.5768406 81,43.8646175 Z" id="Fill-9" fill="#E3B098"></path>
            <path d="M73.2857143,39.6284224 C73.2828511,36.7336402 72.7166647,33.8642193 71.6422704,31.1780831 C68.7644542,23.9833966 60.8027704,12.6616579 40.3071429,21.4434923 C19.8115154,12.6616579 11.8498315,23.9833966 8.97129951,31.1780831 C7.89762102,33.8642193 7.33143457,36.7336402 7.32857143,39.6284224 L7.32857143,39.662777 C7.32857143,58.9206147 22.0937979,74.5316456 40.3071429,74.5316456 C58.5204878,74.5316456 73.2857143,58.9206147 73.2857143,39.662777 L73.2857143,39.6284224 Z" id="Fill-10" fill="#FBC4AC"></path>
            <path d="M12.8788321,39.6611312 L12.8788321,39.6267749 C12.8817055,36.7318561 13.4499131,33.8622998 14.5274244,31.1760368 C16.481132,26.3096809 20.7701657,19.5573287 29.7045302,18.4118805 C16.915369,16.9503908 11.2983026,25.3948333 8.97716371,31.1760368 C7.89965242,33.8622998 7.33144479,36.7318561 7.32857143,39.6267749 L7.32857143,39.6611312 C7.32857143,58.9198778 22.1465068,74.5316456 40.4248697,74.5316456 C41.3599699,74.5316456 42.2844746,74.4888352 43.2,74.4087905 C26.2200382,72.9226578 12.8788321,57.9346989 12.8788321,39.6611312 Z" id="Fill-11" fill="#E3B098"></path>
            <path d="M57.2784841,45.0295359 C56.533289,45.0295359 55.9285714,44.39231 55.9285714,43.6059619 L55.9285714,40.2426924 C55.9285714,39.4565286 56.533289,38.8185654 57.2784841,38.8185654 C58.0245528,38.8185654 58.6285714,39.4565286 58.6285714,40.2426924 L58.6285714,43.6059619 C58.6285714,44.39231 58.0245528,45.0295359 57.2784841,45.0295359 Z" id="Fill-12" fill="#3A484A"></path>
            <path d="M59.5377339,49.6877637 L55.0192271,49.6877637 C54.242927,49.6877637 53.6142857,49.0793474 53.6142857,48.3292018 C53.6142857,47.5783529 54.242927,46.9704641 55.0192271,46.9704641 L59.5377339,46.9704641 C60.3134885,46.9704641 60.9428571,47.5783529 60.9428571,48.3292018 C60.9428571,49.0793474 60.3134885,49.6877637 59.5377339,49.6877637 Z" id="Fill-13" fill="#F98084"></path>
            <path d="M23.7215159,45.0295359 C22.9754472,45.0295359 22.3714286,44.39231 22.3714286,43.6059619 L22.3714286,40.2426924 C22.3714286,39.4565286 22.9754472,38.8185654 23.7215159,38.8185654 C24.466711,38.8185654 25.0714286,39.4565286 25.0714286,40.2426924 L25.0714286,43.6059619 C25.0714286,44.39231 24.466711,45.0295359 23.7215159,45.0295359 Z" id="Fill-14" fill="#3A484A"></path>
            <path d="M25.9805911,49.6877637 L21.4622661,49.6877637 C20.6857841,49.6877637 20.0571429,49.0793474 20.0571429,48.3292018 C20.0571429,47.5783529 20.6857841,46.9704641 21.4622661,46.9704641 L25.9805911,46.9704641 C26.757073,46.9704641 27.3857143,47.5783529 27.3857143,48.3292018 C27.3857143,49.0793474 26.757073,49.6877637 25.9805911,49.6877637 Z" id="Fill-15" fill="#F98084"></path>
            <path d="M40.3071429,49.6877637 C38.7197963,49.6877637 37.2287404,49.0031555 36.2169654,47.8090107 C35.7087249,47.2096986 35.768092,46.2983186 36.3492744,45.7740372 C36.9311808,45.2499424 37.8140857,45.3111614 38.3225072,45.9112201 C38.8032361,46.4784296 39.5265014,46.8035625 40.3071429,46.8035625 C41.0876033,46.8035625 41.8103256,46.4784296 42.2917785,45.9104735 C42.800019,45.3111614 43.6831049,45.2499424 44.2650113,45.7740372 C44.8461937,46.2983186 44.9055608,47.208952 44.3973203,47.8090107 C43.3855453,49.0031555 41.8943084,49.6877637 40.3071429,49.6877637 Z" id="Fill-16" fill="#3A484A"></path>
        </g>
        <g id="friend-copy" transform="translate(125.000000, 39.000000)">
            <path d="M77.51192,49.4415403 C77.51192,64.0918335 77.6401641,77.5042373 63.6846387,77.5042373 L57.2659375,77.5042373 L51.5454545,64.57146 L70.0701515,46.6567797 L77.51192,49.4415403 Z" id="Fill-1" fill="#E0824A"></path>
            <path d="M3.48808005,49.4415403 C3.48808005,64.0918335 3.35983856,77.5042373 17.3150732,77.5042373 L23.734362,77.5042373 L29.4545455,64.57146 L10.9295131,46.6567797 L3.48808005,49.4415403 Z" id="Fill-2" fill="#E0824A"></path>
            <g id="Group-7" transform="translate(2.712919, 0.000000)">
                <mask id="mask-4" fill="white">
                    <use xlink:href="#path-3"></use>
                </mask>
                <g id="Clip-4"></g>
                <path d="M8.09634402,49.5191637 L10.1738215,48.7394995 L8.11997409,46.7458986 L0.734322488,49.5191637 C0.734322488,64.1089809 0.60704231,77.4660185 14.4576677,77.4660185 L20.8288372,77.4660185 L20.8406522,77.4404207 C7.97873069,76.8154095 8.09634402,63.7554122 8.09634402,49.5191637 Z" id="Fill-3" fill="#CC7643" mask="url(#mask-4)"></path>
                <path d="M0.129428366,38.7528297 C0.129428366,28.3960593 4.0013594,18.6490127 11.0311278,11.3060195 C18.1197923,3.90098736 27.5635876,-0.177762012 37.621944,-0.177762012 C47.6797632,-0.177762012 57.1228425,3.90098736 64.211328,11.3060195 C71.2419915,18.6490127 75.1139225,28.3960593 75.1139225,38.7528297 L0.129428366,38.7528297 Z" id="Fill-5" fill="#E0824A" mask="url(#mask-4)"></path>
                <path d="M42.223185,0.111812306 C40.707817,-0.0798151434 39.171504,-0.177762012 37.621944,-0.177762012 C27.5635876,-0.177762012 18.1197923,3.90098736 11.0311278,11.3060195 C4.0013594,18.6490127 0.129428366,28.3960593 0.129428366,38.7528297 L9.33262659,38.7528297 C9.33262659,28.3960593 13.2038416,18.6490127 20.2336099,11.3060195 C26.2306366,5.042575 33.9109481,1.16025265 42.223185,0.111812306 Z" id="Fill-6" fill="#CC7643" mask="url(#mask-4)"></path>
            </g>
            <path d="M81,43.1864407 C81,47.4456387 77.5297245,50.8983051 73.2495255,50.8983051 C68.9687853,50.8983051 65.4976077,47.4456387 65.4976077,43.1864407 C65.4976077,38.9272426 68.9687853,35.4745763 73.2495255,35.4745763 C77.5297245,35.4745763 81,38.9272426 81,43.1864407 Z" id="Fill-8" fill="#E3B098"></path>
            <path d="M0,43.1864407 C0,47.4456387 3.42097568,50.8983051 7.64068293,50.8983051 C11.8612794,50.8983051 11.6243811,47.4456387 11.6243811,43.1864407 C11.6243811,38.9272426 11.8612794,35.4745763 7.64068293,35.4745763 C3.42097568,35.4745763 0,38.9272426 0,43.1864407 Z" id="Fill-9" fill="#E3B098"></path>
            <path d="M24.3459427,69.0211864 C24.3459427,69.0211864 13.9521531,76.8323462 13.9521531,91 L67.0478469,91 C67.0478469,76.8323462 56.6540573,69.0211864 56.6540573,69.0211864 L24.3459427,69.0211864 Z" id="Fill-10" fill="#FADC60"></path>
            <path d="M29.8421053,69.0211864 L24.322417,69.0211864 C24.322417,69.0211864 13.9521531,76.8323462 13.9521531,91 L19.4716625,91 C19.4716625,76.8323462 29.8421053,69.0211864 29.8421053,69.0211864 Z" id="Fill-11" fill="#F2C42C"></path>
            <path d="M49.9952153,70.5639161 C49.9952153,75.8877028 45.6569797,80.2033898 40.3065787,80.2033898 C34.9554605,80.2033898 30.6172249,75.8877028 30.6172249,70.5639161 C30.6172249,65.239951 34.9554605,60.9237288 40.3065787,60.9237288 C45.6569797,60.9237288 49.9952153,65.239951 49.9952153,70.5639161 Z" id="Fill-12" fill="#E3B098"></path>
            <path d="M29.6135549,16.0612397 C29.1978875,15.6747372 28.536574,15.7415908 28.2056491,16.2026126 C22.6829037,23.8857751 7.59819795,35.2947286 7.5186401,35.3553425 C7.41727087,36.4585146 7.36363636,37.5761271 7.36363636,38.7078234 C7.36363636,57.7917388 22.1131264,73.2627119 40.3068458,73.2627119 C58.500744,73.2627119 73.2488038,57.7917388 73.2488038,38.7078234 C73.2488038,37.5768402 73.1957057,36.4592277 73.0945152,35.3560556 C46.4036593,30.3211836 32.8419948,19.0660824 29.6135549,16.0612397 Z" id="Fill-13" fill="#FBC4AC"></path>
            <path d="M12.871693,38.8523094 C12.871693,38.1872798 12.8899062,34.4286018 12.9254398,31.2330508 C9.82705744,33.7726262 7.54916075,35.4902348 7.51844834,35.5138464 C7.41720452,36.6124058 7.36363636,37.7260553 7.36363636,38.8523094 C7.36363636,57.8564283 22.0948801,73.2627119 40.2660925,73.2627119 C41.1931788,73.2627119 42.1109799,73.2204596 43.0191388,73.1412809 C26.1367763,71.6773635 12.871693,56.8862235 12.871693,38.8523094 Z" id="Fill-14" fill="#E3B098"></path>
            <path d="M57.1650718,44.3432203 C56.4160374,44.3432203 55.8086124,43.7103251 55.8086124,42.9298826 L55.8086124,39.5863334 C55.8086124,38.8066241 56.4160374,38.1737288 57.1650718,38.1737288 C57.9141061,38.1737288 58.5215311,38.8066241 58.5215311,39.5863334 L58.5215311,42.9298826 C58.5215311,43.7103251 57.9141061,44.3432203 57.1650718,44.3432203 Z" id="Fill-15" fill="#3A484A"></path>
            <path d="M59.4360109,48.970339 L54.8934011,48.970339 C54.1139887,48.970339 53.4832536,48.3659962 53.4832536,47.6207627 C53.4832536,46.8748291 54.1139887,46.2711864 54.8934011,46.2711864 L59.4360109,46.2711864 C60.2146918,46.2711864 60.84689,46.8748291 60.84689,47.6207627 C60.84689,48.3659962 60.2146918,48.970339 59.4360109,48.970339 Z" id="Fill-16" fill="#F98084"></path>
            <path d="M23.4474564,44.3432203 C22.6983735,44.3432203 22.0909091,43.7103251 22.0909091,42.9298826 L22.0909091,39.5863334 C22.0909091,38.8066241 22.6983735,38.1737288 23.4474564,38.1737288 C24.1970671,38.1737288 24.8038278,38.8066241 24.8038278,39.5863334 L24.8038278,42.9298826 C24.8038278,43.7103251 24.1970671,44.3432203 23.4474564,44.3432203 Z" id="Fill-17" fill="#3A484A"></path>
            <path d="M25.7184554,48.970339 L21.1757328,48.970339 C20.3970326,48.970339 19.7655502,48.3659962 19.7655502,47.6207627 C19.7655502,46.8748291 20.3970326,46.2711864 21.1757328,46.2711864 L25.7184554,46.2711864 C26.4977043,46.2711864 27.1291866,46.8748291 27.1291866,47.6207627 C27.1291866,48.3659962 26.4977043,48.970339 25.7184554,48.970339 Z" id="Fill-18" fill="#F98084"></path>
            <path d="M40.500435,48.970339 C38.9052724,48.970339 37.4065658,48.2894227 36.3899567,47.103017 C35.8796503,46.5069368 35.9393438,45.6034419 36.5229931,45.0827303 C37.1066424,44.5620187 37.993127,44.6230932 38.5028874,45.2184309 C38.9869869,45.7833241 39.7149562,46.1067036 40.500435,46.1067036 C41.2853678,46.1067036 42.013337,45.7833241 42.4967086,45.2184309 C43.007197,44.6230932 43.8929535,44.5620187 44.4773308,45.0827303 C45.0609801,45.6034419 45.1199457,46.5069368 44.6101852,47.103017 C43.5928482,48.2894227 42.0950515,48.970339 40.500435,48.970339 Z" id="Fill-19" fill="#3A484A"></path>
        </g>
        <g id="006-friend-copy" transform="translate(159.000000, 246.000000)">
            <path d="M4.88109411,50.358883 C3.03778245,59.5803901 5.50985234,64.9815866 9.75838264,66.0777796 C16.8829426,67.915857 11.2988136,75.5534376 16.8829426,78.6610169 L27.9043062,68.6809922 L12.6907456,46.2711864 L4.88109411,50.358883 Z" id="Fill-1" fill="#FADC60"></path>
            <path d="M16.8677714,66.0777796 C12.5643912,64.9815866 10.060406,59.5803901 11.9282377,50.358883 L14.3589109,49.1020795 L12.4119888,46.2711864 L4.50151206,50.358883 C2.63440263,59.5803901 5.13838778,64.9815866 9.44176804,66.0777796 C16.6583085,67.915857 11.0020865,75.5534376 16.6583085,78.6610169 L21.3157895,74.4978443 C20.7556566,71.1611535 21.7143108,67.3122264 16.8677714,66.0777796 Z" id="Fill-2" fill="#F2C42C"></path>
            <g id="Group-7" transform="translate(2.712919, 0.000000)">
                <mask id="mask-6" fill="white">
                    <use xlink:href="#path-5"></use>
                </mask>
                <g id="Clip-4"></g>
                <path d="M73.2566344,50.3203979 C75.108194,59.5169588 72.625783,64.9028305 68.3594803,65.9967716 C61.205117,67.8298765 66.8120684,75.4467958 61.205117,78.5459685 L50.1376491,68.5929419 L65.4141347,46.2437595 L73.2566344,50.3203979 Z" id="Fill-3" fill="#FADC60" mask="url(#mask-6)"></path>
                <path d="M0.129428366,38.8852978 C0.129428366,28.4931251 4.0013594,18.7127603 11.0311278,11.3446667 C18.1197923,3.91432203 27.5635876,-0.178369653 37.621944,-0.178369653 C47.6797632,-0.178369653 57.1228425,3.91432203 64.211328,11.3446667 C71.2419915,18.7127603 75.1139225,28.4931251 75.1139225,38.8852978 L0.129428366,38.8852978 Z" id="Fill-5" fill="#FADC60" mask="url(#mask-6)"></path>
                <path d="M42.223185,0.112194512 C40.707817,-0.0800879742 39.171504,-0.178369653 37.621944,-0.178369653 C27.5635876,-0.178369653 18.1197923,3.91432203 11.0311278,11.3446667 C4.0013594,18.7127603 0.129428366,28.4931251 0.129428366,38.8852978 L10.2003158,33.3189161 C10.2003158,22.9274568 13.2038416,18.7127603 20.2336099,11.3446667 C26.2306366,5.05981195 33.9109481,1.16421872 42.223185,0.112194512 Z" id="Fill-6" fill="#F2C42C" mask="url(#mask-6)"></path>
            </g>
            <path d="M0,43.1864407 C0,47.4456387 3.42097568,50.8983051 7.64068293,50.8983051 C11.8612794,50.8983051 11.6243811,47.4456387 11.6243811,43.1864407 C11.6243811,38.9272426 11.8340681,35.4745763 7.61436089,35.4745763 C3.39376438,35.4745763 0,38.9272426 0,43.1864407 Z" id="Fill-8" fill="#D9A891"></path>
            <path d="M81,43.1864407 C81,47.4456387 77.5304462,50.8983051 73.2495255,50.8983051 C68.9687853,50.8983051 65.4976077,47.4456387 65.4976077,43.1864407 C65.4976077,38.9272426 68.9962098,35.4745763 73.2762283,35.4745763 C77.5578706,35.4745763 81,38.9272426 81,43.1864407 Z" id="Fill-9" fill="#D9A891"></path>
            <path d="M24.3459427,69.0211864 C24.3459427,69.0211864 13.9521531,76.8323462 13.9521531,91 L67.0478469,91 C67.0478469,76.8323462 56.6540573,69.0211864 56.6540573,69.0211864 L24.3459427,69.0211864 Z" id="Fill-10" fill="#E0824A"></path>
            <path d="M73.1000575,35.346186 L73.0964818,35.350287 C73.0964818,35.350287 67.8183098,34.7602707 63.5289793,29.2600494 C59.2396488,23.7603629 59.2975741,21.5600604 51.3180106,19.5437702 C45.1291246,17.9793088 42.4005583,14.9919613 41.2084419,12.8654776 C40.815301,12.1634849 39.7971392,12.1634849 39.4031044,12.8654776 C38.2124182,14.9919613 35.4833156,17.9793088 29.2942508,19.5437702 C21.3148661,21.5600604 21.3727914,23.7603629 17.084176,29.2600494 C12.7946668,34.7602707 7.51649471,35.350287 7.51649471,35.350287 L7.51238274,35.3474341 C7.41530427,36.4292198 7.36363636,37.5247351 7.36363636,38.6336234 L7.36363636,38.7019148 C7.36363636,57.7890933 22.1124113,73.2627119 40.3061307,73.2627119 C58.5000289,73.2627119 73.2488038,57.7890933 73.2488038,38.7019148 L73.2488038,38.6336234 C73.2488038,37.5247351 73.197851,36.4285066 73.1000575,35.346186 Z" id="Fill-15" fill="#E3B098"></path>
            <path d="M12.871693,38.7227818 L12.871693,38.6545316 C12.871693,38.0648716 12.8856208,35.549951 12.9141905,33.1610169 C9.98401215,35.0960784 7.51701986,35.3731777 7.51701986,35.3731777 L7.51273441,35.3703265 C7.41524036,36.451459 7.36363636,37.5463129 7.36363636,38.6545316 L7.36363636,38.7227818 C7.36363636,57.798436 22.0948801,73.2627119 40.2660925,73.2627119 C41.1931788,73.2627119 42.1109799,73.2203005 43.0191388,73.1408238 C26.1367763,71.671396 12.871693,56.8245791 12.871693,38.7227818 Z" id="Fill-16" fill="#D9A891"></path>
            <path d="M57.1650718,44.3432203 C56.4160374,44.3432203 55.8086124,43.7103251 55.8086124,42.9298826 L55.8086124,39.5863334 C55.8086124,38.8066241 56.4160374,38.1737288 57.1650718,38.1737288 C57.9148098,38.1737288 58.5215311,38.8066241 58.5215311,39.5863334 L58.5215311,42.9298826 C58.5215311,43.7103251 57.9141061,44.3432203 57.1650718,44.3432203 Z" id="Fill-17" fill="#3A484A"></path>
            <path d="M59.4360109,48.970339 L54.8934011,48.970339 C54.1139887,48.970339 53.4832536,48.3659962 53.4832536,47.6207627 C53.4832536,46.8748291 54.1139887,46.2711864 54.8934011,46.2711864 L59.4360109,46.2711864 C60.2154233,46.2711864 60.84689,46.8748291 60.84689,47.6207627 C60.84689,48.3659962 60.2146918,48.970339 59.4360109,48.970339 Z" id="Fill-18" fill="#F98084"></path>
            <path d="M23.4474564,44.3432203 C22.6976698,44.3432203 22.0909091,43.7103251 22.0909091,42.9298826 L22.0909091,39.5863334 C22.0909091,38.8066241 22.6976698,38.1737288 23.4474564,38.1737288 C24.1970671,38.1737288 24.8038278,38.8066241 24.8038278,39.5863334 L24.8038278,42.9298826 C24.8038278,43.7103251 24.1970671,44.3432203 23.4474564,44.3432203 Z" id="Fill-19" fill="#3A484A"></path>
            <path d="M25.7184554,48.970339 L21.1757328,48.970339 C20.3970326,48.970339 19.7655502,48.3659962 19.7655502,47.6207627 C19.7655502,46.8748291 20.3970326,46.2711864 21.1757328,46.2711864 L25.7184554,46.2711864 C26.4977043,46.2711864 27.1291866,46.8748291 27.1291866,47.6207627 C27.1291866,48.3659962 26.4977043,48.970339 25.7184554,48.970339 Z" id="Fill-20" fill="#F98084"></path>
            <path d="M40.50016,48.970339 C38.9057571,48.970339 37.4070804,48.2894114 36.3904916,47.1029861 C35.8794674,46.5076385 35.9391596,45.603386 36.5235253,45.0826658 C37.1064351,44.5619455 37.9929019,44.6230211 38.5033802,45.2191112 C38.9874701,45.7832712 39.7154248,46.1066561 40.50016,46.1066561 C41.2858051,46.1066561 42.0137598,45.7832712 42.4971218,45.2191112 C43.0076,44.6230211 43.8933389,44.5619455 44.4777046,45.0826658 C45.0606143,45.603386 45.1203066,46.5076385 44.6098284,47.1029861 C43.5932396,48.2894114 42.0954728,48.970339 40.50016,48.970339 Z" id="Fill-21" fill="#3A484A"></path>
        </g>
        <g id="003-sketch-copy" transform="translate(97.000000, 144.000000)">
            <g id="Group-3" transform="translate(0.000000, 18.078125)">
                <mask id="mask-8" fill="white">
                    <use xlink:href="#path-7"></use>
                </mask>
                <g id="Clip-2"></g>
                <path d="M82.3429574,0.0482875712 L0.00611874704,0.0482875712 C0.00611874704,0.0482875712 0.0768758227,48.757547 0.00649407635,51.4529348 C0.00596752962,51.4761198 0.00596752962,51.4991305 0.00666959193,51.5221412 C0.0774023695,54.1155499 1.14716981,56.5423054 3.01886792,58.3557913 C4.8946029,60.172938 7.37095217,61.1737285 9.99175077,61.1737285 L53.4813515,61.1737285 C53.8309785,61.1737285 54.1665643,61.0358387 54.4140412,60.7902171 L83.2758227,32.1244834 C83.5229487,31.8786875 83.661957,31.5457299 83.661957,31.1981291 L83.661957,1.35832764 C83.661957,0.63471136 83.0713471,0.0482875712 82.3429574,0.0482875712" id="Fill-1" fill="#D3D1CD" mask="url(#mask-8)"></path>
            </g>
            <polyline id="Fill-4" fill="#B7B6B6" points="23.7209302 52.1484375 29.1212223 52.1484375 33.4514096 38.7508163 54.4186047 18.078125 49.4848677 18.078125 28.5176727 38.7508163 23.7209302 52.1484375"></polyline>
            <path d="M82.4328764,18.078125 L78.1395349,18.078125 L78.1395349,55.625 L83.3438552,50.3068504 C83.5851832,50.0598857 83.7209302,49.7253448 83.7209302,49.3760911 L83.7209302,19.3943946 C83.7209302,18.6673374 83.1441769,18.078125 82.4328764,18.078125" id="Fill-5" fill="#B7B6B6"></path>
            <g id="Group-9" transform="translate(0.000000, 3.476562)">
                <mask id="mask-10" fill="white">
                    <use xlink:href="#path-9"></use>
                </mask>
                <g id="Clip-7"></g>
                <path d="M60.0632452,49.5286738 L23.5568691,49.5286738 C22.8288957,49.5286738 22.2386233,48.943916 22.2386233,48.2223555 C22.2386233,47.5007949 22.8288957,46.9160371 23.5568691,46.9160371 L60.0632452,46.9160371 C60.791394,46.9160371 61.381491,47.5007949 61.381491,48.2223555 C61.381491,48.9437422 60.7912186,49.5286738 60.0632452,49.5286738" id="Fill-6" fill="#32494D" mask="url(#mask-10)"></path>
                <path d="M10.0176159,55.2057266 C10.5863123,55.2057266 11.1430804,55.2545723 11.6861661,55.3439199 L11.6861661,1.37880469 C11.6861661,0.657244141 11.0958937,0.0724863281 10.3679203,0.0724863281 C4.65113621,0.0724863281 0,4.68136523 0,10.3467715 L0,63.8496777 C0.679032558,58.9671934 4.90390963,55.2057266 10.0176159,55.2057266" id="Fill-8" fill="#828886" mask="url(#mask-10)"></path>
            </g>
            <path d="M71.4773117,17.2797553 L63.6217314,9.42209141 C63.3763043,9.1767788 63.0434983,9.0390625 62.6967673,9.0390625 C62.3498622,9.0390625 62.0172302,9.1767788 61.7716291,9.42209141 L32.8399571,38.3607959 C32.822551,38.3783804 32.8068854,38.3970095 32.7906977,38.4152905 L42.6375443,47.9765625 L71.4773117,19.1301332 C71.9881829,18.6189637 71.9881829,17.7907507 71.4773117,17.2797553" id="Fill-10" fill="#F5BC42"></path>
            <path d="M39.0697674,44.4809014 L42.6606097,47.9765625 L71.4776141,19.078318 C71.9880821,18.5662304 71.9880821,17.7365297 71.4776141,17.2246165 L68.8619658,14.6015625 L39.0697674,44.4809014" id="Fill-11" fill="#EB8C3A"></path>
            <path d="M32.5929776,38.2421875 C32.4756574,38.3721338 32.3821541,38.5246254 32.3221708,38.6954019 L27.9825576,51.0656869 C27.8126638,51.5501452 27.9343946,52.0896354 28.2953527,52.4530235 C28.548341,52.7075904 28.8870701,52.84375 29.232856,52.84375 C29.3808735,52.84375 29.5297732,52.8187194 29.6740858,52.7675929 L41.9674807,48.4008999 C42.2040618,48.3169319 42.4058879,48.1671031 42.5581395,47.9764442 L32.5929776,38.2421875" id="Fill-12" fill="#F2B393"></path>
            <path d="M29.232856,52.84375 C29.3808735,52.84375 29.5297732,52.8189399 29.6740858,52.768264 L41.9674807,48.4400504 C42.2040618,48.3568223 42.4058879,48.2083138 42.5581395,48.0193349 L38.9231533,44.5 L29.066667,48.0182792 L27.9825576,51.0811792 C27.8126638,51.5613685 27.9343946,52.0961047 28.2953527,52.4562906 C28.548341,52.7086143 28.8870701,52.84375 29.232856,52.84375" id="Fill-13" fill="#ED9B78"></path>
            <path d="M29.2671949,52.1484375 C29.4190662,52.1484375 29.5718425,52.1247293 29.7199125,52.0763039 L37.6744186,49.4678926 L30.779391,43.109375 L27.9845254,50.4641433 C27.8102083,50.9230071 27.9351084,51.4339954 28.3054643,51.7781853 C28.5648583,52.0193032 28.9124063,52.1484375 29.2671949,52.1484375" id="Fill-14" fill="#32494D"></path>
            <path d="M33.8628646,45.890625 L29.0968381,47.4909986 L27.984524,50.4473505 C27.8102101,50.9108356 27.9351079,51.4269701 28.3054569,51.7746264 C28.5650271,52.0181726 28.9125687,52.1484375 29.2673507,52.1484375 C29.4192192,52.1484375 29.5719927,52.1244905 29.7200599,52.0755774 L37.6744186,49.4408967 L33.8628646,45.890625" id="Fill-15" fill="#28373B"></path>
            <path d="M76.3590207,12.4282914 L68.4575297,4.55559316 C67.9435091,4.04396895 67.1106767,4.04396895 66.5968311,4.55559316 L61.3953488,9.73812143 L71.1535117,19.46875 L76.3590207,14.2822097 C76.6055265,14.0364277 76.744186,13.7030783 76.744186,13.3552506 C76.744186,13.0075973 76.6055265,12.6742479 76.3590207,12.4282914" id="Fill-16" fill="#DF5045"></path>
            <path d="M67.6744186,15.8918996 L68.8994158,17.1333856 L71.2050683,19.46875 L76.3625129,14.2448439 C76.6067837,13.9972496 76.744186,13.6614422 76.744186,13.3110496 C76.744186,12.9608329 76.6067837,12.6250254 76.3625129,12.3772554 L73.7532568,9.734375 L67.6744186,15.8918996" id="Fill-17" fill="#DD443D"></path>
            <path d="M79.0634183,5.22685533 L74.9940799,1.16654579 C74.2401502,0.414288916 73.237408,0 72.1710689,0 C71.1047297,0 70.1019876,0.414288916 69.3478836,1.16654579 L64.8837209,5.62080358 L74.6172021,15.296875 L79.0634183,10.8603501 C79.817348,10.1079194 80.2325581,9.10740207 80.2325581,8.04342886 C80.2325581,6.97945565 79.817348,5.97911221 79.0634183,5.22685533" id="Fill-18" fill="#40666D"></path>
            <polyline id="Fill-19" fill="#3B5559" points="65.5967997 5.5625 65.5813953 5.57782553 68.372093 8.34375 65.5967997 5.5625"></polyline>
            <g id="Group-24" transform="translate(42.558140, 2.085937)">
                <mask id="mask-12" fill="white">
                    <use xlink:href="#path-11"></use>
                </mask>
                <g id="Clip-21"></g>
                <path d="M37.0386132,3.2581452 L33.8122166,0.0480727079 C34.3398541,0.745649502 34.629407,1.59110213 34.629407,2.48288569 C34.629407,3.56068974 34.2124088,4.57404849 33.4547396,5.33641893 L29.0055333,9.81240606 L32.5715507,13.3473177 L37.0387883,8.90250814 C37.7962825,8.14867234 38.2134558,7.14628671 38.2134558,6.08032667 C38.2134558,5.01436662 37.7961074,4.01180682 37.0386132,3.2581452" id="Fill-20" fill="#3B5559" mask="url(#mask-12)"></path>
                <path d="M22.2385034,76.3260486 L36.6156629,62.0216312 L36.6156629,76.3260486 L22.2385034,76.3260486 Z M46.6297468,39.8320704 C46.1379971,39.629329 45.5723711,39.7413244 45.1959873,40.1158039 L0.405619154,84.6795525 C0.0294104522,85.0540319 -0.0833296147,85.6167961 0.120442804,86.1060578 C0.324040161,86.5951454 0.803710632,86.9140625 1.33572471,86.9140625 L46.1262679,86.9140625 C46.8527761,86.9140625 47.4418605,86.3281328 47.4418605,85.6051263 L47.4418605,41.0413777 C47.4418605,40.5120554 47.1211465,40.0346376 46.6297468,39.8320704 Z" id="Fill-22" fill="#F4B537" mask="url(#mask-12)"></path>
                <path d="M46.6297468,39.8320704 C46.1379971,39.629329 45.5723711,39.7413244 45.1959873,40.1158039 L41.7409594,43.5531767 L41.7409594,86.9140625 L46.1260929,86.9140625 C46.852601,86.9140625 47.4416854,86.3281328 47.4416854,85.6051263 L47.4416854,41.0413777 C47.4418605,40.5120554 47.1211465,40.0346376 46.6297468,39.8320704" id="Fill-23" fill="#EB8C3A" mask="url(#mask-12)"></path>
            </g>
            <path d="M90,57.7109375 L85.0169617,57.7109375 C84.3009108,57.7109375 83.7209302,58.3332905 83.7209302,59.10147 C83.7209302,59.8696494 84.3009108,60.4921875 85.0169617,60.4921875 L90,60.4921875 L90,57.7109375" id="Fill-25" fill="#C86031"></path>
            <path d="M90,64.6640625 L85.0169617,64.6640625 C84.3009108,64.6640625 83.7209302,65.2866006 83.7209302,66.05478 C83.7209302,66.8229595 84.3009108,67.4453125 85.0169617,67.4453125 L90,67.4453125 L90,64.6640625" id="Fill-26" fill="#C86031"></path>
            <path d="M90,70.921875 L85.0169617,70.921875 C84.3009108,70.921875 83.7209302,71.544228 83.7209302,72.3124075 C83.7209302,73.0805869 84.3009108,73.703125 85.0169617,73.703125 L90,73.703125 L90,70.921875" id="Fill-27" fill="#C86031"></path>
            <path d="M90,77.875 L85.0169617,77.875 C84.3009108,77.875 83.7209302,78.4976817 83.7209302,79.265625 C83.7209302,80.0337533 84.3009108,80.65625 85.0169617,80.65625 L90,80.65625 L90,77.875" id="Fill-28" fill="#C86031"></path>
        </g>
        <g id="005-pencil-copy" transform="translate(49.000000, 112.000000)">
            <path d="M32.7222222,34.1333333 L32.7222222,0.95662551 C32.7222222,0.428522735 32.2918077,0 31.7601117,0 L21.017539,0 C20.4859701,0 20.0555556,0.428522735 20.0555556,0.95662551 L20.0555556,34.1333333 L32.7222222,34.1333333 Z" id="Fill-1" fill="#F9E075"></path>
            <path d="M29.2785789,0.95662551 L29.2785789,34.1333333 L31.6666667,34.1333333 L31.6666667,0.95662551 C31.6666667,0.428522735 31.3183117,0 30.8879849,0 L28.5,0 C28.930224,0 29.2785789,0.428522735 29.2785789,0.95662551 Z" id="Fill-2" fill="#F9CD45"></path>
            <path d="M31.6666667,4.26666667 L27.296417,4.26666667 C26.7950838,4.26666667 26.3888889,4.74432486 26.3888889,5.33368548 C26.3888889,5.92234181 26.7950838,6.4 27.296417,6.4 L31.6666667,6.4 L31.6666667,4.26666667 Z" id="Fill-3" fill="#F9CD45"></path>
            <path d="M31.6666667,9.6 L27.296417,9.6 C26.7950838,9.6 26.3888889,10.0776582 26.3888889,10.6664554 C26.3888889,11.2556751 26.7950838,11.7333333 27.296417,11.7333333 L31.6666667,11.7333333 L31.6666667,9.6 Z" id="Fill-4" fill="#F9CD45"></path>
            <path d="M31.6666667,14.9333333 L27.296417,14.9333333 C26.7950838,14.9333333 26.3888889,15.4109915 26.3888889,16.0003522 C26.3888889,16.5890085 26.7950838,17.0666667 27.296417,17.0666667 L31.6666667,17.0666667 L31.6666667,14.9333333 Z" id="Fill-5" fill="#F9CD45"></path>
            <path d="M31.6666667,19.2 L27.296417,19.2 C26.7950838,19.2 26.3888889,19.6772208 26.3888889,20.2667371 C26.3888889,20.855549 26.7950838,21.3333333 27.296417,21.3333333 L31.6666667,21.3333333 L31.6666667,19.2 Z" id="Fill-6" fill="#F9CD45"></path>
            <path d="M31.6666667,24.5333333 L27.296417,24.5333333 C26.7950838,24.5333333 26.3888889,25.0109915 26.3888889,25.6002113 C26.3888889,26.1890085 26.7950838,26.6666667 27.296417,26.6666667 L31.6666667,26.6666667 L31.6666667,24.5333333 Z" id="Fill-7" fill="#F9CD45"></path>
            <polygon id="Fill-8" fill="#F8B53C" points="29.5555556 6.4 32.7222222 6.4 32.7222222 4.26666667 29.5555556 4.26666667"></polygon>
            <polygon id="Fill-9" fill="#F8B53C" points="29.5555556 11.7333333 32.7222222 11.7333333 32.7222222 9.6 29.5555556 9.6"></polygon>
            <polygon id="Fill-10" fill="#F8B53C" points="29.5555556 17.0666667 32.7222222 17.0666667 32.7222222 14.9333333 29.5555556 14.9333333"></polygon>
            <polygon id="Fill-11" fill="#F8B53C" points="29.5555556 21.3333333 32.7222222 21.3333333 32.7222222 19.2 29.5555556 19.2"></polygon>
            <polygon id="Fill-12" fill="#F8B53C" points="29.5555556 26.6666667 32.7222222 26.6666667 32.7222222 24.5333333 29.5555556 24.5333333"></polygon>
            <path d="M30.7506877,32 L26.2496753,32 C25.7435942,32 25.3333333,31.5222156 25.3333333,30.9332629 C25.3333333,30.3438875 25.7435942,29.8666667 26.2496753,29.8666667 L30.7506877,29.8666667 C31.2568898,29.8666667 31.6666667,30.3438875 31.6666667,30.9332629 C31.6666667,31.5222156 31.2564058,32 30.7506877,32 Z" id="Fill-13" fill="#18191B"></path>
            <path d="M30.7506877,36.2666667 L26.2496753,36.2666667 C25.7435942,36.2666667 25.3333333,35.7890085 25.3333333,35.1997887 C25.3333333,34.6109915 25.7435942,34.1333333 26.2496753,34.1333333 L30.7506877,34.1333333 C31.2568898,34.1333333 31.6666667,34.6109915 31.6666667,35.1997887 C31.6666667,35.7890085 31.2564058,36.2666667 30.7506877,36.2666667 Z" id="Fill-14" fill="#18191B"></path>
            <path d="M30.7506877,41.6 L26.2496753,41.6 C25.7435942,41.6 25.3333333,41.1223418 25.3333333,40.5335446 C25.3333333,39.9443249 25.7435942,39.4666667 26.2496753,39.4666667 L30.7506877,39.4666667 C31.2568898,39.4666667 31.6666667,39.9443249 31.6666667,40.5335446 C31.6666667,41.1223418 31.2564058,41.6 30.7506877,41.6 Z" id="Fill-15" fill="#18191B"></path>
            <path d="M30.7506877,46.9333333 L26.2496753,46.9333333 C25.7435942,46.9333333 25.3333333,46.4561125 25.3333333,45.8667371 C25.3333333,45.2777844 25.7435942,44.8 26.2496753,44.8 L30.7506877,44.8 C31.2568898,44.8 31.6666667,45.2777844 31.6666667,45.8667371 C31.6666667,46.4561125 31.2564058,46.9333333 30.7506877,46.9333333 Z" id="Fill-16" fill="#18191B"></path>
            <path d="M30.7506877,51.2 L26.2496753,51.2 C25.7435942,51.2 25.3333333,50.7223418 25.3333333,50.133122 C25.3333333,49.5443249 25.7435942,49.0666667 26.2496753,49.0666667 L30.7506877,49.0666667 C31.2568898,49.0666667 31.6666667,49.5443249 31.6666667,50.133122 C31.6666667,50.7223418 31.2564058,51.2 30.7506877,51.2 Z" id="Fill-17" fill="#18191B"></path>
            <path d="M24.2777778,14.5468056 L24.2777778,8.37495817 C24.2777778,7.87348433 23.8597546,7.46666667 23.3433657,7.46666667 L15.7125601,7.46666667 C15.1961712,7.46666667 14.7777778,7.87348433 14.7777778,8.37495817 L14.7777778,14.6321041 L19.7618436,16 L24.2777778,14.5468056 Z" id="Fill-18" fill="#F195D6"></path>
            <path d="M24.2777778,34.1333333 L24.2777778,14.9413506 C24.2777778,14.9368965 24.274322,14.9333333 24.2700023,14.9333333 L14.7854298,14.9333333 C14.7811101,14.9333333 14.7777778,14.9368965 14.7777778,14.9413506 L14.7777778,34.1333333 L24.2777778,34.1333333 Z" id="Fill-19" fill="#65CEE3"></path>
            <path d="M23.2873687,7.46666667 L21.1111111,7.46666667 L21.1111111,16 L24.2777778,14.9799924 L24.2777778,8.43053052 C24.2777778,7.89837481 23.8347035,7.46666667 23.2873687,7.46666667 Z" id="Fill-20" fill="#E480BE"></path>
            <path d="M21.1193244,34.1333333 L24.2777778,34.1333333 L24.2777778,14.9413506 C24.2777778,14.9368965 24.2741274,14.9333333 24.2695645,14.9333333 L21.1111111,14.9333333 C21.1152829,14.9333333 21.1193244,14.9368965 21.1193244,14.9413506 L21.1193244,34.1333333 Z" id="Fill-21" fill="#1BACD6"></path>
            <path d="M22.7717501,47.2205023 C22.0313538,42.9481822 20.4560871,37.5031554 18.3361468,31.8883103 C16.8099031,27.8470564 15.4193967,24.6174298 13.7522424,21.4335236 L8.99995983,21.3333333 C6.52737363,23.3455187 5.27777778,24.7589039 5.27777778,24.7589039 C6.12176307,28.0690031 7.29757795,31.7573113 8.71986314,35.5227647 C10.8398034,41.1376097 13.256592,46.2644431 15.5243406,49.9595293 C16.6496543,51.7926538 17.6865294,53.1873072 18.6070055,54.1052867 C18.97357,54.4711722 19.9715222,55.4666667 21.0772514,55.4666667 C21.2827049,55.4666667 21.4924695,55.4320376 21.7017414,55.3525508 C23.0392831,54.847163 23.1596237,52.9822438 23.1990393,52.3693948 C23.2827973,51.0720972 23.1394232,49.3400256 22.7717501,47.2205023 Z" id="Fill-22" fill="#F195D6"></path>
            <path d="M23.8168547,47.1962264 C23.0592812,42.911329 21.4474682,37.4502725 19.2783452,31.8193923 C17.7166926,27.7662413 16.2939264,24.5266127 14.5880941,21.3333333 L11.6111111,21.4776959 C13.282915,24.6246259 14.6865245,27.8270516 16.2244832,31.8193923 C18.3936062,37.4502725 20.0054192,42.911329 20.7631188,47.1962264 C21.1391959,49.3219893 21.2864003,51.0596544 21.2008251,52.3607711 C21.1693173,52.837736 21.0875231,54.0708738 20.4131301,54.8365638 C20.8783113,55.1673122 21.4636002,55.4666667 22.0830435,55.4666667 C22.2932636,55.4666667 22.5073906,55.43243 22.7220217,55.3527093 C24.0900904,54.84571 24.213727,52.9754243 24.254057,52.3607711 C24.3397582,51.0596544 24.1930579,49.3219893 23.8168547,47.1962264 Z" id="Fill-23" fill="#E480BE"></path>
            <path d="M5.7599011,24.5333333 C8.76542306,23.425414 11.7705518,22.3160174 14.7777778,21.2114218 C13.9840914,19.7586933 13.1909293,18.4219271 12.4141522,17.2342375 C11.2171341,15.403093 10.1131825,14.009946 9.13414971,13.0929581 C8.67130797,12.6596385 7.26364517,11.3415838 5.84025283,11.8470412 C4.41738481,12.3518831 4.28879582,14.214788 4.24685038,14.826975 C4.15771631,16.1228713 4.31081717,17.8535645 4.7014341,19.9707983 C4.9611026,21.3758863 5.31855641,22.9098622 5.7599011,24.5333333 Z" id="Fill-24" fill="#ECEDEF"></path>
            <g id="Group-28" transform="translate(0.000000, 3.200000)">
                <path d="M6.64203285,10.9709299 C7.6022029,11.8991377 8.68393623,13.310587 9.85754879,15.1651325 C10.61597,16.3631377 11.3905826,17.7112519 12.1655807,19.176187 C13.033486,18.8459221 13.9013913,18.5152831 14.7692966,18.1860156 C13.9912145,16.7147221 13.2136464,15.3608727 12.4521411,14.1580052 C11.278657,12.3034597 10.1964097,10.8925091 9.23662512,9.9638026 C8.78288309,9.52494545 7.40289565,8.19004675 6.00748792,8.70196364 C5.46983382,8.8987013 5.12146377,9.30052987 4.89260097,9.75484675 C5.69381353,10.0544416 6.35431594,10.6924052 6.64203285,10.9709299 Z" id="Fill-25" fill="#D0CFD1"></path>
                <path d="M12.1274155,7.24388571 C10.9919681,4.32760519 4.16424928,0.587844156 3.38976522,0.17092987 C3.15627633,0.0452571429 2.8781971,0.0258077922 2.6282599,0.117319481 C2.37883671,0.208955844 2.18299903,0.402327273 2.09368986,0.645818182 C1.79646377,1.45570909 -0.776540097,8.6414961 0.358907246,11.5577766 C0.952716908,13.0826805 2.1228599,14.2919065 3.65435169,14.9630338 C4.48100773,15.3253403 5.35945024,15.5069922 6.2403343,15.5069922 C6.99078841,15.5069922 7.74329855,15.374961 8.46612464,15.110026 C10.0377092,14.5339013 11.2840541,13.3982338 11.9757826,11.9128519 C12.6675111,10.4269714 12.7212251,8.76866494 12.1274155,7.24388571 Z" id="Fill-27" fill="#D47A3D"></path>
            </g>
            <path d="M12.2594218,10.1448038 C11.129772,7.32542916 4.33691503,3.70993764 3.56638544,3.30687711 C3.33408873,3.1853804 3.05742935,3.16657733 2.80876832,3.25504816 C2.56061867,3.34363951 2.36578092,3.53058535 2.27692775,3.76598523 C2.24547756,3.84975529 2.18756319,4.00463949 2.11111111,4.21701768 C4.41784173,5.55504846 8.32917114,8.06646269 9.16208972,10.1448038 C9.75299528,11.6193979 9.69955553,13.2221179 9.01135895,14.6586237 C8.32316236,16.0946474 7.08318119,17.1925775 5.51949321,17.749558 C5.30023683,17.8273014 5.07855136,17.8922684 4.85482035,17.9463875 C5.36326505,18.0698127 5.88206529,18.1333333 6.4023997,18.1333333 C7.14902203,18.1333333 7.89768991,18.0056895 8.61682529,17.749558 C10.1808968,17.1925775 11.420878,16.0946474 12.1085632,14.6586237 C12.7967598,13.2221179 12.8501995,11.6189157 12.2594218,10.1448038 Z" id="Fill-29" fill="#9F5C2E"></path>
            <path d="M32.8447038,32 L4.10023363,32 C3.58451615,32 3.16666667,32.4248475 3.16666667,32.948421 L3.16666667,59.6365117 C3.16666667,62.0423939 5.09259535,64 7.46003934,64 L29.4848981,64 C31.8518491,64 33.7777778,62.0423939 33.7777778,59.6365117 L33.7777778,32.948421 C33.7777778,32.4248475 33.3604213,32 32.8447038,32 Z" id="Fill-30" fill="#F83C38"></path>
            <g id="Group-34" transform="translate(0.000000, 29.866667)">
                <mask id="mask-14" fill="white">
                    <use xlink:href="#path-13"></use>
                </mask>
                <g id="Clip-32"></g>
                <path d="M33.3627662,2.77314916 L30.3733506,2.77314916 C30.8894351,2.77314916 31.3078052,3.18950216 31.3078052,3.70260719 L31.3078052,29.8570897 C31.3078052,32.2148681 29.3800455,34.1333333 27.0103506,34.1333333 L29.9997662,34.1333333 C32.3689675,34.1333333 34.2967273,32.2148681 34.2967273,29.8570897 L34.2967273,3.70260719 C34.2967273,3.18950216 33.878974,2.77314916 33.3627662,2.77314916 Z" id="Fill-31" fill="#BA2D2A" mask="url(#mask-14)"></path>
                <path d="M34.8307013,0.0460431655 L3.12290909,0.0460431655 C1.40094156,0.0460431655 0,1.44023022 0,3.15401823 L0,5.73906571 C0,7.45273094 1.40094156,8.84704077 3.12290909,8.84704077 L34.8307013,8.84704077 C36.5527922,8.84704077 37.9532403,7.45273094 37.9532403,5.73906571 L37.9532403,3.15401823 C37.9532403,1.44023022 36.5527922,0.0460431655 34.8307013,0.0460431655 Z" id="Fill-33" fill="#F85E49" mask="url(#mask-14)"></path>
            </g>
            <path d="M34.6968835,29.8666667 L31.6666667,29.8666667 C33.4882162,29.8666667 34.9696526,31.2184524 34.9696526,32.880119 L34.9696526,35.3865476 C34.9696526,37.0480952 33.4882162,38.4 31.6666667,38.4 L34.6968835,38.4 C36.5185635,38.4 38,37.0480952 38,35.3865476 L38,32.880119 C38,31.2184524 36.5185635,29.8666667 34.6968835,29.8666667 Z" id="Fill-35" fill="#F83C38"></path>
            <path d="M27.444096,58.6666667 C26.8615715,58.6666667 26.3888889,58.2541888 26.3888889,57.7457378 L26.3888889,41.4542622 C26.3888889,40.9458112 26.8615715,40.5333333 27.444096,40.5333333 C28.0273174,40.5333333 28.5,40.9458112 28.5,41.4542622 L28.5,57.7457378 C28.5,58.2541888 28.0273174,58.6666667 27.444096,58.6666667 Z" id="Fill-36" fill="#F85E49"></path>
        </g>
    </g>
</svg>