<?xml version="1.0" encoding="UTF-8"?>
<svg width="251px" height="292px" viewBox="0 0 251 292" version="1.1" xmlns="http://www.w3.org/2000/svg" xmlns:xlink="http://www.w3.org/1999/xlink">
    <!-- Generator: Sketch 52.4 (67378) - http://www.bohemiancoding.com/sketch -->
    <title>usability-baselining</title>
    <desc>Created with Sketch.</desc>
    <g id="usability-baselining" stroke="none" stroke-width="1" fill="none" fill-rule="evenodd">
        <g id="010-view" transform="translate(197.000000, 203.000000)"></g>
        <g id="026-analysis-copy" transform="translate(12.000000, 99.000000)">
            <g id="Group-21">
                <path d="M27.9217454,79 C26.2097929,79 24.5453491,78.1452473 23.6402259,76.6248187 C22.3026094,74.3730844 23.1282783,71.5134911 25.4897899,70.2344873 L50.6579495,56.6100099 C53.019461,55.3341313 56.0174257,56.1248166 57.3583187,58.3742071 C58.6992117,60.6267227 57.8702662,63.486316 55.5087547,64.7653198 L30.3405951,78.3890159 C29.5755407,78.8046726 28.7433188,79 27.9217454,79 Z" id="Fill-11" fill="#1B3D66"></path>
                <path d="M98.082275,79 C97.2598746,79 96.4243682,78.8046783 95.6601256,78.3890336 L70.4909054,64.7657322 C68.1293712,63.4867653 67.3012369,60.6272549 68.6413236,58.3748045 C69.9822294,56.1223541 72.9802229,55.3348168 75.3417571,56.6106585 L100.510977,70.2347412 C102.871692,71.513708 103.697369,74.3732184 102.35974,76.6248875 C101.454608,78.145272 99.7909674,79 98.082275,79 Z" id="Fill-12" fill="#1B3D66"></path>
                <path d="M115.721807,76 C114.770885,76 113.807358,75.6975149 112.976976,75.0684457 C110.852962,73.46461 110.363714,70.351673 111.884243,68.111289 L142.428764,23.0850563 C143.948505,20.8455034 146.89975,20.3286195 149.023764,21.9324552 C151.146991,23.5362909 151.636239,26.649228 150.115709,28.8887809 L119.571977,73.9158446 C118.648629,75.2761964 117.195854,76 115.721807,76 Z" id="Fill-13" fill="#1B3D66"></path>
                <path d="M63.5,38 C53.851375,38 46,45.851375 46,55.5 C46,65.148625 53.851375,73 63.5,73 C73.1495,73 81,65.148625 81,55.5 C81,45.851375 73.1495,38 63.5,38 Z" id="Fill-24" fill="#F2DF33"></path>
                <path d="M17.5,61 C7.847,61 0,68.849715 0,78.4982502 C0,88.1459104 7.847,96 17.5,96 C27.148625,96 35,88.1459104 35,78.4982502 C35,68.849715 27.148625,61 17.5,61 Z" id="Fill-25" fill="#5C9CEE"></path>
                <path d="M108.5,61 C98.851375,61 91,68.849715 91,78.4982502 C91,88.1459104 98.851375,96 108.5,96 C118.1495,96 126,88.1459104 126,78.4982502 C126,68.849715 118.1495,61 108.5,61 Z" id="Fill-26" fill="#ED5575"></path>
                <path d="M151.5,0 C141.851375,0 134,7.851375 134,17.5 C134,27.148625 141.851375,35 151.5,35 C161.152125,35 169,27.148625 169,17.5 C169,7.851375 161.152125,0 151.5,0 Z" id="Fill-27" fill="#9FD479"></path>
            </g>
            <g id="Group-25" transform="translate(133.000000, 59.000000)">
                <g id="Group-20" transform="translate(44.000000, 57.000000)" fill="#ED5575">
                    <path d="M0.759701863,9.19353371 L23.6965466,49.2756067 C26.081118,53.4418315 31.3589565,54.8680449 35.4885963,52.4623483 C39.6177516,50.0586067 41.031441,44.7320562 38.6468696,40.5658315 L15.7100248,0.485224719 L0.759701863,9.19353371 Z" id="Fill-19"></path>
                </g>
                <path d="M60.017763,58 L45,66.946972 L53.9802904,83 C56.6778328,82.0192829 59.3257361,80.7719193 61.8923676,79.2438485 C64.4585125,77.7157778 66.829021,75.9717786 69,74.0535302 L60.017763,58 Z" id="Fill-21" fill="#CC3A60"></path>
                <path d="M75,37.4992673 C75,58.2101801 58.2106175,75 37.5002442,75 C16.7893825,75 0,58.2101801 0,37.4992673 C0,16.7898199 16.7893825,0 37.5002442,0 C58.2106175,0 75,16.7898199 75,37.4992673 Z" id="Fill-22" fill="#F2DF33"></path>
                <path d="M65,36.9990375 C65,51.3597964 52.9117606,63 38.0002499,63 C23.0887392,63 11,51.3597964 11,36.9990375 C11,22.6402036 23.0887392,11 38.0002499,11 C52.9117606,11 65,22.6402036 65,36.9990375 Z" id="Fill-23" fill="#FFFFFF"></path>
            </g>
        </g>
    </g>
</svg>