<?xml version="1.0" encoding="UTF-8"?>
<svg width="250px" height="292px" viewBox="0 0 250 292" version="1.1" xmlns="http://www.w3.org/2000/svg" xmlns:xlink="http://www.w3.org/1999/xlink">
    <!-- Generator: Sketch 52.4 (67378) - http://www.bohemiancoding.com/sketch -->
    <title>user-survey</title>
    <desc>Created with Sketch.</desc>
    <defs>
        <polygon id="path-1" points="0.0307317073 0.398746667 209.7941 0.398746667 209.7941 37.52576 0.0307317073 37.52576"></polygon>
        <polygon id="path-3" points="0.0307317073 0.398746667 209.796146 0.398746667 209.796146 37.52576 0.0307317073 37.52576"></polygon>
    </defs>
    <g id="user-survey" stroke="none" stroke-width="1" fill="none" fill-rule="evenodd">
        <g id="014-task" transform="translate(20.000000, 100.000000)">
            <g id="Group-4" transform="translate(0.000000, 21.000000)">
                <mask id="mask-2" fill="white">
                    <use xlink:href="#path-1"></use>
                </mask>
                <g id="Clip-2"></g>
                <path d="M205.976707,12.1610133 L187.619634,0.857786667 C187.131512,0.556826667 186.569122,0.398746667 185.994951,0.398746667 L8.22534146,0.398746667 C3.68934146,0.398746667 0,4.04826667 0,8.5348 L0,29.3892 C0,33.87624 3.68934146,37.52576 8.22534146,37.52576 L185.994951,37.52576 C186.569122,37.52576 187.131512,37.36768 187.619634,37.06672 L205.976707,25.7634933 C208.367122,24.29112 209.794098,21.74968 209.794098,18.9630133 C209.794098,16.1763467 208.367122,13.6333867 205.976707,12.1610133 Z" id="Fill-1" fill="#FCAB29" mask="url(#mask-2)"></path>
                <path d="M205.976707,21.2749333 L187.619634,25.1185067 C187.131512,25.2193333 186.569122,25.27456 185.994951,25.27456 L8.22534146,25.27456 C3.68934146,25.27456 0,24.0337333 0,22.5076533 L0,29.3892 C0,33.87624 3.68934146,37.52576 8.22534146,37.52576 L185.994951,37.52576 C186.569122,37.52576 187.131512,37.36768 187.619634,37.06672 L205.976707,25.7634933 C208.367122,24.29112 209.794098,21.74968 209.7941,18.9630133 C209.796146,19.9094667 208.367122,20.7743467 205.976707,21.2749333 Z" id="Fill-3" fill="#DD8D19" mask="url(#mask-2)"></path>
            </g>
            <path d="M206.020584,33.0388389 L186.894623,21.4698336 C186.386057,21.161797 185.800111,21 185.201891,21 L182,21 L182,59 L185.201891,59 C185.800111,59 186.386057,58.8361287 186.894623,58.5301664 L206.020584,46.9611611 C208.511121,45.4541671 210,42.8508946 210,40.0007779 C210,37.1485869 208.511121,34.5458329 206.020584,33.0388389 Z" id="Fill-5" fill="#444966"></path>
            <g id="Group-10" transform="translate(0.000000, 21.000000)">
                <mask id="mask-4" fill="white">
                    <use xlink:href="#path-3"></use>
                </mask>
                <g id="Clip-7"></g>
                <path d="M205.976707,21.2749333 L187.619634,25.1185067 C187.131512,25.2193333 186.569122,25.27456 185.994951,25.27456 L182.92178,25.27456 L182.92178,37.52576 L185.994951,37.52576 C186.569122,37.52576 187.131512,37.36768 187.619634,37.06672 L205.976707,25.7634933 C208.367122,24.29112 209.796146,21.74968 209.796146,18.9630133 C209.796146,19.9094667 208.367122,20.7743467 205.976707,21.2749333 Z" id="Fill-6" fill="#2E344C" mask="url(#mask-4)"></path>
                <path d="M17.9806098,29.3892 L17.9806098,8.5348 C17.9806098,4.04826667 21.6704634,0.398746667 26.2059512,0.398746667 L8.22534146,0.398746667 C3.68934146,0.398746667 0,4.04826667 0,8.5348 L0,29.3892 C0,33.87624 3.68934146,37.52576 8.22534146,37.52576 L26.2059512,37.52576 C21.6704634,37.52576 17.9806098,33.87624 17.9806098,29.3892 Z" id="Fill-8" fill="#EC86C8" mask="url(#mask-4)"></path>
                <path d="M17.9806098,29.3892 L17.9806098,25.27456 L8.22534146,25.27456 C3.68934146,25.27456 0,24.0337333 0,22.5076533 L0,29.3892 C0,33.87624 3.68934146,37.52576 8.22534146,37.52576 L26.2059512,37.52576 C21.6704634,37.52576 17.9806098,33.87624 17.9806098,29.3892 Z" id="Fill-9" fill="#D770B7" mask="url(#mask-4)"></path>
            </g>
            <path d="M158.029167,9 L35.0875124,9 C33.382691,9 32,10.3736806 32,12.0719656 L32,171.104039 C32,179.317963 38.7153394,186 46.9687745,186 L135.785184,186 C136.605433,186 137.389147,185.675908 137.968056,185.099914 L172.095873,151.146503 C172.674782,150.570509 173,149.788182 173,148.974111 L173,23.8939131 C173,15.6799891 166.284661,9 158.029167,9 Z" id="Fill-11" fill="#EBEEF2"></path>
            <path d="M156.8395,9 L146,9 C154.360083,9 161.161021,15.6896257 161.161021,23.9153991 L161.161021,149.176038 C161.161021,149.991284 160.831162,150.774739 160.244919,151.351564 L158.569567,153 L169.406983,153 L171.084419,151.351564 C171.670662,150.774739 172,149.991284 172,149.176038 L172,23.9153991 C172,15.6896257 165.199583,9 156.8395,9 Z" id="Fill-12" fill="#DCE0E5"></path>
            <path d="M171.766493,147.893258 C171.29203,146.74617 170.174567,146 168.935551,146 L135.064343,146 C133.372826,146 132,147.372319 132,149.064351 L132,182.935649 C132,184.174668 132.746168,185.291624 133.891211,185.766599 C134.272211,185.923902 134.669554,186 135.064343,186 C135.862605,186 136.646566,185.688968 137.230834,185.102145 L171.102552,151.230848 C171.977933,150.354954 172.241466,149.038304 171.766493,147.893258 Z" id="Fill-13" fill="#D1D6DE"></path>
            <path d="M56,24 C54.3435,24 53,22.641347 53,20.9616407 L53,3.03835929 C53,1.35865299 54.3435,0 56,0 C57.656,0 59,1.35865299 59,3.03835929 L59,20.9616407 C59,22.641347 57.658,24 56,24 Z" id="Fill-14" fill="#444966"></path>
            <path d="M86,24 C84.3415,24 83,22.641347 83,20.9616407 L83,3.03835929 C83,1.35865299 84.3415,0 86,0 C87.656,0 89,1.35865299 89,3.03835929 L89,20.9616407 C89,22.641347 87.656,24 86,24 Z" id="Fill-15" fill="#444966"></path>
            <path d="M118,24 C116.344,24 115,22.641347 115,20.9616407 L115,3.03835929 C115,1.35865299 116.344,0 118,0 C119.658,0 121,1.35865299 121,3.03835929 L121,20.9616407 C121,22.641347 119.658,24 118,24 Z" id="Fill-16" fill="#444966"></path>
            <path d="M149,24 C147.344,24 146,22.641347 146,20.9616407 L146,3.03835929 C146,1.35865299 147.344,0 149,0 C150.6565,0 152,1.35865299 152,3.03835929 L152,20.9616407 C152,22.641347 150.6565,24 149,24 Z" id="Fill-17" fill="#444966"></path>
            <path d="M64.3313966,61 C63.5297123,61 62.7280279,60.7077392 62.1159276,60.1232177 L55.9181505,54.2046881 C54.6939498,53.0361439 54.6939498,51.1404389 55.9181505,49.9733908 C57.1423512,48.8043478 59.1274991,48.8043478 60.3490885,49.9733908 L64.3313966,53.7762718 L73.650781,44.8767823 C74.8749816,43.7077392 76.8580405,43.7077392 78.0822412,44.8767823 C79.3059196,46.0458253 79.3059196,47.9395353 78.0822412,49.1085783 L66.5473878,60.1232177 C65.9352875,60.7077392 65.1336032,61 64.3313966,61 Z" id="Fill-18" fill="#48CFB7"></path>
            <path d="M143.939254,49 L101.060746,49 C99.3686638,49 98,47.6565 98,46 C98,44.342 99.3686638,43 101.060746,43 L143.939254,43 C145.630826,43 147,44.342 147,46 C147,47.6565 145.630826,49 143.939254,49 Z" id="Fill-19" fill="#1B3D66"></path>
            <path d="M115.975806,63 L101.024194,63 C99.3523185,63 98,61.656 98,60 C98,58.3435 99.3523185,57 101.024194,57 L115.975806,57 C117.647177,57 119,58.3435 119,60 C119,61.656 117.647177,63 115.975806,63 Z" id="Fill-20" fill="#1B3D66"></path>
            <path d="M64.3313966,103 C63.5015097,103 62.7034813,102.684299 62.1159276,102.123218 L55.9181505,96.2046881 C54.6939498,95.0356451 54.6939498,93.1399402 55.9181505,91.9733908 C57.1423512,90.8043478 59.1274991,90.8043478 60.3490885,91.9733908 L64.3313966,95.7762718 L73.650781,86.8767823 C74.8749816,85.7077392 76.8580405,85.7077392 78.0822412,86.8767823 C79.3059196,88.0458253 79.3059196,89.9390366 78.0822412,91.1080796 L66.5473878,102.123218 C65.9598342,102.684299 65.1618057,103 64.3313966,103 Z" id="Fill-21" fill="#48CFB7"></path>
            <path d="M143.939254,91 L101.060746,91 C99.3686638,91 98,89.656 98,88 C98,86.3415 99.3686638,85 101.060746,85 L143.939254,85 C145.630826,85 147,86.3415 147,88 C147,89.656 145.630826,91 143.939254,91 Z" id="Fill-22" fill="#1B3D66"></path>
            <path d="M115.975806,105 L101.024194,105 C99.3523185,105 98,103.6565 98,102 C98,100.344 99.3523185,99 101.024194,99 L115.975806,99 C117.647177,99 119,100.344 119,102 C119,103.6565 117.647177,105 115.975806,105 Z" id="Fill-23" fill="#1B3D66"></path>
            <path d="M143.939254,134 L101.060746,134 C99.3686638,134 98,132.6565 98,131 C98,129.342 99.3686638,128 101.060746,128 L143.939254,128 C145.630826,128 147,129.342 147,131 C147,132.6565 145.630826,134 143.939254,134 Z" id="Fill-24" fill="#1B3D66"></path>
            <path d="M115.975806,148 L101.024194,148 C99.3523185,148 98,146.656 98,145 C98,143.3415 99.3523185,142 101.024194,142 L115.975806,142 C117.647177,142 119,143.3415 119,145 C119,146.656 117.647177,148 115.975806,148 Z" id="Fill-25" fill="#1B3D66"></path>
            <path d="M67,151 C59.281266,151 53,144.720661 53,136.999745 C53,129.28087 59.281266,123 67,123 C74.7207759,123 81,129.28087 81,136.999745 C81,144.720661 74.7207759,151 67,151 Z M67,129.125686 C62.6590097,129.125686 59.1255743,132.658675 59.1255743,136.999745 C59.1255743,141.342856 62.6590097,144.874314 67,144.874314 C71.3430322,144.874314 74.8744257,141.342856 74.8744257,136.999745 C74.8744257,132.658675 71.3430322,129.125686 67,129.125686 Z" id="Fill-26" fill="#ED5575"></path>
        </g>
    </g>
</svg>