<?xml version="1.0" encoding="UTF-8"?>
<svg width="250px" height="292px" viewBox="0 0 250 292" version="1.1" xmlns="http://www.w3.org/2000/svg" xmlns:xlink="http://www.w3.org/1999/xlink">
    <!-- Generator: Sketch 52.4 (67378) - http://www.bohemiancoding.com/sketch -->
    <title>user-interview</title>
    <desc>Created with Sketch.</desc>
    <defs>
        <polygon id="path-1" points="0.023187251 0.271850786 96.7689004 0.271850786 96.7689004 87.9404795 0.023187251 87.9404795"></polygon>
    </defs>
    <g id="user-interview" stroke="none" stroke-width="1" fill="none" fill-rule="evenodd">
        <g id="Group" transform="translate(27.000000, 88.000000)">
            <path d="M146.002109,11 C119.490477,11 98,25.0146965 98,52.0507348 C98,79.0871565 119.490477,101 146.002109,101 C172.511056,101 194,79.0871565 194,52.0507348 C194,25.0146965 172.511056,11 146.002109,11 Z" id="Fill-1" fill="#FBC4AC"></path>
            <path d="M107.524951,51.5005815 C107.524951,25.8099352 126.594118,4.69409645 151,2.24075894 C149.43312,2.08141607 147.845435,2 146.238102,2 C119.596131,2 98,24.1606783 98,51.5005815 C98,78.8408725 119.596131,101 146.238102,101 C147.845435,101 149.43312,100.918196 151,100.760792 C126.594118,98.3059035 107.524951,77.1900648 107.524951,51.5005815 Z" id="Fill-2" fill="#E3B098"></path>
            <path d="M172.000194,63 C170.342264,63 169,61.662434 169,60.010306 L169,54.989694 C169,53.3391136 170.342264,52 172.000194,52 C173.657736,52 175,53.3391136 175,54.989694 L175,60.010306 C175,61.662434 173.657736,63 172.000194,63 Z" id="Fill-3" fill="#3A484A"></path>
            <path d="M175.967909,70 L169.032483,70 C167.356709,70 166,68.6561833 166,66.9998059 C166,65.3438167 167.356709,64 169.032483,64 L175.967909,64 C177.643291,64 179,65.3438167 179,66.9998059 C179,68.6561833 177.643291,70 175.967909,70 Z" id="Fill-4" fill="#F98084"></path>
            <path d="M120.999806,63 C119.342264,63 118,61.662434 118,60.010306 L118,54.989694 C118,53.3391136 119.342264,52 120.999806,52 C122.657736,52 124,53.3391136 124,54.989694 L124,60.010306 C124,61.662434 122.657736,63 120.999806,63 Z" id="Fill-5" fill="#3A484A"></path>
            <path d="M123.967517,70 L117.032091,70 C115.356709,70 114,68.6561833 114,66.9998059 C114,65.3438167 115.356709,64 117.032091,64 L123.967517,64 C125.643291,64 127,65.3438167 127,66.9998059 C127,68.6561833 125.643291,70 123.967517,70 Z" id="Fill-6" fill="#F98084"></path>
            <g id="Group-11" transform="translate(98.000000, 0.000000)">
                <path d="M48.7322967,69.8784615 C46.0746138,69.8784615 43.5764228,68.7680769 41.8764634,66.8315385 C40.791687,65.595 40.9198984,63.7184615 42.1599187,62.6380769 C43.4014837,61.5580769 45.2856504,61.6842308 46.3700407,62.9207692 C46.9357927,63.5653846 47.7973577,63.9346154 48.7322967,63.9346154 C49.667622,63.9346154 50.5307317,63.5653846 51.0960976,62.9192308 C52.180874,61.6842308 54.0650407,61.5580769 55.3066057,62.6380769 C56.5481707,63.7184615 56.6748374,65.5965385 55.5885163,66.8315385 C53.8901016,68.7680769 51.3903659,69.8784615 48.7322967,69.8784615 Z" id="Fill-7" fill="#3A484A"></path>
                <path d="M94.769065,37.4803846 C91.4490854,-2.77807692 75.1496341,3.42115385 48.7353862,3.42115385 C28.7656911,3.42115385 19.1760976,1.43038462 15.0910976,0.160769231 C13.457561,-0.348461538 11.6985163,0.384615385 10.9215244,1.90346154 C7.6602439,8.27807692 0.383089431,25.5226923 0.383089431,52.5284615 C0.383089431,52.5284615 11.9476016,31.7876923 48.7338415,31.7876923 C65.8481301,31.7876923 64.416565,37.4803846 94.769065,37.4803846 Z" id="Fill-9" fill="#C86D5C"></path>
                <path d="M20.4705691,1.90346154 C20.545874,1.75615385 20.6319919,1.61807692 20.7254472,1.48730769 C18.203313,1.02923077 16.3747561,0.558846154 15.0910976,0.160769231 C13.457561,-0.348461538 11.6985163,0.384615385 10.9215244,1.90346154 C7.6602439,8.27807692 0.383089431,25.5226923 0.383089431,52.5284615 C0.383089431,52.5284615 3.15121951,47.5692308 10.277378,42.5015385 C11.7572154,21.2288462 17.6313821,7.44884615 20.4705691,1.90346154 Z" id="Fill-10" fill="#AD4F3D"></path>
            </g>
            <g id="Group-19" transform="translate(0.000000, 98.000000)">
                <path d="M0,47.6623973 L0,78.9566889 C0,86.7524118 5.94719555,93.3033436 13.8095439,94.1648881 L36.6293706,96.6673973 L0,47.6623973 Z" id="Fill-12" fill="#3A484A"></path>
                <g id="Group-17" transform="translate(0.000000, 10.069521)">
                    <mask id="mask-2" fill="white">
                        <use xlink:href="#path-1"></use>
                    </mask>
                    <g id="Clip-14"></g>
                    <path d="M96.7329602,37.2313226 L96.7329602,68.7021613 C96.7329602,76.5418639 90.7761554,83.1297529 82.8990598,83.9961578 L60.0364303,86.5127849 L96.7329602,37.2313226 Z" id="Fill-13" fill="#3A484A" mask="url(#mask-2)"></path>
                    <path d="M96.7329602,37.2313226 L96.7298685,37.2359107 L47.310494,0.271850786 L0.0394183267,37.2359107 L0.0347808765,37.2313226 C0.0119800797,37.8602882 0,38.487342 0,39.1205135 C0,66.0838292 21.6611434,87.9404795 48.3836773,87.9404795 C75.1081434,87.9404795 96.7689004,66.0838292 96.7689004,39.1205135 C96.7689004,38.4888714 96.7569203,37.8602882 96.7329602,37.2313226 Z" id="Fill-15" fill="#FBC4AC" mask="url(#mask-2)"></path>
                    <path d="M8.03863347,35.6766878 C5.42543028,36.3993291 2.75194024,36.9384425 0.0394183267,37.2359107 L0.0347808765,37.2313226 C0.0119800797,37.8602882 0,38.487342 0,39.1205135 C0,66.0838292 21.6611434,87.9404795 48.3836773,87.9404795 C49.7648645,87.9404795 51.1313665,87.8793035 52.4824104,87.7642161 C28.4542351,85.5924687 9.36996813,63.3416156 8.03863347,35.6766878 Z" id="Fill-16" fill="#E3B098" mask="url(#mask-2)"></path>
                </g>
                <path d="M22.7237762,59.7458219 C21.0385502,59.7458219 19.6713287,58.4397712 19.6713287,56.82657 L19.6713287,51.9242519 C19.6713287,50.3125619 21.0385502,49.005 22.7237762,49.005 C24.4101873,49.005 25.7762238,50.3125619 25.7762238,51.9242519 L25.7762238,56.82657 C25.7762238,58.4397712 24.4101873,59.7458219 22.7237762,59.7458219 Z" id="Fill-18" fill="#3A484A"></path>
                <path d="M26.1618381,67.130137 L19.2861034,67.130137 C17.6247528,67.130137 16.2797203,65.7785419 16.2797203,64.1094763 C16.2797203,62.4415837 17.6247528,61.0884247 19.2861034,61.0884247 L26.1618381,61.0884247 C27.8227996,61.0884247 29.1678322,62.4415837 29.1678322,64.1094763 C29.1678322,65.7785419 27.8227996,67.130137 26.1618381,67.130137 Z" id="Fill-19" fill="#F98084"></path>
                <path d="M74.2760262,59.7458219 C72.5910863,59.7458219 71.2237762,58.4397712 71.2237762,56.82657 L71.2237762,51.9242519 C71.2237762,50.3125619 72.5910863,49.005 74.2760262,49.005 C75.9629415,49.005 77.3286713,50.3125619 77.3286713,51.9242519 L77.3286713,56.82657 C77.3286713,58.4397712 75.9629415,59.7458219 74.2760262,59.7458219 Z" id="Fill-20" fill="#3A484A"></path>
                <path d="M77.7138966,67.130137 L70.8381619,67.130137 C69.1772004,67.130137 67.8321678,65.7785419 67.8321678,64.1094763 C67.8321678,62.4415837 69.1772004,61.0884247 70.8381619,61.0884247 L77.7138966,61.0884247 C79.3752472,61.0884247 80.7202797,62.4415837 80.7202797,64.1094763 C80.7202797,65.7785419 79.3752472,67.130137 77.7138966,67.130137 Z" id="Fill-21" fill="#F98084"></path>
                <path d="M48.1596637,67.130137 C45.547955,67.130137 43.0937154,66.0085038 41.4230263,64.0507934 C40.3575494,62.8032824 40.4835246,60.9061799 41.7019172,59.8152391 C42.9203098,58.7254639 44.7727523,58.8528957 45.8386087,60.1004067 C46.3944932,60.7531063 47.2406519,61.126466 48.1596637,61.126466 C49.0786755,61.126466 49.9263519,60.7531063 50.4822364,60.1004067 C51.5480928,58.8528957 53.4009147,58.7254639 54.6193073,59.8164047 C55.8392177,60.907734 55.9636752,62.8032824 54.8978188,64.0523475 C53.2275091,66.0085038 50.7713723,67.130137 48.1596637,67.130137 Z" id="Fill-22" fill="#3A484A"></path>
                <path d="M0,47.6578033 L0.00461939397,47.6623973 C25.8713009,44.8164242 48.1606467,19.9698622 48.1606467,19.9698622 C48.1606467,19.9698622 70.4515323,44.8164242 96.3185987,47.6623973 L96.3216783,47.6578033 C95.3427517,21.5383248 74.1566712,0.67130137 48.1606467,0.67130137 C22.166162,0.67130137 0.98046637,21.5383248 0,47.6578033 Z" id="Fill-23" fill="#3A484A"></path>
                <path d="M52.4327119,0.737607454 C51.057712,0.618461511 49.668064,0.554306002 48.2614549,0.554306002 C22.2312848,0.554306002 1.01650538,21.3693315 0.0346930162,47.425251 L0.0393187517,47.428306 C2.90149259,47.1147842 5.26871273,46.6569124 8.01832701,45.8710074 C9.7271508,22.0005759 28.8896456,2.77225357 52.4327119,0.737607454 Z" id="Fill-24" fill="#323E40"></path>
            </g>
            <path d="M77.8220236,66.237345 L77.8220236,36.3396178 C77.8220236,25.6590909 69.2440127,17 58.6592072,17 L19.1628163,17 C8.57993011,17 0,25.6590909 0,36.3396178 L0,63.6619318 C0,74.3424587 8.57993011,83 19.1628163,83 L87,83 L77.8220236,66.237345 Z" id="Fill-26" fill="#58B78C"></path>
            <path d="M117.177936,163.237247 L117.177936,133.338182 C117.177936,122.657205 125.757828,114 136.340668,114 L175.837268,114 C186.420108,114 195,122.657205 195,133.338182 L195,160.660269 C195,171.340858 186.420108,180 175.837268,180 L108,180 L117.177936,163.237247 Z" id="Fill-31" fill="#F2C42C"></path>
            <path d="M37.3398727,58.84 C32.2781618,58.84 28.16,54.7218382 28.16,49.6601273 C28.16,44.5981618 32.2781618,40.48 37.3398727,40.48 C42.4018382,40.48 46.52,44.5981618 46.52,49.6601273 C46.52,50.7409061 46.3308319,51.7781482 45.9858483,52.7420654 L45.3674239,52.123641 C43.831165,50.5871274 41.3401545,50.5871274 39.803641,52.123641 C38.2671274,53.6601545 38.2671274,56.151165 39.803641,57.6874239 L40.4220654,58.3061029 C39.4581482,58.6508319 38.4209061,58.84 37.3398727,58.84 Z M52.8507064,60.3027687 L51.4655626,58.917371 C53.0705624,56.3227652 54,53.268391 54,50 C54,40.6261611 46.3738389,33 37,33 C27.6261611,33 20,40.6261611 20,50 C20,59.373585 27.6261611,67 37,67 C40.268391,67 43.3232729,66.0705624 45.917371,64.4653087 L47.3027687,65.8507064 C48.0689645,66.6166482 49.0727876,67 50.0766106,67 C51.0804337,67 52.0847645,66.6169021 52.8504525,65.8507064 C54.3830979,64.3185687 54.3830979,61.8343986 52.8507064,60.3027687 Z" id="Fill-5" fill="#FFFFFF"></path>
            <path d="M149.065822,155.249385 L154.999919,139.632359 L160.934378,155.249385 L149.065822,155.249385 Z M168.820959,160.26588 L157.621532,130.792921 C157.211865,129.714343 156.167134,129 154.999919,129 C153.832885,129 152.788154,129.714343 152.378487,130.792921 L141.17906,160.26588 C140.636039,161.694566 141.36967,163.2874 142.817545,163.823291 C144.265239,164.359183 145.879083,163.635184 146.422104,162.206319 L146.96585,160.775665 L163.03435,160.775665 L163.577915,162.206319 C163.99954,163.315652 165.066376,164.000134 166.19989,163.999955 C166.526572,163.999955 166.858872,163.943093 167.182655,163.823291 C168.630168,163.2874 169.363981,161.694745 168.820959,160.26588 Z" id="Fill-10" fill="#FFFFFF"></path>
        </g>
    </g>
</svg>